<svg width="28" height="32" viewBox="0 0 28 32" fill="none" xmlns="http://www.w3.org/2000/svg">
<path opacity="0.7" d="M14 14.5904C13.1716 14.5904 12.5 15.2215 12.5 16C12.5 16.7785 13.1716 17.4096 14 17.4096C14.8284 17.4096 15.5 16.7785 15.5 16C15.5 15.2215 14.8284 14.5904 14 14.5904ZM14 22.1807C13.1716 22.1807 12.5 22.8118 12.5 23.5904C12.5 24.3689 13.1716 25 14 25C14.8284 25 15.5 24.3689 15.5 23.5904C15.5 22.8118 14.8284 22.1807 14 22.1807ZM14 7C13.1716 7 12.5 7.63111 12.5 8.40964C12.5 9.18815 13.1716 9.81928 14 9.81928C14.8284 9.81928 15.5 9.18817 15.5 8.40964C15.5 7.63111 14.8284 7 14 7Z" fill="#151515" stroke="#151515" stroke-width="1.5"/>
</svg>
