<svg width="32" height="32" viewBox="0 0 32 32" fill="none" xmlns="http://www.w3.org/2000/svg">
<path d="M9.75 6.09961H22.25C24.266 6.09961 25.9004 7.73521 25.9004 9.75V22.25C25.9004 23.218 25.5156 24.1465 24.8311 24.8311C24.1465 25.5156 23.218 25.9004 22.25 25.9004H9.75C8.78196 25.9004 7.85345 25.5156 7.16895 24.8311C6.48444 24.1465 6.09961 23.218 6.09961 22.25V9.75C6.09961 7.73521 7.734 6.09961 9.75 6.09961ZM9.75 8.40039C9.00477 8.40039 8.40039 9.00477 8.40039 9.75V22.25C8.40039 22.608 8.54175 22.9519 8.79492 23.2051C9.0481 23.4583 9.39196 23.5996 9.75 23.5996H22.25C22.9965 23.5996 23.5996 22.9965 23.5996 22.25V9.75C23.5996 9.39196 23.4583 9.0481 23.2051 8.79492C22.9519 8.54175 22.608 8.40039 22.25 8.40039H9.75ZM19.1445 12.5332C19.5942 12.0836 20.3208 12.0835 20.7705 12.5332C21.2202 12.9829 21.2202 13.7095 20.7705 14.1592L15.4678 19.4619C15.3611 19.5687 15.2342 19.6531 15.0947 19.7109C14.9553 19.7687 14.8062 19.7988 14.6553 19.7988C14.5043 19.7988 14.3543 19.7688 14.2148 19.7109C14.0754 19.6531 13.9484 19.5687 13.8418 19.4619L11.1895 16.8105C10.7399 16.3622 10.7398 15.6343 11.1895 15.1846C11.6392 14.7348 12.3671 14.735 12.8154 15.1846L14.584 16.9521L14.6553 17.0225L19.1445 12.5332Z" fill="#151515" fill-opacity="0.7" stroke="white" stroke-width="0.2"/>
</svg>
