<svg width="11" height="21" viewBox="0 0 11 21" fill="none" xmlns="http://www.w3.org/2000/svg">
<path d="M9.57129 0.0996094C9.81874 0.0996326 10.0377 0.165236 10.2305 0.293945L10.2314 0.294922C10.4331 0.425308 10.5935 0.603023 10.7119 0.830078L10.7139 0.833008C10.8376 1.05053 10.9003 1.29432 10.9004 1.56641C10.9004 1.97748 10.7624 2.3356 10.4854 2.64453L3.28809 10.4316L3.22559 10.5L3.28809 10.5674L10.4834 18.3525V18.3535C10.7622 18.6713 10.9004 19.0302 10.9004 19.4336C10.9003 19.714 10.8374 19.9616 10.7139 20.1787L10.7119 20.1807C10.5937 20.4 10.4339 20.5742 10.2314 20.7051L10.2305 20.7061C10.0377 20.8348 9.81874 20.9004 9.57129 20.9004C9.21571 20.9004 8.91678 20.7649 8.66895 20.4893L8.66797 20.4883L0.578125 11.6836L0.577148 11.6826C0.410111 11.5041 0.288739 11.3203 0.209961 11.1318C0.137459 10.9338 0.0999293 10.7245 0.0996094 10.5029C0.106293 10.2723 0.146796 10.0624 0.21875 9.87207C0.297878 9.68126 0.41748 9.4953 0.579102 9.31543L0.578125 9.31445L8.66797 0.511719L8.66895 0.510742C8.91678 0.235143 9.21571 0.0996094 9.57129 0.0996094Z" fill="#151515" fill-opacity="0.7" stroke="white" stroke-width="0.2"/>
</svg>
