<svg width="393" height="518" viewBox="0 0 393 518" fill="none" xmlns="http://www.w3.org/2000/svg">
<path d="M-55.4805 0.032805C-44.633 -0.142154 -33.7856 0.382719 -22.7632 1.60743C-2.46796 3.53198 17.4774 7.73099 37.0728 13.3297C54.9185 18.2285 72.2395 24.702 88.6856 33.4499C123.852 52.1705 149.221 79.814 165.842 115.856C172.841 131.077 177.565 147.173 180.014 163.794C181.939 176.216 182.289 188.813 181.414 201.235C179.489 225.905 171.616 248.474 158.319 269.12C139.074 299.037 113.53 322.307 82.3871 339.278C57.8929 352.575 32.1739 362.373 5.0553 368.321C-5.26727 370.596 -15.7648 372.695 -26.4373 373.92C-38.3345 375.495 -50.2317 376.019 -62.1289 375.32C-75.6007 374.445 -88.7227 371.296 -101.495 366.747C-122.84 359.223 -140.336 346.276 -154.332 328.606C-157.831 324.232 -160.806 319.333 -163.955 314.609C-171.478 303.586 -179.001 292.389 -186.7 281.367C-193.173 272.094 -201.221 264.571 -211.544 259.672C-216.443 257.397 -221.516 255.298 -226.59 253.548C-236.038 250.224 -245.836 248.474 -255.808 246.9C-268.055 244.8 -280.303 243.051 -292.025 239.202C-302.347 236.052 -311.795 231.153 -319.143 222.93C-328.416 212.783 -334.19 201.061 -336.114 187.414C-337.514 176.566 -335.765 166.069 -332.265 155.746C-328.241 144.199 -322.643 133.526 -315.119 123.904C-307.071 113.406 -298.848 103.259 -289.925 93.6358C-274.529 77.1897 -257.033 63.1929 -237.963 51.1208C-206.995 31.7004 -173.753 18.2285 -138.236 9.65554C-124.589 6.33132 -110.767 3.8819 -96.9457 2.30727C-83.4739 0.732639 -69.6521 -0.142154 -55.4805 0.032805Z" fill="#DDE9ED"/>
<path d="M226.557 186.002C226.557 183.027 226.382 179.878 226.732 176.904C227.956 165.706 233.73 156.084 247.027 153.109C248.951 152.584 251.051 152.41 253.15 152.41C269.597 152.235 286.043 152.06 302.664 152.06C330.832 151.885 358.826 151.885 386.994 151.885C419.011 151.885 450.854 151.885 482.871 151.71C488.47 151.71 494.244 151.535 499.842 151.71C513.314 151.885 526.961 152.235 540.433 152.41C542.882 152.41 545.332 152.41 547.781 152.41C553.38 152.235 558.629 153.284 563.352 156.084C569.826 159.933 573.675 165.881 574.9 173.23C575.6 176.729 575.6 180.228 575.775 183.727C575.95 206.647 575.6 496.554 575.6 561.813C575.6 574.41 566.327 585.083 553.905 586.482C553.555 586.482 553.38 586.482 553.03 586.657C550.231 586.832 547.256 587.007 544.282 587.007C498.443 587.182 452.604 587.357 406.764 587.532C373.172 587.532 339.755 587.357 306.163 587.357C288.842 587.357 271.521 587.182 254.2 587.007C250.001 587.007 245.802 586.482 241.778 584.908C233.03 581.409 228.306 574.585 226.032 565.662C225.157 562.163 224.982 558.664 224.982 555.165C225.157 531.72 225.332 560.763 225.507 537.319C225.507 506.176 226.382 226.942 226.557 186.002Z" fill="#CECECE"/>
<path d="M206.961 186.002C206.961 183.027 206.786 179.878 207.136 176.904C208.36 165.706 214.134 156.084 227.431 153.109C229.355 152.584 231.455 152.41 233.554 152.41C250 152.235 266.447 152.06 283.068 152.06C311.236 151.885 339.229 151.885 367.398 151.885C399.415 151.885 431.258 151.885 463.275 151.71C468.874 151.71 474.648 151.535 480.246 151.71C493.718 151.885 507.365 152.235 520.837 152.41C523.286 152.41 525.736 152.41 528.185 152.41C533.784 152.235 539.033 153.284 543.756 156.084C550.23 159.933 554.079 165.881 555.304 173.23C556.004 176.729 556.004 180.228 556.178 183.727C556.353 206.647 556.004 496.554 556.004 561.813C556.004 574.41 546.731 585.083 534.309 586.482C533.959 586.482 533.784 586.482 533.434 586.657C530.634 586.832 527.66 587.007 524.686 587.007C478.847 587.182 433.007 587.357 387.168 587.532C353.576 587.532 320.159 587.357 286.567 587.357C269.246 587.357 251.925 587.182 234.604 587.007C230.405 587.007 226.206 586.482 222.182 584.908C213.434 581.409 208.71 574.585 206.436 565.662C205.561 562.163 205.386 558.664 205.386 555.165C205.561 531.72 205.736 560.763 205.911 537.319C205.911 506.176 206.786 226.942 206.961 186.002Z" fill="#F7F7F7"/>
<path d="M341.329 143.661C335.73 136.488 323.658 137.363 319.109 143.661C319.809 145.236 320.509 146.811 320.859 148.385C321.034 149.26 321.034 150.135 321.034 151.01C321.034 151.36 320.684 151.71 320.509 151.71C320.159 151.71 319.634 151.71 319.634 151.36C319.284 150.835 319.109 150.135 318.934 149.61C318.584 148.385 318.059 147.161 317.359 145.936C317.009 146.286 316.835 146.461 316.66 146.811C312.286 154.684 315.26 163.957 323.133 167.806C323.483 167.981 323.833 168.156 324.183 168.331C324.883 168.681 324.883 169.205 324.533 169.905C324.183 170.43 323.658 170.78 323.133 170.43C321.558 169.555 319.809 168.856 318.584 167.631C311.936 162.207 310.536 152.759 315.085 145.236C315.435 144.711 315.61 144.186 315.96 143.836C310.886 137.013 298.814 137.013 293.74 143.836C294.44 145.411 294.965 146.986 295.49 148.385C295.665 149.26 295.839 150.135 295.665 151.01C295.665 151.36 295.315 151.885 294.965 151.885C294.615 151.885 294.09 151.535 293.915 151.36C293.565 150.835 293.565 150.31 293.39 149.785C293.04 148.56 292.69 147.336 291.815 146.111C290.941 147.511 290.416 148.735 290.066 149.96C287.616 157.483 291.466 165.006 297.939 167.981C299.339 168.681 299.689 169.205 299.164 170.08C298.814 170.78 298.114 170.78 296.889 170.255C290.591 167.106 287.441 162.032 287.092 155.034C286.917 151.36 287.966 148.035 289.891 145.061C290.066 144.711 290.241 144.361 290.416 144.186C285.692 137.188 273.095 137.363 268.196 144.186C268.896 145.761 269.596 147.336 269.946 148.91C270.121 149.785 270.121 150.66 270.121 151.535C270.121 151.885 269.771 152.234 269.596 152.234C269.246 152.234 268.721 152.059 268.546 151.71C268.196 151.185 268.021 150.66 267.846 150.135C267.496 148.91 266.971 147.686 266.271 146.461C265.922 147.161 265.572 147.686 265.222 148.21C261.548 155.734 264.522 164.307 271.695 167.981C272.22 168.156 272.57 168.506 273.095 168.681C273.795 169.03 273.795 169.555 273.62 170.255C273.27 170.78 272.745 171.13 272.22 170.78C270.645 169.905 268.896 169.205 267.496 167.981C260.848 162.557 259.448 153.109 263.997 145.586C264.347 145.061 264.522 144.536 264.872 144.011C262.072 140.862 258.573 139.113 254.374 138.938C247.376 138.763 242.652 142.087 239.678 148.035C236.004 155.559 238.978 163.957 246.151 167.631C246.676 167.806 247.026 167.981 247.551 168.331C248.251 168.681 248.426 169.38 248.076 169.905C247.726 170.43 247.201 170.78 246.676 170.43C245.101 169.555 243.352 168.856 242.127 167.631C234.954 161.682 234.079 151.36 239.678 143.836C242.302 140.162 245.801 137.888 250 136.838C255.949 135.438 261.373 136.838 265.922 141.212C266.096 141.387 266.271 141.562 266.621 141.912C270.121 138.588 274.32 136.488 279.393 136.313C284.467 136.138 288.666 138.063 292.34 141.912C295.839 138.588 300.038 136.488 305.112 136.313C310.186 136.138 314.385 138.063 318.059 141.912C321.558 138.588 325.757 136.488 330.831 136.313C335.905 136.138 340.104 138.063 343.778 141.912C347.277 138.588 351.476 136.488 356.55 136.313C361.624 136.138 365.823 138.063 369.497 141.912C372.996 138.588 377.195 136.488 382.269 136.313C387.343 136.138 391.542 138.063 395.216 141.912C398.715 138.588 402.914 136.488 407.988 136.313C413.062 136.138 417.261 138.063 420.935 141.912C424.609 138.413 428.808 136.313 433.882 136.313C438.956 136.313 443.155 138.238 446.829 142.087C447.529 141.562 448.229 141.037 449.103 140.512C452.078 138.238 455.577 137.013 459.251 136.838C463.8 136.663 467.824 138.238 471.148 141.212C471.498 141.562 471.848 141.912 472.373 142.262C476.047 138.763 480.246 136.838 485.145 136.663C490.219 136.663 494.418 138.588 497.917 142.262C500.016 140.512 502.291 138.763 505.09 137.713C514.363 134.214 524.861 139.462 527.135 148.91C527.31 149.785 527.31 150.66 527.31 151.535C527.31 151.71 526.96 152.234 526.785 152.234C526.435 152.234 526.085 152.059 525.91 151.885C525.56 151.36 525.385 150.66 525.211 150.135C524.336 147.336 523.111 144.886 521.012 142.962C518.387 140.512 515.413 139.287 511.739 139.113C507.19 138.938 503.166 140.337 500.016 143.661C499.842 143.836 499.841 144.011 499.667 144.011C500.366 145.586 501.066 147.161 501.416 148.735C501.766 149.61 501.591 150.66 501.591 151.535C501.591 151.71 501.241 152.059 501.066 152.059C500.716 152.059 500.191 152.059 500.191 151.885C499.842 151.36 499.492 150.66 499.492 150.135C499.142 148.91 498.617 147.686 497.917 146.461C496.517 147.86 496.167 149.435 495.642 151.185C493.893 158.358 497.392 165.181 503.516 168.156C503.866 168.331 504.215 168.506 504.565 168.681C505.265 169.03 505.265 169.555 505.09 170.08C504.915 170.605 504.215 170.955 503.516 170.605C503.166 170.43 502.816 170.255 502.466 170.255C497.742 167.981 494.593 164.132 493.368 159.058C492.143 154.159 493.018 149.61 495.642 145.411C495.817 145.061 495.992 144.711 496.342 144.361C491.618 137.713 479.546 137.363 474.123 144.186C474.647 145.761 475.347 147.161 475.872 148.735C476.222 149.61 476.222 150.66 476.222 151.535C476.222 151.71 475.872 152.234 475.697 152.234C475.347 152.234 474.997 152.059 474.822 151.885C474.472 151.36 474.297 150.66 474.123 150.135C473.773 148.91 473.423 147.686 472.548 146.461C472.373 146.811 472.198 146.986 472.023 147.161C467.649 155.034 470.623 164.307 478.496 168.156C478.846 168.331 479.196 168.506 479.371 168.681C480.071 169.03 480.071 169.555 479.721 170.255C479.371 170.78 478.846 171.13 478.322 170.78C476.572 170.08 474.997 169.205 473.423 167.981C466.949 162.382 465.725 152.934 470.273 145.586C470.448 145.236 470.798 144.886 470.973 144.536C466.774 137.888 454.352 137.363 448.928 144.186C449.453 145.586 449.978 146.986 450.503 148.385C450.678 149.26 450.853 150.31 450.853 151.185C450.853 151.535 450.503 151.885 450.328 152.059C449.978 152.059 449.453 151.885 449.278 151.71C448.928 151.185 448.754 150.66 448.579 150.135C448.229 148.91 447.704 147.86 447.354 146.461C445.954 148.21 445.254 149.96 444.904 151.885C443.155 159.233 447.004 165.881 452.953 168.681C453.302 168.856 453.652 169.031 454.002 169.205C454.702 169.555 454.702 170.08 454.352 170.78C454.002 171.305 453.477 171.655 452.953 171.305C451.203 170.605 449.628 169.73 448.054 168.506C441.58 162.907 440.355 153.459 444.729 146.111C445.079 145.586 445.254 145.061 445.604 144.711C441.23 137.888 428.983 137.363 423.21 144.361C423.734 145.936 424.434 147.336 424.959 148.91C425.309 149.785 425.309 150.835 425.309 151.71C425.309 151.885 424.959 152.409 424.784 152.409C424.434 152.409 424.084 152.234 423.909 152.059C423.559 151.535 423.385 150.835 423.21 150.31C422.86 149.085 422.51 147.86 421.635 146.636C421.46 146.986 421.285 147.161 421.11 147.336C416.736 155.209 419.71 164.482 427.584 168.331C427.933 168.506 428.283 168.681 428.458 168.856C429.158 169.205 429.158 169.73 428.808 170.43C428.458 170.955 427.933 171.305 427.409 170.955C425.659 170.255 424.084 169.38 422.51 168.156C416.036 162.732 414.812 153.109 419.36 145.761C419.535 145.411 419.885 145.061 420.06 144.711C415.861 138.063 403.439 137.363 397.841 144.536C398.54 146.111 399.065 147.686 399.59 149.26C399.94 150.135 399.765 151.185 399.765 152.059C399.765 152.234 399.415 152.584 399.24 152.584C398.89 152.584 398.365 152.584 398.365 152.409C398.015 151.885 397.666 151.185 397.666 150.66C397.316 149.435 396.791 148.21 396.091 146.986C395.741 147.336 395.391 147.686 395.216 148.035C391.192 155.909 393.991 164.831 401.69 168.681C402.04 168.856 402.564 169.03 402.739 169.38C402.914 169.73 403.264 170.255 403.089 170.78C402.914 171.305 402.389 171.655 401.69 171.48C401.34 171.305 400.815 171.13 400.465 170.955C395.566 168.506 392.592 164.831 391.367 159.583C390.142 154.859 391.017 150.31 393.641 146.111C393.816 145.936 393.991 145.586 394.166 145.411C394.166 145.236 394.341 145.236 394.341 145.061C389.617 138.413 377.72 138.063 372.122 144.886C372.646 146.461 373.346 147.86 373.871 149.435C374.221 150.31 374.221 151.36 374.221 152.234C374.221 152.409 373.871 152.934 373.696 152.934C373.346 152.934 372.996 152.759 372.821 152.584C372.471 152.059 372.297 151.36 372.122 150.835C371.772 149.61 371.422 148.385 370.547 147.336C370.372 147.511 370.197 147.686 370.022 147.86C365.473 155.734 368.447 165.181 376.321 169.03C376.67 169.205 377.02 169.38 377.37 169.555C378.07 169.905 378.07 170.43 377.72 171.13C377.37 171.655 376.845 172.005 376.321 171.655C374.746 170.78 372.996 170.08 371.772 168.856C365.123 163.432 363.723 153.984 368.272 146.461C368.622 145.936 368.797 145.411 369.147 145.061C364.073 138.238 352.001 138.413 346.927 145.061C347.627 146.636 348.152 148.21 348.677 149.785C349.027 150.66 348.852 151.71 348.852 152.584C348.852 152.759 348.502 153.109 348.327 153.284C347.977 153.284 347.452 153.284 347.452 153.109C347.102 152.584 346.927 151.885 346.578 151.36C346.053 150.135 345.703 148.91 345.178 147.511C344.128 148.56 343.603 149.61 343.253 150.66C341.329 156.433 342.204 161.857 346.578 166.231C347.627 167.456 349.202 168.156 350.602 169.205C350.952 169.555 351.651 169.555 351.826 169.905C352.176 170.255 352.351 170.78 352.176 171.305C352.001 172.005 351.476 172.18 350.777 172.005C350.427 171.83 350.077 171.83 349.727 171.655C343.428 168.506 340.279 163.432 339.929 156.433C339.754 152.759 340.804 149.435 342.728 146.461C340.979 144.361 340.979 144.011 341.329 143.661Z" fill="#FF5850"/>
<path d="M207.835 325.969C207.835 332.092 207.835 338.216 207.835 344.164C207.835 364.635 207.66 385.105 207.485 405.575C207.485 406.275 207.485 406.975 207.31 407.674C207.31 408.024 206.785 408.199 206.436 408.374C206.261 408.374 205.736 408.024 205.736 407.849C205.561 407.15 205.386 406.45 205.386 405.925C205.386 394.028 205.386 382.305 205.386 370.408C205.386 355.537 205.561 340.665 205.561 325.619C205.561 319.32 205.561 312.847 205.561 306.548C205.561 306.023 205.561 305.673 205.561 305.149C205.561 304.449 205.911 304.274 206.61 304.274C207.31 304.274 207.66 304.449 207.66 305.149C207.66 305.673 207.66 306.198 207.66 306.723C207.835 313.022 207.835 319.495 207.835 325.969Z" fill="#282526"/>
<path d="M206.609 207.521C206.609 199.123 206.609 190.9 206.609 182.502C206.609 177.254 207.308 172.355 209.058 167.456C211.333 161.332 215.357 156.608 221.305 153.809C224.454 152.409 227.779 151.71 231.278 151.885C231.453 151.885 231.628 151.885 231.978 151.885C232.503 152.06 233.027 152.234 233.027 152.934C233.027 153.634 232.328 153.634 231.803 153.809C230.928 153.809 230.053 153.984 229.178 153.984C222.355 154.334 217.456 157.658 213.782 163.082C211.333 166.581 209.933 170.43 209.408 174.629C209.058 177.254 208.883 180.053 208.883 182.852C208.883 200.348 208.883 217.844 208.883 235.34C208.883 236.215 208.883 236.915 208.533 237.789C208.533 238.139 207.833 238.489 207.658 238.489C207.308 238.314 206.784 237.964 206.784 237.614C206.609 237.089 206.784 236.565 206.784 236.04C206.609 226.417 206.609 216.969 206.609 207.521Z" fill="#282526"/>
<path d="M205.736 424.82C205.736 421.671 205.736 418.347 205.736 415.198C205.736 413.798 206.086 413.448 206.785 413.448C207.485 413.448 208.01 413.973 208.01 415.198C208.01 418.347 208.01 421.321 208.01 424.47C208.01 427.62 208.01 430.594 208.01 433.743C208.01 434.268 208.01 434.618 208.01 435.143C207.835 436.193 207.485 436.543 206.96 436.543C206.086 436.368 205.911 435.843 205.911 434.968C205.736 431.819 205.736 428.319 205.736 424.82Z" fill="#282526"/>
<path d="M208.885 244.788C208.885 245.313 208.71 246.012 208.535 246.537C208.535 246.712 208.01 247.062 207.66 247.062C207.485 247.062 206.96 246.712 206.96 246.537C206.61 245.138 206.435 243.738 206.785 242.338C206.96 241.988 207.31 241.638 207.66 241.638C208.01 241.638 208.36 241.988 208.535 242.338C208.71 243.213 208.71 243.913 208.885 244.788Z" fill="#282526"/>
<path d="M325.058 306.023H269.596V250.561H325.058V306.023ZM271.696 303.924H322.958V252.661H271.696V303.924Z" fill="#CBD5D8"/>
<path d="M498.44 252.661H351.999C351.474 252.661 350.95 252.136 350.95 251.611C350.95 251.086 351.474 250.561 351.999 250.561H498.615C499.14 250.561 499.665 251.086 499.665 251.611C499.49 252.136 498.965 252.661 498.44 252.661Z" fill="#CBD5D8"/>
<path d="M498.44 278.555H351.999C351.474 278.555 350.949 278.03 350.949 277.505C350.949 276.98 351.474 276.455 351.999 276.455H498.615C499.14 276.455 499.664 276.98 499.664 277.505C499.489 278.205 498.965 278.555 498.44 278.555Z" fill="#CBD5D8"/>
<path d="M472.721 291.502H351.999C351.474 291.502 350.949 290.977 350.949 290.452C350.949 289.927 351.474 289.402 351.999 289.402H472.721C473.246 289.402 473.77 289.927 473.77 290.452C473.77 291.152 473.246 291.502 472.721 291.502Z" fill="#CBD5D8"/>
<path d="M400.462 265.608H351.999C351.474 265.608 350.949 265.083 350.949 264.558C350.949 264.033 351.474 263.508 351.999 263.508H400.637C401.162 263.508 401.687 264.033 401.687 264.558C401.512 265.083 400.987 265.608 400.462 265.608Z" fill="#CBD5D8"/>
<path d="M297.239 291.502L280.443 274.706C279.743 274.006 279.743 272.956 280.443 272.256C281.143 271.556 282.192 271.556 282.892 272.256L297.064 286.428L341.153 236.915C341.853 236.215 342.903 236.04 343.603 236.74C344.303 237.439 344.478 238.489 343.778 239.189L297.239 291.502Z" fill="#068D9D"/>
<path d="M325.058 401.026H269.596V345.564H325.058V401.026ZM271.696 398.926H322.958V347.663H271.696V398.926Z" fill="#CBD5D8"/>
<path d="M498.44 347.663H351.999C351.474 347.663 350.95 347.139 350.95 346.614C350.95 346.089 351.474 345.564 351.999 345.564H498.615C499.14 345.564 499.665 346.089 499.665 346.614C499.49 347.139 498.965 347.663 498.44 347.663Z" fill="#CBD5D8"/>
<path d="M498.44 373.557H351.999C351.474 373.557 350.949 373.033 350.949 372.508C350.949 371.983 351.474 371.458 351.999 371.458H498.615C499.14 371.458 499.664 371.983 499.664 372.508C499.489 373.207 498.965 373.557 498.44 373.557Z" fill="#CBD5D8"/>
<path d="M472.721 386.504H351.999C351.474 386.504 350.949 385.979 350.949 385.455C350.949 384.93 351.474 384.405 351.999 384.405H472.721C473.246 384.405 473.77 384.93 473.77 385.455C473.77 386.154 473.246 386.504 472.721 386.504Z" fill="#CBD5D8"/>
<path d="M400.462 360.61H351.999C351.474 360.61 350.949 360.086 350.949 359.561C350.949 359.036 351.474 358.511 351.999 358.511H400.637C401.162 358.511 401.687 359.036 401.687 359.561C401.512 360.086 400.987 360.61 400.462 360.61Z" fill="#CBD5D8"/>
<path d="M325.058 497.953H269.596V442.491H325.058V497.953ZM271.696 495.854H322.958V444.591H271.696V495.854Z" fill="#CBD5D8"/>
<path d="M498.44 444.591H351.999C351.474 444.591 350.95 444.066 350.95 443.541C350.95 443.016 351.474 442.491 351.999 442.491H498.615C499.14 442.491 499.665 443.016 499.665 443.541C499.49 444.066 498.965 444.591 498.44 444.591Z" fill="#CBD5D8"/>
<path d="M498.44 470.485H351.999C351.474 470.485 350.949 469.96 350.949 469.435C350.949 468.91 351.474 468.385 351.999 468.385H498.615C499.14 468.385 499.664 468.91 499.664 469.435C499.489 469.96 498.965 470.485 498.44 470.485Z" fill="#CBD5D8"/>
<path d="M472.721 483.432H351.999C351.474 483.432 350.949 482.907 350.949 482.382C350.949 481.857 351.474 481.332 351.999 481.332H472.721C473.246 481.332 473.77 481.857 473.77 482.382C473.77 482.907 473.246 483.432 472.721 483.432Z" fill="#CBD5D8"/>
<path d="M400.462 457.538H351.999C351.474 457.538 350.949 457.013 350.949 456.488C350.949 455.963 351.474 455.438 351.999 455.438H400.637C401.162 455.438 401.687 455.963 401.687 456.488C401.512 457.013 400.987 457.538 400.462 457.538Z" fill="#CBD5D8"/>
<path d="M297.239 483.257L280.443 466.461C279.743 465.761 279.743 464.711 280.443 464.011C281.143 463.311 282.192 463.311 282.892 464.011L297.064 478.183L341.153 428.669C341.853 427.97 342.903 427.795 343.603 428.495C344.303 429.194 344.478 430.244 343.778 430.944L297.239 483.257Z" fill="#068D9D"/>
<path d="M-93.4432 133.002C-93.4432 130.027 -93.6182 126.878 -93.2683 123.904C-92.0436 112.706 -86.2699 103.084 -72.9731 100.109C-71.0485 99.5845 -68.949 99.4095 -66.8495 99.4095C-50.4034 99.2346 -33.9572 99.0596 -17.3361 99.0596C10.8322 98.8846 38.8256 98.8846 66.994 98.8846C99.0115 98.8846 130.854 98.8846 162.871 98.7097C168.47 98.7097 174.244 98.5347 179.842 98.7097C193.314 98.8846 206.961 99.2346 220.433 99.4095C222.882 99.4095 225.332 99.4095 227.781 99.4095C233.38 99.2346 238.629 100.284 243.353 103.084C249.826 106.933 253.675 112.881 254.9 120.23C255.6 123.729 255.6 127.228 255.775 130.727C255.95 153.647 255.6 443.554 255.6 508.813C255.6 521.41 246.327 532.083 233.905 533.482C233.555 533.482 233.38 533.482 233.03 533.657C230.231 533.832 227.256 534.007 224.282 534.007C178.443 534.182 132.604 534.357 86.7643 534.532C53.1722 534.532 19.7551 534.357 -13.837 534.357C-31.1579 534.357 -48.4788 534.182 -65.7997 534.007C-69.9987 534.007 -74.1978 533.482 -78.2218 531.908C-86.9698 528.409 -91.6937 521.585 -93.9681 512.662C-94.8429 509.163 -95.0179 505.664 -95.0179 502.165C-94.8429 478.72 -94.668 507.763 -94.493 484.319C-94.493 453.176 -93.6182 173.942 -93.4432 133.002Z" fill="#CECECE"/>
<path d="M-113.039 133.002C-113.039 130.027 -113.214 126.878 -112.864 123.904C-111.64 112.706 -105.866 103.084 -92.5692 100.109C-90.6446 99.5845 -88.5451 99.4095 -86.4456 99.4095C-69.9995 99.2346 -53.5533 99.0596 -36.9323 99.0596C-8.76387 98.8846 19.2295 98.8846 47.3979 98.8846C79.4154 98.8846 111.258 98.8846 143.275 98.7097C148.874 98.7097 154.648 98.5347 160.246 98.7097C173.718 98.8846 187.365 99.2346 200.837 99.4095C203.286 99.4095 205.736 99.4095 208.185 99.4095C213.784 99.2346 219.033 100.284 223.756 103.084C230.23 106.933 234.079 112.881 235.304 120.23C236.004 123.729 236.004 127.228 236.179 130.727C236.354 153.647 236.004 443.554 236.004 508.813C236.004 521.41 226.731 532.083 214.309 533.482C213.959 533.482 213.784 533.482 213.434 533.657C210.635 533.832 207.66 534.007 204.686 534.007C158.847 534.182 113.007 534.357 67.1683 534.532C33.5762 534.532 0.159035 534.357 -33.4331 534.357C-50.754 534.357 -68.0749 534.182 -85.3959 534.007C-89.5949 534.007 -93.7939 533.482 -97.8179 531.908C-106.566 528.409 -111.29 521.585 -113.564 512.662C-114.439 509.163 -114.614 505.664 -114.614 502.165C-114.439 478.72 -114.264 507.763 -114.089 484.319C-114.089 453.176 -113.214 173.942 -113.039 133.002Z" fill="#F7F7F7"/>
<path d="M21.3288 90.6615C15.7301 83.4881 3.65794 84.3629 -0.890991 90.6615C-0.191154 92.2361 0.508682 93.8107 0.858604 95.3854C1.03356 96.2601 1.03357 97.1349 1.03357 98.0097C1.03357 98.3597 0.683647 98.7096 0.50869 98.7096C0.158768 98.7096 -0.366104 98.7096 -0.366104 98.3597C-0.716026 97.8348 -0.890968 97.1349 -1.06593 96.6101C-1.41585 95.3854 -1.94074 94.1606 -2.64058 92.9359C-2.99049 93.2858 -3.16544 93.4608 -3.3404 93.8107C-7.71437 101.684 -4.74007 110.957 3.13307 114.806C3.48299 114.981 3.83292 115.156 4.18284 115.331C4.88267 115.681 4.88267 116.205 4.53275 116.905C4.18283 117.43 3.65795 117.78 3.13307 117.43C1.55844 116.555 -0.191154 115.856 -1.41587 114.631C-8.06431 109.207 -9.46397 99.7593 -4.91505 92.2361C-4.56513 91.7112 -4.39017 91.1863 -4.04025 90.8364C-9.11406 84.013 -21.1862 84.013 -26.26 90.8364C-25.5602 92.4111 -25.0353 93.9857 -24.5104 95.3854C-24.3355 96.2601 -24.1605 97.1349 -24.3355 98.0097C-24.3355 98.3597 -24.6854 98.8845 -25.0353 98.8845C-25.3852 98.8845 -25.9101 98.5346 -26.0851 98.3597C-26.435 97.8348 -26.435 97.3099 -26.6099 96.785C-26.9599 95.5603 -27.3098 94.3356 -28.1846 93.1109C-29.0593 94.5106 -29.5842 95.7353 -29.9341 96.96C-32.3836 104.483 -28.5345 112.006 -22.061 114.981C-20.6613 115.681 -20.3114 116.205 -20.8363 117.08C-21.1862 117.78 -21.886 117.78 -23.1108 117.255C-29.4093 114.106 -32.5585 109.032 -32.9085 102.034C-33.0834 98.3596 -32.0337 95.0354 -30.1091 92.0611C-29.9342 91.7112 -29.7592 91.3613 -29.5842 91.1863C-34.3081 84.188 -46.9052 84.3629 -51.804 91.1863C-51.1042 92.761 -50.4043 94.3356 -50.0544 95.9102C-49.8795 96.785 -49.8795 97.6598 -49.8795 98.5346C-49.8795 98.8845 -50.2294 99.2344 -50.4044 99.2344C-50.7543 99.2344 -51.2791 99.0595 -51.4541 98.7096C-51.804 98.1847 -51.979 97.6598 -52.1539 97.1349C-52.5039 95.9102 -53.0287 94.6855 -53.7286 93.4608C-54.0785 94.1606 -54.4284 94.6855 -54.7783 95.2104C-58.4525 102.734 -55.4781 111.307 -48.3048 114.981C-47.7799 115.156 -47.43 115.506 -46.9052 115.681C-46.2053 116.03 -46.2053 116.555 -46.3803 117.255C-46.7302 117.78 -47.2551 118.13 -47.78 117.78C-49.3546 116.905 -51.1042 116.205 -52.5039 114.981C-59.1523 109.557 -60.552 100.109 -56.003 92.586C-55.6531 92.0611 -55.4782 91.5363 -55.1282 91.0114C-57.9276 87.8621 -61.4268 86.1125 -65.6258 85.9376C-72.6241 85.7626 -77.348 89.0868 -80.3223 95.0354C-83.9964 102.559 -81.0221 110.957 -73.8488 114.631C-73.3239 114.806 -72.974 114.981 -72.4492 115.331C-71.7493 115.681 -71.5744 116.38 -71.9243 116.905C-72.2742 117.43 -72.7991 117.78 -73.3239 117.43C-74.8986 116.555 -76.6482 115.856 -77.8729 114.631C-85.0462 108.682 -85.921 98.3597 -80.3223 90.8364C-77.6979 87.1623 -74.1987 84.8878 -69.9997 83.8381C-64.0511 82.4384 -58.6274 83.8381 -54.0785 88.212C-53.9035 88.387 -53.7286 88.562 -53.3786 88.9119C-49.8795 85.5877 -45.6805 83.4882 -40.6066 83.3132C-35.5328 83.1382 -31.3338 85.0628 -27.6597 88.9119C-24.1605 85.5877 -19.9615 83.4882 -14.8877 83.3132C-9.81389 83.1382 -5.61486 85.0628 -1.94073 88.9119C1.55845 85.5877 5.75745 83.4882 10.8313 83.3132C15.9051 83.1382 20.1041 85.0628 23.7782 88.9119C27.2774 85.5877 31.4764 83.4882 36.5502 83.3132C41.624 83.1382 45.823 85.0628 49.4972 88.9119C52.9964 85.5877 57.1953 83.4882 62.2691 83.3132C67.343 83.1382 71.542 85.0628 75.2162 88.9119C78.7153 85.5877 82.9143 83.4882 87.9881 83.3132C93.0619 83.1382 97.2609 85.0628 100.935 88.9119C104.609 85.4127 108.808 83.3132 113.882 83.3132C118.956 83.3132 123.155 85.2377 126.829 89.0868C127.529 88.562 128.229 88.0371 129.103 87.5122C132.078 85.2377 135.577 84.013 139.251 83.8381C143.8 83.6631 147.824 85.2377 151.148 88.212C151.498 88.562 151.848 88.9119 152.373 89.2618C156.047 85.7626 160.246 83.8381 165.145 83.6631C170.219 83.6631 174.418 85.5877 177.917 89.2618C180.016 87.5122 182.291 85.7626 185.09 84.7129C194.363 81.2137 204.861 86.4624 207.135 95.9102C207.31 96.785 207.31 97.6598 207.31 98.5346C207.31 98.7096 206.96 99.2344 206.785 99.2344C206.435 99.2344 206.085 99.0595 205.91 98.8845C205.56 98.3597 205.386 97.6598 205.211 97.1349C204.336 94.3356 203.111 91.8862 201.012 89.9616C198.387 87.5122 195.413 86.2875 191.739 86.1125C187.19 85.9376 183.166 87.3372 180.016 90.6615C179.842 90.8364 179.842 91.0114 179.667 91.0114C180.366 92.586 181.066 94.1606 181.416 95.7353C181.766 96.6101 181.591 97.6598 181.591 98.5346C181.591 98.7096 181.241 99.0595 181.066 99.0595C180.716 99.0595 180.191 99.0595 180.191 98.8845C179.842 98.3597 179.492 97.6598 179.492 97.1349C179.142 95.9102 178.617 94.6855 177.917 93.4608C176.517 94.8605 176.167 96.4351 175.643 98.1847C173.893 105.358 177.392 112.181 183.516 115.156C183.866 115.331 184.215 115.506 184.565 115.681C185.265 116.03 185.265 116.555 185.09 117.08C184.915 117.605 184.215 117.955 183.516 117.605C183.166 117.43 182.816 117.255 182.466 117.255C177.742 114.981 174.593 111.132 173.368 106.058C172.143 101.159 173.018 96.6101 175.643 92.411C175.817 92.0611 175.992 91.7112 176.342 91.3613C171.618 84.7129 159.546 84.3629 154.123 91.1863C154.647 92.761 155.347 94.1606 155.872 95.7353C156.222 96.6101 156.222 97.6598 156.222 98.5346C156.222 98.7096 155.872 99.2344 155.697 99.2344C155.347 99.2344 154.997 99.0595 154.822 98.8845C154.473 98.3597 154.298 97.6598 154.123 97.1349C153.773 95.9102 153.423 94.6855 152.548 93.4608C152.373 93.8107 152.198 93.9857 152.023 94.1606C147.649 102.034 150.623 111.307 158.497 115.156C158.846 115.331 159.196 115.506 159.371 115.681C160.071 116.03 160.071 116.555 159.721 117.255C159.371 117.78 158.846 118.13 158.322 117.78C156.572 117.08 154.997 116.205 153.423 114.981C146.949 109.382 145.725 99.9343 150.273 92.586C150.448 92.2361 150.798 91.8862 150.973 91.5363C146.774 84.8878 134.352 84.3629 128.928 91.1863C129.453 92.586 129.978 93.9857 130.503 95.3854C130.678 96.2601 130.853 97.3099 130.853 98.1847C130.853 98.5346 130.503 98.8845 130.328 99.0595C129.978 99.0595 129.453 98.8845 129.278 98.7096C128.929 98.1847 128.754 97.6598 128.579 97.1349C128.229 95.9102 127.704 94.8605 127.354 93.4608C125.954 95.2104 125.254 96.96 124.904 98.8845C123.155 106.233 127.004 112.881 132.953 115.681C133.302 115.856 133.652 116.031 134.002 116.205C134.702 116.555 134.702 117.08 134.352 117.78C134.002 118.305 133.477 118.655 132.953 118.305C131.203 117.605 129.628 116.73 128.054 115.506C121.58 109.907 120.356 100.459 124.729 93.1109C125.079 92.586 125.254 92.0611 125.604 91.7112C121.23 84.8878 108.983 84.3629 103.21 91.3613C103.734 92.9359 104.434 94.3356 104.959 95.9102C105.309 96.785 105.309 97.8348 105.309 98.7096C105.309 98.8845 104.959 99.4094 104.784 99.4094C104.434 99.4094 104.084 99.2344 103.909 99.0595C103.559 98.5346 103.385 97.8348 103.21 97.3099C102.86 96.0852 102.51 94.8605 101.635 93.6358C101.46 93.9857 101.285 94.1606 101.11 94.3356C96.7361 102.209 99.7104 111.482 107.584 115.331C107.933 115.506 108.283 115.681 108.458 115.856C109.158 116.205 109.158 116.73 108.808 117.43C108.458 117.955 107.933 118.305 107.409 117.955C105.659 117.255 104.084 116.38 102.51 115.156C96.0362 109.732 94.8115 100.109 99.3605 92.761C99.5354 92.4111 99.8853 92.0611 100.06 91.7112C95.8613 85.0628 83.4392 84.3629 77.8405 91.5363C78.5404 93.1109 79.0652 94.6855 79.5901 96.2601C79.94 97.1349 79.765 98.1847 79.765 99.0595C79.765 99.2344 79.4151 99.5844 79.2402 99.5844C78.8903 99.5844 78.3654 99.5844 78.3654 99.4094C78.0155 98.8845 77.6656 98.1847 77.6656 97.6598C77.3156 96.4351 76.7908 95.2104 76.0909 93.9857C75.741 94.3356 75.3911 94.6855 75.2162 95.0354C71.1921 102.909 73.9914 111.831 81.6896 115.681C82.0395 115.856 82.5644 116.03 82.7394 116.38C82.9143 116.73 83.2643 117.255 83.0893 117.78C82.9143 118.305 82.3894 118.655 81.6896 118.48C81.3397 118.305 80.8148 118.13 80.4649 117.955C75.5661 115.506 72.5918 111.831 71.367 106.583C70.1423 101.859 71.0171 97.3099 73.6415 93.1109C73.8164 92.9359 73.9914 92.586 74.1664 92.411C74.1664 92.2361 74.3414 92.2361 74.3414 92.0611C69.6175 85.4127 57.7202 85.0628 52.1216 91.8862C52.6464 93.4608 53.3463 94.8605 53.8712 96.4351C54.2211 97.3099 54.2211 98.3597 54.2211 99.2344C54.2211 99.4094 53.8711 99.9343 53.6962 99.9343C53.3463 99.9343 52.9963 99.7593 52.8214 99.5844C52.4715 99.0595 52.2965 98.3597 52.1216 97.8348C51.7716 96.6101 51.4217 95.3854 50.5469 94.3356C50.372 94.5106 50.197 94.6855 50.022 94.8605C45.4731 102.734 48.4474 112.181 56.3206 116.03C56.6705 116.205 57.0204 116.38 57.3703 116.555C58.0702 116.905 58.0702 117.43 57.7203 118.13C57.3703 118.655 56.8454 119.005 56.3206 118.655C54.7459 117.78 52.9963 117.08 51.7716 115.856C45.1232 110.432 43.7235 100.984 48.2724 93.4608C48.6224 92.9359 48.7973 92.4111 49.1472 92.0611C44.0734 85.2377 32.0013 85.4127 26.9275 92.0611C27.6273 93.6358 28.1522 95.2104 28.6771 96.785C29.027 97.6598 28.852 98.7096 28.852 99.5844C28.852 99.7593 28.5021 100.109 28.3271 100.284C27.9772 100.284 27.4523 100.284 27.4523 100.109C27.1024 99.5844 26.9275 98.8845 26.5775 98.3597C26.0527 97.1349 25.7028 95.9102 25.1779 94.5106C24.1281 95.5603 23.6033 96.6101 23.2533 97.6598C21.3288 103.433 22.2036 108.857 26.5775 113.231C27.6273 114.456 29.2019 115.156 30.6016 116.205C30.9515 116.555 31.6514 116.555 31.8263 116.905C32.1762 117.255 32.3512 117.78 32.1763 118.305C32.0013 119.005 31.4764 119.18 30.7766 119.005C30.4267 118.83 30.0767 118.83 29.7268 118.655C23.4283 115.506 20.2791 110.432 19.9291 103.433C19.7542 99.7593 20.8039 96.4351 22.7285 93.4608C20.9789 91.3613 20.9789 91.0114 21.3288 90.6615Z" fill="#FF5850"/>
<path d="M150.1 533.657C128.055 533.657 106.185 533.657 84.1407 533.657C83.4408 533.657 82.741 533.657 82.0412 533.657C81.5163 533.657 80.9914 533.307 80.9914 532.608C80.9914 531.908 81.3414 531.558 82.0412 531.558C82.5661 531.558 83.2659 531.558 83.9657 531.558C126.656 531.558 169.171 531.558 211.861 531.558C214.66 531.558 217.284 531.558 220.084 531.033C225.682 529.633 229.881 526.309 232.681 521.235C234.955 517.211 236.18 513.012 236.705 508.463C237.23 503.914 237.58 499.54 237.405 494.991C236.705 478.545 237.23 514.762 237.055 498.316C236.88 477.321 236.705 456.151 236.705 435.155C236.705 428.857 236.705 422.733 236.705 416.435C236.705 410.311 236.53 404.188 236.53 398.239C236.53 397.714 236.53 397.014 236.705 396.49C236.88 396.14 237.405 395.615 237.755 395.615C238.104 395.615 238.629 396.14 238.804 396.49C238.979 397.189 238.979 397.889 238.979 398.589C238.979 412.061 238.979 425.358 239.154 438.83C239.154 441.804 239.154 444.778 239.154 447.578C239.329 472.422 239.504 444.778 239.504 469.622C239.504 479.42 239.854 489.393 239.679 499.19C239.679 504.614 239.329 510.038 237.755 515.462C236.53 519.661 234.605 523.685 231.631 527.009C228.482 530.508 224.458 532.782 219.909 533.657C218.159 534.007 216.41 534.007 214.66 534.007C192.965 533.657 171.62 533.657 150.1 533.657Z" fill="#282526"/>
<path d="M235.829 216.282C235.829 197.211 236.004 178.141 235.829 159.07C235.829 153.997 235.829 148.748 234.779 143.849C234.604 142.799 234.254 141.924 234.079 140.875C233.905 140.35 233.73 139.825 233.73 139.3C233.73 138.95 234.08 138.425 234.254 138.25C234.604 138.25 235.304 138.425 235.479 138.775C236.004 140.175 236.529 141.575 236.879 142.974C238.104 148.398 238.104 153.997 238.104 159.42C238.104 172.017 238.104 184.789 238.104 197.386C238.104 222.755 238.279 247.95 238.453 273.319C238.453 274.018 238.453 274.893 238.453 275.593C238.279 276.293 237.929 276.643 237.229 276.643C236.529 276.643 236.179 276.118 236.179 275.593C236.004 274.893 236.179 274.193 236.179 273.493C235.829 254.423 235.829 235.352 235.829 216.282Z" fill="#282526"/>
<path d="M238.451 382.668C238.451 384.767 238.451 386.692 238.451 388.791C238.451 390.016 238.102 390.716 237.402 390.716C236.702 390.716 236.352 390.191 236.352 388.791C236.352 384.767 236.352 380.568 236.352 376.544C236.352 374.97 236.877 374.095 237.577 374.27C238.626 374.62 238.626 375.669 238.626 376.544C238.451 378.469 238.451 380.568 238.451 382.668Z" fill="#282526"/>
<path d="M5.05796 253.023H-50.404V197.561H5.05796V253.023ZM-48.3045 250.924H2.95843V199.661H-48.3045V250.924Z" fill="#CBD5D8"/>
<path d="M178.44 199.661H31.9994C31.4745 199.661 30.9496 199.136 30.9496 198.611C30.9496 198.086 31.4745 197.561 31.9994 197.561H178.615C179.14 197.561 179.665 198.086 179.665 198.611C179.49 199.136 178.965 199.661 178.44 199.661Z" fill="#CBD5D8"/>
<path d="M178.44 225.555H31.9992C31.4743 225.555 30.9494 225.03 30.9494 224.505C30.9494 223.98 31.4743 223.455 31.9992 223.455H178.615C179.14 223.455 179.664 223.98 179.664 224.505C179.489 225.205 178.965 225.555 178.44 225.555Z" fill="#CBD5D8"/>
<path d="M152.721 238.502H31.9992C31.4743 238.502 30.9494 237.977 30.9494 237.452C30.9494 236.927 31.4743 236.402 31.9992 236.402H152.721C153.246 236.402 153.771 236.927 153.771 237.452C153.771 238.152 153.246 238.502 152.721 238.502Z" fill="#CBD5D8"/>
<path d="M178.439 212.608H91.4841C90.9593 212.608 90.4344 212.083 90.4344 211.558C90.4344 211.033 90.9593 210.508 91.4841 210.508H178.614C179.138 210.508 179.663 211.033 179.663 211.558C179.488 212.083 178.964 212.608 178.439 212.608Z" fill="#CBD5D8"/>
<path d="M80.4622 212.608H31.9986C31.4737 212.608 30.9489 212.083 30.9489 211.558C30.9489 211.033 31.4737 210.508 31.9986 210.508H80.6372C81.162 210.508 81.6869 211.033 81.6869 211.558C81.512 212.083 80.9871 212.608 80.4622 212.608Z" fill="#CBD5D8"/>
<path d="M-22.7612 238.502L-39.5572 221.706C-40.2571 221.006 -40.2571 219.956 -39.5572 219.256C-38.8574 218.556 -37.8077 218.556 -37.1078 219.256L-22.9361 233.428L21.1535 183.915C21.8533 183.215 22.9031 183.04 23.6029 183.74C24.3027 184.439 24.4777 185.489 23.7779 186.189L-22.7612 238.502Z" fill="#068D9D"/>
<path d="M5.05796 348.026H-50.404V292.564H5.05796V348.026ZM-48.3045 345.926H2.95843V294.663H-48.3045V345.926Z" fill="#CBD5D8"/>
<path d="M178.44 294.663H31.9994C31.4745 294.663 30.9496 294.139 30.9496 293.614C30.9496 293.089 31.4745 292.564 31.9994 292.564H178.615C179.14 292.564 179.665 293.089 179.665 293.614C179.49 294.139 178.965 294.663 178.44 294.663Z" fill="#CBD5D8"/>
<path d="M178.44 320.557H31.9992C31.4743 320.557 30.9494 320.033 30.9494 319.508C30.9494 318.983 31.4743 318.458 31.9992 318.458H178.615C179.14 318.458 179.664 318.983 179.664 319.508C179.489 320.207 178.965 320.557 178.44 320.557Z" fill="#CBD5D8"/>
<path d="M152.721 333.504H31.9992C31.4743 333.504 30.9494 332.979 30.9494 332.455C30.9494 331.93 31.4743 331.405 31.9992 331.405H152.721C153.246 331.405 153.771 331.93 153.771 332.455C153.771 333.154 153.246 333.504 152.721 333.504Z" fill="#CBD5D8"/>
<path d="M178.439 307.61H91.4841C90.9593 307.61 90.4344 307.086 90.4344 306.561C90.4344 306.036 90.9593 305.511 91.4841 305.511H178.614C179.138 305.511 179.663 306.036 179.663 306.561C179.488 307.086 178.964 307.61 178.439 307.61Z" fill="#CBD5D8"/>
<path d="M80.4622 307.61H31.9986C31.4737 307.61 30.9489 307.086 30.9489 306.561C30.9489 306.036 31.4737 305.511 31.9986 305.511H80.6372C81.162 305.511 81.6869 306.036 81.6869 306.561C81.512 307.086 80.9871 307.61 80.4622 307.61Z" fill="#CBD5D8"/>
<path d="M5.05796 444.953H-50.404V389.491H5.05796V444.953ZM-48.3045 442.854H2.95843V391.591H-48.3045V442.854Z" fill="#CBD5D8"/>
<path d="M178.44 391.591H31.9994C31.4745 391.591 30.9496 391.066 30.9496 390.541C30.9496 390.016 31.4745 389.491 31.9994 389.491H178.615C179.14 389.491 179.665 390.016 179.665 390.541C179.49 391.066 178.965 391.591 178.44 391.591Z" fill="#CBD5D8"/>
<path d="M178.44 417.485H31.9992C31.4743 417.485 30.9494 416.96 30.9494 416.435C30.9494 415.91 31.4743 415.385 31.9992 415.385H178.615C179.14 415.385 179.664 415.91 179.664 416.435C179.489 416.96 178.965 417.485 178.44 417.485Z" fill="#CBD5D8"/>
<path d="M152.721 430.432H31.9992C31.4743 430.432 30.9494 429.907 30.9494 429.382C30.9494 428.857 31.4743 428.332 31.9992 428.332H152.721C153.246 428.332 153.771 428.857 153.771 429.382C153.771 429.907 153.246 430.432 152.721 430.432Z" fill="#CBD5D8"/>
<path d="M178.439 404.538H91.4841C90.9593 404.538 90.4344 404.013 90.4344 403.488C90.4344 402.963 90.9593 402.438 91.4841 402.438H178.614C179.138 402.438 179.663 402.963 179.663 403.488C179.488 404.013 178.964 404.538 178.439 404.538Z" fill="#CBD5D8"/>
<path d="M80.4622 404.538H31.9986C31.4737 404.538 30.9489 404.013 30.9489 403.488C30.9489 402.963 31.4737 402.438 31.9986 402.438H80.6372C81.162 402.438 81.6869 402.963 81.6869 403.488C81.512 404.013 80.9871 404.538 80.4622 404.538Z" fill="#CBD5D8"/>
<path d="M-22.7612 430.257L-39.5572 413.461C-40.2571 412.761 -40.2571 411.711 -39.5572 411.011C-38.8574 410.311 -37.8077 410.311 -37.1078 411.011L-22.9361 425.183L21.1535 375.669C21.8533 374.97 22.9031 374.795 23.6029 375.495C24.3027 376.194 24.4777 377.244 23.7779 377.944L-22.7612 430.257Z" fill="#068D9D"/>
</svg>
