<svg width="913" height="622" viewBox="0 0 913 622" fill="none" xmlns="http://www.w3.org/2000/svg">
<path d="M281.117 0.032805C291.965 -0.142154 302.812 0.382719 313.834 1.60743C334.13 3.53198 354.075 7.73099 373.67 13.3297C391.516 18.2285 408.837 24.702 425.283 33.4499C460.45 52.1705 485.819 79.814 502.44 115.856C509.439 131.077 514.162 147.173 516.612 163.794C518.536 176.216 518.886 188.813 518.011 201.235C516.087 225.905 508.214 248.474 494.917 269.12C475.671 299.037 450.127 322.307 418.985 339.278C394.491 352.575 368.772 362.373 341.653 368.321C331.33 370.596 320.833 372.695 310.16 373.92C298.263 375.495 286.366 376.019 274.469 375.32C260.997 374.445 247.875 371.296 235.103 366.747C213.758 359.223 196.262 346.276 182.265 328.606C178.766 324.232 175.792 319.333 172.643 314.609C165.119 303.586 157.596 292.389 149.898 281.367C143.425 272.094 135.376 264.571 125.054 259.672C120.155 257.397 115.081 255.298 110.007 253.548C100.56 250.224 90.762 248.474 80.7893 246.9C68.5422 244.8 56.2951 243.051 44.5728 239.202C34.2502 236.052 24.8025 231.153 17.4542 222.93C8.18137 212.783 2.40773 201.061 0.483182 187.414C-0.916489 176.566 0.833101 166.069 4.33228 155.746C8.35633 144.199 13.955 133.526 21.4782 123.904C29.5264 113.406 37.7494 103.259 46.6723 93.6358C62.0687 77.1897 79.5646 63.1929 98.6351 51.1208C129.603 31.7004 162.845 18.2285 198.362 9.65554C212.008 6.33132 225.83 3.8819 239.652 2.30727C253.124 0.732639 266.946 -0.142154 281.117 0.032805Z" fill="#DDE9ED"/>
<path d="M563.154 186.002C563.154 183.027 562.979 179.878 563.329 176.904C564.554 165.706 570.328 156.084 583.625 153.109C585.549 152.584 587.649 152.41 589.748 152.41C606.194 152.235 622.64 152.06 639.261 152.06C667.43 151.885 695.423 151.885 723.592 151.885C755.609 151.885 787.452 151.885 819.469 151.71C825.068 151.71 830.841 151.535 836.44 151.71C849.912 151.885 863.559 152.235 877.031 152.41C879.48 152.41 881.929 152.41 884.379 152.41C889.977 152.235 895.226 153.284 899.95 156.084C906.424 159.933 910.273 165.881 911.497 173.23C912.197 176.729 912.197 180.228 912.372 183.727C912.547 206.647 912.197 496.554 912.197 561.813C912.197 574.41 902.924 585.083 890.502 586.482C890.152 586.482 889.977 586.482 889.628 586.657C886.828 586.832 883.854 587.007 880.88 587.007C835.04 587.182 789.201 587.357 743.362 587.532C709.77 587.532 676.353 587.357 642.761 587.357C625.44 587.357 608.119 587.182 590.798 587.007C586.599 587.007 582.4 586.482 578.376 584.908C569.628 581.409 564.904 574.585 562.63 565.662C561.755 562.163 561.58 558.664 561.58 555.165C561.755 531.72 561.93 560.763 562.105 537.319C562.105 506.176 562.979 226.942 563.154 186.002Z" fill="#CECECE"/>
<path d="M543.558 186.002C543.558 183.027 543.383 179.878 543.733 176.904C544.958 165.706 550.732 156.084 564.028 153.109C565.953 152.584 568.052 152.41 570.152 152.41C586.598 152.235 603.044 152.06 619.665 152.06C647.834 151.885 675.827 151.885 703.995 151.885C736.013 151.885 767.856 151.885 799.873 151.71C805.472 151.71 811.245 151.535 816.844 151.71C830.316 151.885 843.963 152.235 857.434 152.41C859.884 152.41 862.333 152.41 864.783 152.41C870.381 152.235 875.63 153.284 880.354 156.084C886.828 159.933 890.677 165.881 891.901 173.23C892.601 176.729 892.601 180.228 892.776 183.727C892.951 206.647 892.601 496.554 892.601 561.813C892.601 574.41 883.328 585.083 870.906 586.482C870.556 586.482 870.381 586.482 870.031 586.657C867.232 586.832 864.258 587.007 861.284 587.007C815.444 587.182 769.605 587.357 723.766 587.532C690.174 587.532 656.757 587.357 623.165 587.357C605.844 587.357 588.523 587.182 571.202 587.007C567.003 587.007 562.804 586.482 558.78 584.908C550.032 581.409 545.308 574.585 543.033 565.662C542.159 562.163 541.984 558.664 541.984 555.165C542.159 531.72 542.334 560.763 542.508 537.319C542.508 506.176 543.383 226.942 543.558 186.002Z" fill="#F7F7F7"/>
<path d="M677.926 143.661C672.328 136.488 660.256 137.363 655.707 143.661C656.406 145.236 657.106 146.811 657.456 148.385C657.631 149.26 657.631 150.135 657.631 151.01C657.631 151.36 657.281 151.71 657.106 151.71C656.756 151.71 656.232 151.71 656.232 151.36C655.882 150.835 655.707 150.135 655.532 149.61C655.182 148.385 654.657 147.161 653.957 145.936C653.607 146.286 653.432 146.461 653.257 146.811C648.883 154.684 651.858 163.957 659.731 167.806C660.081 167.981 660.431 168.156 660.78 168.331C661.48 168.681 661.48 169.205 661.13 169.905C660.78 170.43 660.256 170.78 659.731 170.43C658.156 169.555 656.406 168.856 655.182 167.631C648.533 162.207 647.134 152.759 651.683 145.236C652.033 144.711 652.207 144.186 652.557 143.836C647.484 137.013 635.411 137.013 630.338 143.836C631.037 145.411 631.562 146.986 632.087 148.385C632.262 149.26 632.437 150.135 632.262 151.01C632.262 151.36 631.912 151.885 631.562 151.885C631.212 151.885 630.688 151.535 630.513 151.36C630.163 150.835 630.163 150.31 629.988 149.785C629.638 148.56 629.288 147.336 628.413 146.111C627.538 147.511 627.013 148.735 626.663 149.96C624.214 157.483 628.063 165.006 634.537 167.981C635.936 168.681 636.286 169.205 635.761 170.08C635.411 170.78 634.712 170.78 633.487 170.255C627.188 167.106 624.039 162.032 623.689 155.034C623.514 151.36 624.564 148.035 626.489 145.061C626.663 144.711 626.838 144.361 627.013 144.186C622.29 137.188 609.692 137.363 604.794 144.186C605.493 145.761 606.193 147.336 606.543 148.91C606.718 149.785 606.718 150.66 606.718 151.535C606.718 151.885 606.368 152.234 606.193 152.234C605.843 152.234 605.319 152.059 605.144 151.71C604.794 151.185 604.619 150.66 604.444 150.135C604.094 148.91 603.569 147.686 602.869 146.461C602.519 147.161 602.169 147.686 601.819 148.21C598.145 155.734 601.12 164.307 608.293 167.981C608.818 168.156 609.168 168.506 609.692 168.681C610.392 169.03 610.392 169.555 610.217 170.255C609.867 170.78 609.343 171.13 608.818 170.78C607.243 169.905 605.493 169.205 604.094 167.981C597.445 162.557 596.046 153.109 600.595 145.586C600.945 145.061 601.119 144.536 601.469 144.011C598.67 140.862 595.171 139.113 590.972 138.938C583.974 138.763 579.25 142.087 576.275 148.035C572.601 155.559 575.576 163.957 582.749 167.631C583.274 167.806 583.624 167.981 584.148 168.331C584.848 168.681 585.023 169.38 584.673 169.905C584.323 170.43 583.799 170.78 583.274 170.43C581.699 169.555 579.949 168.856 578.725 167.631C571.551 161.682 570.677 151.36 576.275 143.836C578.9 140.162 582.399 137.888 586.598 136.838C592.547 135.438 597.97 136.838 602.519 141.212C602.694 141.387 602.869 141.562 603.219 141.912C606.718 138.588 610.917 136.488 615.991 136.313C621.065 136.138 625.264 138.063 628.938 141.912C632.437 138.588 636.636 136.488 641.71 136.313C646.784 136.138 650.983 138.063 654.657 141.912C658.156 138.588 662.355 136.488 667.429 136.313C672.503 136.138 676.702 138.063 680.376 141.912C683.875 138.588 688.074 136.488 693.148 136.313C698.222 136.138 702.421 138.063 706.095 141.912C709.594 138.588 713.793 136.488 718.867 136.313C723.941 136.138 728.14 138.063 731.814 141.912C735.313 138.588 739.512 136.488 744.586 136.313C749.66 136.138 753.859 138.063 757.533 141.912C761.207 138.413 765.406 136.313 770.48 136.313C775.553 136.313 779.753 138.238 783.427 142.087C784.126 141.562 784.826 141.037 785.701 140.512C788.675 138.238 792.175 137.013 795.849 136.838C800.398 136.663 804.422 138.238 807.746 141.212C808.096 141.562 808.446 141.912 808.971 142.262C812.645 138.763 816.844 136.838 821.743 136.663C826.816 136.663 831.015 138.588 834.515 142.262C836.614 140.512 838.889 138.763 841.688 137.713C850.961 134.214 861.458 139.462 863.733 148.91C863.908 149.785 863.908 150.66 863.908 151.535C863.908 151.71 863.558 152.234 863.383 152.234C863.033 152.234 862.683 152.059 862.508 151.885C862.158 151.36 861.983 150.66 861.808 150.135C860.933 147.336 859.709 144.886 857.609 142.962C854.985 140.512 852.01 139.287 848.336 139.113C843.787 138.938 839.763 140.337 836.614 143.661C836.439 143.836 836.439 144.011 836.264 144.011C836.964 145.586 837.664 147.161 838.014 148.735C838.364 149.61 838.189 150.66 838.189 151.535C838.189 151.71 837.839 152.059 837.664 152.059C837.314 152.059 836.789 152.059 836.789 151.885C836.439 151.36 836.089 150.66 836.089 150.135C835.739 148.91 835.214 147.686 834.515 146.461C833.115 147.86 832.765 149.435 832.24 151.185C830.491 158.358 833.99 165.181 840.113 168.156C840.463 168.331 840.813 168.506 841.163 168.681C841.863 169.03 841.863 169.555 841.688 170.08C841.513 170.605 840.813 170.955 840.113 170.605C839.763 170.43 839.413 170.255 839.064 170.255C834.34 167.981 831.19 164.132 829.966 159.058C828.741 154.159 829.616 149.61 832.24 145.411C832.415 145.061 832.59 144.711 832.94 144.361C828.216 137.713 816.144 137.363 810.72 144.186C811.245 145.761 811.945 147.161 812.47 148.735C812.82 149.61 812.82 150.66 812.82 151.535C812.82 151.71 812.47 152.234 812.295 152.234C811.945 152.234 811.595 152.059 811.42 151.885C811.07 151.36 810.895 150.66 810.72 150.135C810.37 148.91 810.02 147.686 809.146 146.461C808.971 146.811 808.796 146.986 808.621 147.161C804.247 155.034 807.221 164.307 815.094 168.156C815.444 168.331 815.794 168.506 815.969 168.681C816.669 169.03 816.669 169.555 816.319 170.255C815.969 170.78 815.444 171.13 814.919 170.78C813.17 170.08 811.595 169.205 810.02 167.981C803.547 162.382 802.322 152.934 806.871 145.586C807.046 145.236 807.396 144.886 807.571 144.536C803.372 137.888 790.95 137.363 785.526 144.186C786.051 145.586 786.576 146.986 787.101 148.385C787.276 149.26 787.451 150.31 787.451 151.185C787.451 151.535 787.101 151.885 786.926 152.059C786.576 152.059 786.051 151.885 785.876 151.71C785.526 151.185 785.351 150.66 785.176 150.135C784.826 148.91 784.301 147.86 783.952 146.461C782.552 148.21 781.852 149.96 781.502 151.885C779.753 159.233 783.602 165.881 789.55 168.681C789.9 168.856 790.25 169.031 790.6 169.205C791.3 169.555 791.3 170.08 790.95 170.78C790.6 171.305 790.075 171.655 789.55 171.305C787.801 170.605 786.226 169.73 784.651 168.506C778.178 162.907 776.953 153.459 781.327 146.111C781.677 145.586 781.852 145.061 782.202 144.711C777.828 137.888 765.581 137.363 759.807 144.361C760.332 145.936 761.032 147.336 761.557 148.91C761.907 149.785 761.907 150.835 761.907 151.71C761.907 151.885 761.557 152.409 761.382 152.409C761.032 152.409 760.682 152.234 760.507 152.059C760.157 151.535 759.982 150.835 759.807 150.31C759.457 149.085 759.107 147.86 758.233 146.636C758.058 146.986 757.883 147.161 757.708 147.336C753.334 155.209 756.308 164.482 764.181 168.331C764.531 168.506 764.881 168.681 765.056 168.856C765.756 169.205 765.756 169.73 765.406 170.43C765.056 170.955 764.531 171.305 764.006 170.955C762.257 170.255 760.682 169.38 759.107 168.156C752.634 162.732 751.409 153.109 755.958 145.761C756.133 145.411 756.483 145.061 756.658 144.711C752.459 138.063 740.037 137.363 734.438 144.536C735.138 146.111 735.663 147.686 736.188 149.26C736.538 150.135 736.363 151.185 736.363 152.059C736.363 152.234 736.013 152.584 735.838 152.584C735.488 152.584 734.963 152.584 734.963 152.409C734.613 151.885 734.263 151.185 734.263 150.66C733.913 149.435 733.388 148.21 732.689 146.986C732.339 147.336 731.989 147.686 731.814 148.035C727.79 155.909 730.589 164.831 738.287 168.681C738.637 168.856 739.162 169.03 739.337 169.38C739.512 169.73 739.862 170.255 739.687 170.78C739.512 171.305 738.987 171.655 738.287 171.48C737.937 171.305 737.412 171.13 737.063 170.955C732.164 168.506 729.189 164.831 727.965 159.583C726.74 154.859 727.615 150.31 730.239 146.111C730.414 145.936 730.589 145.586 730.764 145.411C730.764 145.236 730.939 145.236 730.939 145.061C726.215 138.413 714.318 138.063 708.719 144.886C709.244 146.461 709.944 147.86 710.469 149.435C710.819 150.31 710.819 151.36 710.819 152.234C710.819 152.409 710.469 152.934 710.294 152.934C709.944 152.934 709.594 152.759 709.419 152.584C709.069 152.059 708.894 151.36 708.719 150.835C708.369 149.61 708.019 148.385 707.145 147.336C706.97 147.511 706.795 147.686 706.62 147.86C702.071 155.734 705.045 165.181 712.918 169.03C713.268 169.205 713.618 169.38 713.968 169.555C714.668 169.905 714.668 170.43 714.318 171.13C713.968 171.655 713.443 172.005 712.918 171.655C711.344 170.78 709.594 170.08 708.369 168.856C701.721 163.432 700.321 153.984 704.87 146.461C705.22 145.936 705.395 145.411 705.745 145.061C700.671 138.238 688.599 138.413 683.525 145.061C684.225 146.636 684.75 148.21 685.275 149.785C685.625 150.66 685.45 151.71 685.45 152.584C685.45 152.759 685.1 153.109 684.925 153.284C684.575 153.284 684.05 153.284 684.05 153.109C683.7 152.584 683.525 151.885 683.175 151.36C682.65 150.135 682.3 148.91 681.776 147.511C680.726 148.56 680.201 149.61 679.851 150.66C677.926 156.433 678.801 161.857 683.175 166.231C684.225 167.456 685.8 168.156 687.199 169.205C687.549 169.555 688.249 169.555 688.424 169.905C688.774 170.255 688.949 170.78 688.774 171.305C688.599 172.005 688.074 172.18 687.374 172.005C687.024 171.83 686.674 171.83 686.324 171.655C680.026 168.506 676.877 163.432 676.527 156.433C676.352 152.759 677.402 149.435 679.326 146.461C677.577 144.361 677.577 144.011 677.926 143.661Z" fill="#FF5850"/>
<path d="M806.698 586.657C784.653 586.657 762.783 586.657 740.738 586.657C740.038 586.657 739.339 586.657 738.639 586.657C738.114 586.657 737.589 586.307 737.589 585.608C737.589 584.908 737.939 584.558 738.639 584.558C739.164 584.558 739.864 584.558 740.563 584.558C783.253 584.558 825.768 584.558 868.458 584.558C871.258 584.558 873.882 584.558 876.681 584.033C882.28 582.633 886.479 579.309 889.278 574.235C891.553 570.211 892.778 566.012 893.302 561.463C893.827 556.914 894.177 552.54 894.002 547.991C893.302 531.545 893.827 567.762 893.652 551.316C893.477 530.321 893.302 509.151 893.302 488.155C893.302 481.857 893.302 475.733 893.302 469.435C893.302 463.311 893.127 457.188 893.127 451.239C893.127 450.714 893.127 450.014 893.302 449.49C893.477 449.14 894.002 448.615 894.352 448.615C894.702 448.615 895.227 449.14 895.402 449.49C895.577 450.189 895.577 450.889 895.577 451.589C895.577 465.061 895.577 478.358 895.752 491.83C895.752 494.804 895.752 497.778 895.752 500.578C895.927 525.422 896.102 497.778 896.102 522.622C896.102 532.42 896.452 542.393 896.277 552.19C896.277 557.614 895.927 563.038 894.352 568.462C893.127 572.661 891.203 576.685 888.229 580.009C885.079 583.508 881.055 585.782 876.506 586.657C874.757 587.007 873.007 587.007 871.258 587.007C849.563 586.657 828.218 586.657 806.698 586.657Z" fill="#282526"/>
<path d="M892.427 269.282C892.427 250.211 892.602 231.141 892.427 212.07C892.427 206.997 892.427 201.748 891.377 196.849C891.202 195.799 890.852 194.924 890.677 193.875C890.502 193.35 890.327 192.825 890.327 192.3C890.327 191.95 890.677 191.425 890.852 191.25C891.202 191.25 891.902 191.425 892.077 191.775C892.602 193.175 893.127 194.575 893.476 195.974C894.701 201.398 894.701 206.997 894.701 212.42C894.701 225.017 894.701 237.789 894.701 250.386C894.701 275.755 894.876 300.95 895.051 326.319C895.051 327.018 895.051 327.893 895.051 328.593C894.876 329.293 894.526 329.643 893.826 329.643C893.126 329.643 892.777 329.118 892.777 328.593C892.602 327.893 892.777 327.193 892.777 326.494C892.427 307.423 892.427 288.352 892.427 269.282Z" fill="#282526"/>
<path d="M544.433 325.969C544.433 332.092 544.433 338.216 544.433 344.164C544.433 364.635 544.258 385.105 544.083 405.575C544.083 406.275 544.083 406.975 543.908 407.674C543.908 408.024 543.383 408.199 543.033 408.374C542.858 408.374 542.333 408.024 542.333 407.849C542.158 407.15 541.983 406.45 541.983 405.925C541.983 394.028 541.983 382.305 541.983 370.408C541.983 355.537 542.158 340.665 542.158 325.619C542.158 319.32 542.158 312.847 542.158 306.548C542.158 306.023 542.158 305.673 542.158 305.149C542.158 304.449 542.508 304.274 543.208 304.274C543.908 304.274 544.258 304.449 544.258 305.149C544.258 305.673 544.258 306.198 544.258 306.723C544.433 313.022 544.433 319.495 544.433 325.969Z" fill="#282526"/>
<path d="M543.206 207.521C543.206 199.123 543.206 190.9 543.206 182.502C543.206 177.254 543.906 172.355 545.656 167.456C547.93 161.332 551.954 156.608 557.903 153.809C561.052 152.409 564.376 151.71 567.875 151.885C568.05 151.885 568.225 151.885 568.575 151.885C569.1 152.06 569.625 152.234 569.625 152.934C569.625 153.634 568.925 153.634 568.4 153.809C567.526 153.809 566.651 153.984 565.776 153.984C558.953 154.334 554.054 157.658 550.38 163.082C547.93 166.581 546.53 170.43 546.006 174.629C545.656 177.254 545.481 180.053 545.481 182.852C545.481 200.348 545.481 217.844 545.481 235.34C545.481 236.215 545.481 236.915 545.131 237.789C545.131 238.139 544.431 238.489 544.256 238.489C543.906 238.314 543.381 237.964 543.381 237.614C543.206 237.089 543.381 236.565 543.381 236.04C543.206 226.417 543.206 216.969 543.206 207.521Z" fill="#282526"/>
<path d="M542.333 424.82C542.333 421.671 542.333 418.347 542.333 415.198C542.333 413.798 542.683 413.448 543.383 413.448C544.083 413.448 544.608 413.973 544.608 415.198C544.608 418.347 544.608 421.321 544.608 424.47C544.608 427.62 544.608 430.594 544.608 433.743C544.608 434.268 544.608 434.618 544.608 435.143C544.433 436.193 544.083 436.543 543.558 436.543C542.683 436.368 542.508 435.843 542.508 434.968C542.333 431.819 542.333 428.319 542.333 424.82Z" fill="#282526"/>
<path d="M895.049 435.668C895.049 437.767 895.049 439.692 895.049 441.791C895.049 443.016 894.699 443.716 893.999 443.716C893.3 443.716 892.95 443.191 892.95 441.791C892.95 437.767 892.95 433.568 892.95 429.544C892.95 427.97 893.474 427.095 894.174 427.27C895.224 427.62 895.224 428.669 895.224 429.544C895.049 431.469 895.049 433.568 895.049 435.668Z" fill="#282526"/>
<path d="M545.482 244.788C545.482 245.313 545.307 246.012 545.132 246.537C545.132 246.712 544.607 247.062 544.258 247.062C544.083 247.062 543.558 246.712 543.558 246.537C543.208 245.138 543.033 243.738 543.383 242.338C543.558 241.988 543.908 241.638 544.258 241.638C544.607 241.638 544.957 241.988 545.132 242.338C545.307 243.213 545.307 243.913 545.482 244.788Z" fill="#282526"/>
<path d="M661.656 306.023H606.194V250.561H661.656V306.023ZM608.293 303.924H659.556V252.661H608.293V303.924Z" fill="#CBD5D8"/>
<path d="M835.038 252.661H688.597C688.072 252.661 687.547 252.136 687.547 251.611C687.547 251.086 688.072 250.561 688.597 250.561H835.213C835.737 250.561 836.262 251.086 836.262 251.611C836.087 252.136 835.562 252.661 835.038 252.661Z" fill="#CBD5D8"/>
<path d="M835.037 278.555H688.597C688.072 278.555 687.547 278.03 687.547 277.505C687.547 276.98 688.072 276.455 688.597 276.455H835.212C835.737 276.455 836.262 276.98 836.262 277.505C836.087 278.205 835.562 278.555 835.037 278.555Z" fill="#CBD5D8"/>
<path d="M809.318 291.502H688.597C688.072 291.502 687.547 290.977 687.547 290.452C687.547 289.927 688.072 289.402 688.597 289.402H809.318C809.843 289.402 810.368 289.927 810.368 290.452C810.368 291.152 809.843 291.502 809.318 291.502Z" fill="#CBD5D8"/>
<path d="M835.036 265.608H748.082C747.557 265.608 747.032 265.083 747.032 264.558C747.032 264.033 747.557 263.508 748.082 263.508H835.211C835.736 263.508 836.261 264.033 836.261 264.558C836.086 265.083 835.561 265.608 835.036 265.608Z" fill="#CBD5D8"/>
<path d="M737.06 265.608H688.596C688.071 265.608 687.546 265.083 687.546 264.558C687.546 264.033 688.071 263.508 688.596 263.508H737.235C737.76 263.508 738.285 264.033 738.285 264.558C738.11 265.083 737.585 265.608 737.06 265.608Z" fill="#CBD5D8"/>
<path d="M633.836 291.502L617.04 274.706C616.341 274.006 616.341 272.956 617.04 272.256C617.74 271.556 618.79 271.556 619.49 272.256L633.662 286.428L677.751 236.915C678.451 236.215 679.501 236.04 680.201 236.74C680.9 237.439 681.075 238.489 680.376 239.189L633.836 291.502Z" fill="#068D9D"/>
<path d="M661.656 401.026H606.194V345.564H661.656V401.026ZM608.293 398.926H659.556V347.663H608.293V398.926Z" fill="#CBD5D8"/>
<path d="M835.038 347.663H688.597C688.072 347.663 687.547 347.139 687.547 346.614C687.547 346.089 688.072 345.564 688.597 345.564H835.213C835.737 345.564 836.262 346.089 836.262 346.614C836.087 347.139 835.562 347.663 835.038 347.663Z" fill="#CBD5D8"/>
<path d="M835.037 373.557H688.597C688.072 373.557 687.547 373.033 687.547 372.508C687.547 371.983 688.072 371.458 688.597 371.458H835.212C835.737 371.458 836.262 371.983 836.262 372.508C836.087 373.207 835.562 373.557 835.037 373.557Z" fill="#CBD5D8"/>
<path d="M809.318 386.504H688.597C688.072 386.504 687.547 385.979 687.547 385.455C687.547 384.93 688.072 384.405 688.597 384.405H809.318C809.843 384.405 810.368 384.93 810.368 385.455C810.368 386.154 809.843 386.504 809.318 386.504Z" fill="#CBD5D8"/>
<path d="M835.036 360.61H748.082C747.557 360.61 747.032 360.086 747.032 359.561C747.032 359.036 747.557 358.511 748.082 358.511H835.211C835.736 358.511 836.261 359.036 836.261 359.561C836.086 360.086 835.561 360.61 835.036 360.61Z" fill="#CBD5D8"/>
<path d="M737.06 360.61H688.596C688.071 360.61 687.546 360.086 687.546 359.561C687.546 359.036 688.071 358.511 688.596 358.511H737.235C737.76 358.511 738.285 359.036 738.285 359.561C738.11 360.086 737.585 360.61 737.06 360.61Z" fill="#CBD5D8"/>
<path d="M661.656 497.953H606.194V442.491H661.656V497.953ZM608.293 495.854H659.556V444.591H608.293V495.854Z" fill="#CBD5D8"/>
<path d="M835.038 444.591H688.597C688.072 444.591 687.547 444.066 687.547 443.541C687.547 443.016 688.072 442.491 688.597 442.491H835.213C835.737 442.491 836.262 443.016 836.262 443.541C836.087 444.066 835.562 444.591 835.038 444.591Z" fill="#CBD5D8"/>
<path d="M835.037 470.485H688.597C688.072 470.485 687.547 469.96 687.547 469.435C687.547 468.91 688.072 468.385 688.597 468.385H835.212C835.737 468.385 836.262 468.91 836.262 469.435C836.087 469.96 835.562 470.485 835.037 470.485Z" fill="#CBD5D8"/>
<path d="M809.318 483.432H688.597C688.072 483.432 687.547 482.907 687.547 482.382C687.547 481.857 688.072 481.332 688.597 481.332H809.318C809.843 481.332 810.368 481.857 810.368 482.382C810.368 482.907 809.843 483.432 809.318 483.432Z" fill="#CBD5D8"/>
<path d="M835.036 457.538H748.082C747.557 457.538 747.032 457.013 747.032 456.488C747.032 455.963 747.557 455.438 748.082 455.438H835.211C835.736 455.438 836.261 455.963 836.261 456.488C836.086 457.013 835.561 457.538 835.036 457.538Z" fill="#CBD5D8"/>
<path d="M737.06 457.538H688.596C688.071 457.538 687.546 457.013 687.546 456.488C687.546 455.963 688.071 455.438 688.596 455.438H737.235C737.76 455.438 738.285 455.963 738.285 456.488C738.11 457.013 737.585 457.538 737.06 457.538Z" fill="#CBD5D8"/>
<path d="M633.836 483.257L617.04 466.461C616.341 465.761 616.341 464.711 617.04 464.011C617.74 463.311 618.79 463.311 619.49 464.011L633.662 478.183L677.751 428.669C678.451 427.97 679.501 427.795 680.201 428.495C680.9 429.194 681.075 430.244 680.376 430.944L633.836 483.257Z" fill="#068D9D"/>
<path d="M243.154 133.002C243.154 130.027 242.979 126.878 243.329 123.904C244.554 112.706 250.328 103.084 263.625 100.109C265.549 99.5845 267.649 99.4095 269.748 99.4095C286.194 99.2346 302.64 99.0596 319.262 99.0596C347.43 98.8846 375.423 98.8846 403.592 98.8846C435.609 98.8846 467.452 98.8846 499.469 98.7097C505.068 98.7097 510.841 98.5347 516.44 98.7097C529.912 98.8846 543.559 99.2346 557.031 99.4095C559.48 99.4095 561.929 99.4095 564.379 99.4095C569.978 99.2346 575.226 100.284 579.95 103.084C586.424 106.933 590.273 112.881 591.497 120.23C592.197 123.729 592.197 127.228 592.372 130.727C592.547 153.647 592.197 443.554 592.197 508.813C592.197 521.41 582.924 532.083 570.502 533.482C570.152 533.482 569.978 533.482 569.628 533.657C566.828 533.832 563.854 534.007 560.88 534.007C515.04 534.182 469.201 534.357 423.362 534.532C389.77 534.532 356.353 534.357 322.761 534.357C305.44 534.357 288.119 534.182 270.798 534.007C266.599 534.007 262.4 533.482 258.376 531.908C249.628 528.409 244.904 521.585 242.63 512.662C241.755 509.163 241.58 505.664 241.58 502.165C241.755 478.72 241.93 507.763 242.105 484.319C242.105 453.176 242.979 173.942 243.154 133.002Z" fill="#CECECE"/>
<path d="M223.558 133.002C223.558 130.027 223.383 126.878 223.733 123.904C224.958 112.706 230.732 103.084 244.028 100.109C245.953 99.5845 248.053 99.4095 250.152 99.4095C266.598 99.2346 283.044 99.0596 299.665 99.0596C327.834 98.8846 355.827 98.8846 383.996 98.8846C416.013 98.8846 447.856 98.8846 479.873 98.7097C485.472 98.7097 491.245 98.5347 496.844 98.7097C510.316 98.8846 523.963 99.2346 537.434 99.4095C539.884 99.4095 542.333 99.4095 544.783 99.4095C550.381 99.2346 555.63 100.284 560.354 103.084C566.828 106.933 570.677 112.881 571.901 120.23C572.601 123.729 572.601 127.228 572.776 130.727C572.951 153.647 572.601 443.554 572.601 508.813C572.601 521.41 563.328 532.083 550.906 533.482C550.556 533.482 550.381 533.482 550.032 533.657C547.232 533.832 544.258 534.007 541.284 534.007C495.444 534.182 449.605 534.357 403.766 534.532C370.174 534.532 336.757 534.357 303.165 534.357C285.844 534.357 268.523 534.182 251.202 534.007C247.003 534.007 242.804 533.482 238.78 531.908C230.032 528.409 225.308 521.585 223.033 512.662C222.159 509.163 221.984 505.664 221.984 502.165C222.159 478.72 222.334 507.763 222.509 484.319C222.509 453.176 223.383 173.942 223.558 133.002Z" fill="#F7F7F7"/>
<path d="M357.926 90.6615C352.328 83.4881 340.256 84.3629 335.707 90.6615C336.407 92.2361 337.106 93.8107 337.456 95.3854C337.631 96.2601 337.631 97.1349 337.631 98.0097C337.631 98.3597 337.281 98.7096 337.106 98.7096C336.756 98.7096 336.232 98.7096 336.232 98.3597C335.882 97.8348 335.707 97.1349 335.532 96.6101C335.182 95.3854 334.657 94.1606 333.957 92.9359C333.607 93.2858 333.432 93.4608 333.257 93.8107C328.883 101.684 331.858 110.957 339.731 114.806C340.081 114.981 340.431 115.156 340.78 115.331C341.48 115.681 341.48 116.205 341.13 116.905C340.78 117.43 340.256 117.78 339.731 117.43C338.156 116.555 336.407 115.856 335.182 114.631C328.533 109.207 327.134 99.7593 331.683 92.2361C332.033 91.7112 332.207 91.1863 332.557 90.8364C327.484 84.013 315.411 84.013 310.338 90.8364C311.037 92.4111 311.562 93.9857 312.087 95.3854C312.262 96.2601 312.437 97.1349 312.262 98.0097C312.262 98.3597 311.912 98.8845 311.562 98.8845C311.212 98.8845 310.688 98.5346 310.513 98.3597C310.163 97.8348 310.163 97.3099 309.988 96.785C309.638 95.5603 309.288 94.3356 308.413 93.1109C307.538 94.5106 307.013 95.7353 306.664 96.96C304.214 104.483 308.063 112.006 314.537 114.981C315.936 115.681 316.286 116.205 315.761 117.08C315.411 117.78 314.712 117.78 313.487 117.255C307.188 114.106 304.039 109.032 303.689 102.034C303.514 98.3596 304.564 95.0354 306.489 92.0611C306.664 91.7112 306.838 91.3613 307.013 91.1863C302.29 84.188 289.693 84.3629 284.794 91.1863C285.493 92.761 286.193 94.3356 286.543 95.9102C286.718 96.785 286.718 97.6598 286.718 98.5346C286.718 98.8845 286.368 99.2344 286.193 99.2344C285.843 99.2344 285.319 99.0595 285.144 98.7096C284.794 98.1847 284.619 97.6598 284.444 97.1349C284.094 95.9102 283.569 94.6855 282.869 93.4608C282.519 94.1606 282.169 94.6855 281.819 95.2104C278.145 102.734 281.12 111.307 288.293 114.981C288.818 115.156 289.168 115.506 289.692 115.681C290.392 116.03 290.392 116.555 290.217 117.255C289.867 117.78 289.343 118.13 288.818 117.78C287.243 116.905 285.493 116.205 284.094 114.981C277.445 109.557 276.046 100.109 280.595 92.586C280.945 92.0611 281.12 91.5363 281.469 91.0114C278.67 87.8621 275.171 86.1125 270.972 85.9376C263.974 85.7626 259.25 89.0868 256.275 95.0354C252.601 102.559 255.576 110.957 262.749 114.631C263.274 114.806 263.624 114.981 264.149 115.331C264.848 115.681 265.023 116.38 264.673 116.905C264.323 117.43 263.799 117.78 263.274 117.43C261.699 116.555 259.949 115.856 258.725 114.631C251.551 108.682 250.677 98.3597 256.275 90.8364C258.9 87.1623 262.399 84.8878 266.598 83.8381C272.547 82.4384 277.97 83.8381 282.519 88.212C282.694 88.387 282.869 88.562 283.219 88.9119C286.718 85.5877 290.917 83.4882 295.991 83.3132C301.065 83.1382 305.264 85.0628 308.938 88.9119C312.437 85.5877 316.636 83.4882 321.71 83.3132C326.784 83.1382 330.983 85.0628 334.657 88.9119C338.156 85.5877 342.355 83.4882 347.429 83.3132C352.503 83.1382 356.702 85.0628 360.376 88.9119C363.875 85.5877 368.074 83.4882 373.148 83.3132C378.222 83.1382 382.421 85.0628 386.095 88.9119C389.594 85.5877 393.793 83.4882 398.867 83.3132C403.941 83.1382 408.14 85.0628 411.814 88.9119C415.313 85.5877 419.512 83.4882 424.586 83.3132C429.66 83.1382 433.859 85.0628 437.533 88.9119C441.207 85.4127 445.406 83.3132 450.48 83.3132C455.553 83.3132 459.753 85.2377 463.427 89.0868C464.127 88.562 464.826 88.0371 465.701 87.5122C468.675 85.2377 472.175 84.013 475.849 83.8381C480.398 83.6631 484.422 85.2377 487.746 88.212C488.096 88.562 488.446 88.9119 488.971 89.2618C492.645 85.7626 496.844 83.8381 501.743 83.6631C506.816 83.6631 511.015 85.5877 514.515 89.2618C516.614 87.5122 518.889 85.7626 521.688 84.7129C530.961 81.2137 541.458 86.4624 543.733 95.9102C543.908 96.785 543.908 97.6598 543.908 98.5346C543.908 98.7096 543.558 99.2344 543.383 99.2344C543.033 99.2344 542.683 99.0595 542.508 98.8845C542.158 98.3597 541.983 97.6598 541.808 97.1349C540.933 94.3356 539.709 91.8862 537.609 89.9616C534.985 87.5122 532.01 86.2875 528.336 86.1125C523.787 85.9376 519.763 87.3372 516.614 90.6615C516.439 90.8364 516.439 91.0114 516.264 91.0114C516.964 92.586 517.664 94.1606 518.014 95.7353C518.364 96.6101 518.189 97.6598 518.189 98.5346C518.189 98.7096 517.839 99.0595 517.664 99.0595C517.314 99.0595 516.789 99.0595 516.789 98.8845C516.439 98.3597 516.089 97.6598 516.089 97.1349C515.739 95.9102 515.214 94.6855 514.515 93.4608C513.115 94.8605 512.765 96.4351 512.24 98.1847C510.491 105.358 513.99 112.181 520.113 115.156C520.463 115.331 520.813 115.506 521.163 115.681C521.863 116.03 521.863 116.555 521.688 117.08C521.513 117.605 520.813 117.955 520.113 117.605C519.763 117.43 519.413 117.255 519.064 117.255C514.34 114.981 511.19 111.132 509.966 106.058C508.741 101.159 509.616 96.6101 512.24 92.411C512.415 92.0611 512.59 91.7112 512.94 91.3613C508.216 84.7129 496.144 84.3629 490.72 91.1863C491.245 92.761 491.945 94.1606 492.47 95.7353C492.82 96.6101 492.82 97.6598 492.82 98.5346C492.82 98.7096 492.47 99.2344 492.295 99.2344C491.945 99.2344 491.595 99.0595 491.42 98.8845C491.07 98.3597 490.895 97.6598 490.72 97.1349C490.37 95.9102 490.02 94.6855 489.146 93.4608C488.971 93.8107 488.796 93.9857 488.621 94.1606C484.247 102.034 487.221 111.307 495.094 115.156C495.444 115.331 495.794 115.506 495.969 115.681C496.669 116.03 496.669 116.555 496.319 117.255C495.969 117.78 495.444 118.13 494.919 117.78C493.17 117.08 491.595 116.205 490.02 114.981C483.547 109.382 482.322 99.9343 486.871 92.586C487.046 92.2361 487.396 91.8862 487.571 91.5363C483.372 84.8878 470.95 84.3629 465.526 91.1863C466.051 92.586 466.576 93.9857 467.101 95.3854C467.276 96.2601 467.451 97.3099 467.451 98.1847C467.451 98.5346 467.101 98.8845 466.926 99.0595C466.576 99.0595 466.051 98.8845 465.876 98.7096C465.526 98.1847 465.351 97.6598 465.176 97.1349C464.826 95.9102 464.301 94.8605 463.952 93.4608C462.552 95.2104 461.852 96.96 461.502 98.8845C459.753 106.233 463.602 112.881 469.55 115.681C469.9 115.856 470.25 116.031 470.6 116.205C471.3 116.555 471.3 117.08 470.95 117.78C470.6 118.305 470.075 118.655 469.55 118.305C467.801 117.605 466.226 116.73 464.651 115.506C458.178 109.907 456.953 100.459 461.327 93.1109C461.677 92.586 461.852 92.0611 462.202 91.7112C457.828 84.8878 445.581 84.3629 439.807 91.3613C440.332 92.9359 441.032 94.3356 441.557 95.9102C441.907 96.785 441.907 97.8348 441.907 98.7096C441.907 98.8845 441.557 99.4094 441.382 99.4094C441.032 99.4094 440.682 99.2344 440.507 99.0595C440.157 98.5346 439.982 97.8348 439.807 97.3099C439.457 96.0852 439.107 94.8605 438.233 93.6358C438.058 93.9857 437.883 94.1606 437.708 94.3356C433.334 102.209 436.308 111.482 444.181 115.331C444.531 115.506 444.881 115.681 445.056 115.856C445.756 116.205 445.756 116.73 445.406 117.43C445.056 117.955 444.531 118.305 444.006 117.955C442.257 117.255 440.682 116.38 439.107 115.156C432.634 109.732 431.409 100.109 435.958 92.761C436.133 92.4111 436.483 92.0611 436.658 91.7112C432.459 85.0628 420.037 84.3629 414.438 91.5363C415.138 93.1109 415.663 94.6855 416.188 96.2601C416.538 97.1349 416.363 98.1847 416.363 99.0595C416.363 99.2344 416.013 99.5844 415.838 99.5844C415.488 99.5844 414.963 99.5844 414.963 99.4094C414.613 98.8845 414.263 98.1847 414.263 97.6598C413.913 96.4351 413.388 95.2104 412.689 93.9857C412.339 94.3356 411.989 94.6855 411.814 95.0354C407.79 102.909 410.589 111.831 418.287 115.681C418.637 115.856 419.162 116.03 419.337 116.38C419.512 116.73 419.862 117.255 419.687 117.78C419.512 118.305 418.987 118.655 418.287 118.48C417.937 118.305 417.412 118.13 417.063 117.955C412.164 115.506 409.189 111.831 407.965 106.583C406.74 101.859 407.615 97.3099 410.239 93.1109C410.414 92.9359 410.589 92.586 410.764 92.411C410.764 92.2361 410.939 92.2361 410.939 92.0611C406.215 85.4127 394.318 85.0628 388.719 91.8862C389.244 93.4608 389.944 94.8605 390.469 96.4351C390.819 97.3099 390.819 98.3597 390.819 99.2344C390.819 99.4094 390.469 99.9343 390.294 99.9343C389.944 99.9343 389.594 99.7593 389.419 99.5844C389.069 99.0595 388.894 98.3597 388.719 97.8348C388.369 96.6101 388.019 95.3854 387.145 94.3356C386.97 94.5106 386.795 94.6855 386.62 94.8605C382.071 102.734 385.045 112.181 392.918 116.03C393.268 116.205 393.618 116.38 393.968 116.555C394.668 116.905 394.668 117.43 394.318 118.13C393.968 118.655 393.443 119.005 392.918 118.655C391.344 117.78 389.594 117.08 388.369 115.856C381.721 110.432 380.321 100.984 384.87 93.4608C385.22 92.9359 385.395 92.4111 385.745 92.0611C380.671 85.2377 368.599 85.4127 363.525 92.0611C364.225 93.6358 364.75 95.2104 365.275 96.785C365.625 97.6598 365.45 98.7096 365.45 99.5844C365.45 99.7593 365.1 100.109 364.925 100.284C364.575 100.284 364.05 100.284 364.05 100.109C363.7 99.5844 363.525 98.8845 363.175 98.3597C362.65 97.1349 362.3 95.9102 361.776 94.5106C360.726 95.5603 360.201 96.6101 359.851 97.6598C357.926 103.433 358.801 108.857 363.175 113.231C364.225 114.456 365.8 115.156 367.199 116.205C367.549 116.555 368.249 116.555 368.424 116.905C368.774 117.255 368.949 117.78 368.774 118.305C368.599 119.005 368.074 119.18 367.374 119.005C367.024 118.83 366.674 118.83 366.324 118.655C360.026 115.506 356.877 110.432 356.527 103.433C356.352 99.7593 357.402 96.4351 359.326 93.4608C357.577 91.3613 357.577 91.0114 357.926 90.6615Z" fill="#FF5850"/>
<path d="M486.698 533.657C464.653 533.657 442.783 533.657 420.738 533.657C420.038 533.657 419.339 533.657 418.639 533.657C418.114 533.657 417.589 533.307 417.589 532.608C417.589 531.908 417.939 531.558 418.639 531.558C419.164 531.558 419.864 531.558 420.563 531.558C463.253 531.558 505.768 531.558 548.458 531.558C551.258 531.558 553.882 531.558 556.681 531.033C562.28 529.633 566.479 526.309 569.278 521.235C571.553 517.211 572.778 513.012 573.302 508.463C573.827 503.914 574.177 499.54 574.002 494.991C573.302 478.545 573.827 514.762 573.652 498.316C573.477 477.321 573.302 456.151 573.302 435.155C573.302 428.857 573.302 422.733 573.302 416.435C573.302 410.311 573.128 404.188 573.128 398.239C573.128 397.714 573.128 397.014 573.302 396.49C573.477 396.14 574.002 395.615 574.352 395.615C574.702 395.615 575.227 396.14 575.402 396.49C575.577 397.189 575.577 397.889 575.577 398.589C575.577 412.061 575.577 425.358 575.752 438.83C575.752 441.804 575.752 444.778 575.752 447.578C575.927 472.422 576.102 444.778 576.102 469.622C576.102 479.42 576.452 489.393 576.277 499.19C576.277 504.614 575.927 510.038 574.352 515.462C573.128 519.661 571.203 523.685 568.229 527.009C565.079 530.508 561.055 532.782 556.506 533.657C554.757 534.007 553.007 534.007 551.258 534.007C529.563 533.657 508.218 533.657 486.698 533.657Z" fill="#282526"/>
<path d="M572.427 216.282C572.427 197.211 572.602 178.141 572.427 159.07C572.427 153.997 572.427 148.748 571.377 143.849C571.202 142.799 570.852 141.924 570.677 140.875C570.502 140.35 570.327 139.825 570.327 139.3C570.327 138.95 570.677 138.425 570.852 138.25C571.202 138.25 571.902 138.425 572.077 138.775C572.602 140.175 573.127 141.575 573.477 142.974C574.701 148.398 574.701 153.997 574.701 159.42C574.701 172.017 574.701 184.789 574.701 197.386C574.701 222.755 574.876 247.95 575.051 273.319C575.051 274.018 575.051 274.893 575.051 275.593C574.876 276.293 574.526 276.643 573.826 276.643C573.127 276.643 572.777 276.118 572.777 275.593C572.602 274.893 572.777 274.193 572.777 273.493C572.427 254.423 572.427 235.352 572.427 216.282Z" fill="#282526"/>
<path d="M224.433 272.969C224.433 279.092 224.433 285.216 224.433 291.164C224.433 311.635 224.258 332.105 224.083 352.575C224.083 353.275 224.083 353.975 223.908 354.674C223.908 355.024 223.383 355.199 223.033 355.374C222.858 355.374 222.333 355.024 222.333 354.849C222.158 354.15 221.983 353.45 221.983 352.925C221.983 341.028 221.983 329.305 221.983 317.408C221.983 302.537 222.158 287.665 222.158 272.619C222.158 266.32 222.158 259.847 222.158 253.548C222.158 253.023 222.158 252.673 222.158 252.149C222.158 251.449 222.508 251.274 223.208 251.274C223.908 251.274 224.258 251.449 224.258 252.149C224.258 252.673 224.258 253.198 224.258 253.723C224.433 260.022 224.433 266.495 224.433 272.969Z" fill="#282526"/>
<path d="M223.206 154.521C223.206 146.123 223.206 137.9 223.206 129.502C223.206 124.254 223.906 119.355 225.656 114.456C227.93 108.332 231.954 103.608 237.903 100.809C241.052 99.4094 244.376 98.7096 247.876 98.8845C248.05 98.8845 248.225 98.8845 248.575 98.8845C249.1 99.0595 249.625 99.2345 249.625 99.9343C249.625 100.634 248.925 100.634 248.4 100.809C247.526 100.809 246.651 100.984 245.776 100.984C238.953 101.334 234.054 104.658 230.38 110.082C227.93 113.581 226.531 117.43 226.006 121.629C225.656 124.254 225.481 127.053 225.481 129.852C225.481 147.348 225.481 164.844 225.481 182.34C225.481 183.215 225.481 183.915 225.131 184.789C225.131 185.139 224.431 185.489 224.256 185.489C223.906 185.314 223.381 184.964 223.381 184.614C223.206 184.089 223.381 183.565 223.381 183.04C223.206 173.417 223.206 163.969 223.206 154.521Z" fill="#282526"/>
<path d="M222.333 371.82C222.333 368.671 222.333 365.347 222.333 362.198C222.333 360.798 222.683 360.448 223.383 360.448C224.083 360.448 224.608 360.973 224.608 362.198C224.608 365.347 224.608 368.321 224.608 371.47C224.608 374.62 224.608 377.594 224.608 380.743C224.608 381.268 224.608 381.618 224.608 382.143C224.433 383.193 224.083 383.543 223.558 383.543C222.683 383.368 222.508 382.843 222.508 381.968C222.333 378.819 222.333 375.319 222.333 371.82Z" fill="#282526"/>
<path d="M575.049 382.668C575.049 384.767 575.049 386.692 575.049 388.791C575.049 390.016 574.699 390.716 573.999 390.716C573.3 390.716 572.95 390.191 572.95 388.791C572.95 384.767 572.95 380.568 572.95 376.544C572.95 374.97 573.475 374.095 574.174 374.27C575.224 374.62 575.224 375.669 575.224 376.544C575.049 378.469 575.049 380.568 575.049 382.668Z" fill="#282526"/>
<path d="M225.482 191.788C225.482 192.313 225.307 193.012 225.132 193.537C225.132 193.712 224.607 194.062 224.258 194.062C224.083 194.062 223.558 193.712 223.558 193.537C223.208 192.138 223.033 190.738 223.383 189.338C223.558 188.988 223.908 188.638 224.258 188.638C224.607 188.638 224.957 188.988 225.132 189.338C225.307 190.213 225.307 190.913 225.482 191.788Z" fill="#282526"/>
<path d="M341.656 253.023H286.194V197.561H341.656V253.023ZM288.293 250.924H339.556V199.661H288.293V250.924Z" fill="#CBD5D8"/>
<path d="M515.038 199.661H368.597C368.072 199.661 367.547 199.136 367.547 198.611C367.547 198.086 368.072 197.561 368.597 197.561H515.213C515.737 197.561 516.262 198.086 516.262 198.611C516.087 199.136 515.562 199.661 515.038 199.661Z" fill="#CBD5D8"/>
<path d="M515.037 225.555H368.597C368.072 225.555 367.547 225.03 367.547 224.505C367.547 223.98 368.072 223.455 368.597 223.455H515.212C515.737 223.455 516.262 223.98 516.262 224.505C516.087 225.205 515.562 225.555 515.037 225.555Z" fill="#CBD5D8"/>
<path d="M489.318 238.502H368.597C368.072 238.502 367.547 237.977 367.547 237.452C367.547 236.927 368.072 236.402 368.597 236.402H489.318C489.843 236.402 490.368 236.927 490.368 237.452C490.368 238.152 489.843 238.502 489.318 238.502Z" fill="#CBD5D8"/>
<path d="M515.036 212.608H428.082C427.557 212.608 427.032 212.083 427.032 211.558C427.032 211.033 427.557 210.508 428.082 210.508H515.211C515.736 210.508 516.261 211.033 516.261 211.558C516.086 212.083 515.561 212.608 515.036 212.608Z" fill="#CBD5D8"/>
<path d="M417.06 212.608H368.596C368.071 212.608 367.547 212.083 367.547 211.558C367.547 211.033 368.071 210.508 368.596 210.508H417.235C417.76 210.508 418.285 211.033 418.285 211.558C418.11 212.083 417.585 212.608 417.06 212.608Z" fill="#CBD5D8"/>
<path d="M313.836 238.502L297.04 221.706C296.341 221.006 296.341 219.956 297.04 219.256C297.74 218.556 298.79 218.556 299.49 219.256L313.662 233.428L357.751 183.915C358.451 183.215 359.501 183.04 360.201 183.74C360.9 184.439 361.075 185.489 360.376 186.189L313.836 238.502Z" fill="#068D9D"/>
<path d="M341.656 348.026H286.194V292.564H341.656V348.026ZM288.293 345.926H339.556V294.663H288.293V345.926Z" fill="#CBD5D8"/>
<path d="M515.038 294.663H368.597C368.072 294.663 367.547 294.139 367.547 293.614C367.547 293.089 368.072 292.564 368.597 292.564H515.213C515.737 292.564 516.262 293.089 516.262 293.614C516.087 294.139 515.562 294.663 515.038 294.663Z" fill="#CBD5D8"/>
<path d="M515.037 320.557H368.597C368.072 320.557 367.547 320.033 367.547 319.508C367.547 318.983 368.072 318.458 368.597 318.458H515.212C515.737 318.458 516.262 318.983 516.262 319.508C516.087 320.207 515.562 320.557 515.037 320.557Z" fill="#CBD5D8"/>
<path d="M489.318 333.504H368.597C368.072 333.504 367.547 332.979 367.547 332.455C367.547 331.93 368.072 331.405 368.597 331.405H489.318C489.843 331.405 490.368 331.93 490.368 332.455C490.368 333.154 489.843 333.504 489.318 333.504Z" fill="#CBD5D8"/>
<path d="M515.036 307.61H428.082C427.557 307.61 427.032 307.086 427.032 306.561C427.032 306.036 427.557 305.511 428.082 305.511H515.211C515.736 305.511 516.261 306.036 516.261 306.561C516.086 307.086 515.561 307.61 515.036 307.61Z" fill="#CBD5D8"/>
<path d="M417.06 307.61H368.596C368.071 307.61 367.547 307.086 367.547 306.561C367.547 306.036 368.071 305.511 368.596 305.511H417.235C417.76 305.511 418.285 306.036 418.285 306.561C418.11 307.086 417.585 307.61 417.06 307.61Z" fill="#CBD5D8"/>
<path d="M341.656 444.953H286.194V389.491H341.656V444.953ZM288.293 442.854H339.556V391.591H288.293V442.854Z" fill="#CBD5D8"/>
<path d="M515.038 391.591H368.597C368.072 391.591 367.547 391.066 367.547 390.541C367.547 390.016 368.072 389.491 368.597 389.491H515.213C515.737 389.491 516.262 390.016 516.262 390.541C516.087 391.066 515.562 391.591 515.038 391.591Z" fill="#CBD5D8"/>
<path d="M515.037 417.485H368.597C368.072 417.485 367.547 416.96 367.547 416.435C367.547 415.91 368.072 415.385 368.597 415.385H515.212C515.737 415.385 516.262 415.91 516.262 416.435C516.087 416.96 515.562 417.485 515.037 417.485Z" fill="#CBD5D8"/>
<path d="M489.318 430.432H368.597C368.072 430.432 367.547 429.907 367.547 429.382C367.547 428.857 368.072 428.332 368.597 428.332H489.318C489.843 428.332 490.368 428.857 490.368 429.382C490.368 429.907 489.843 430.432 489.318 430.432Z" fill="#CBD5D8"/>
<path d="M515.036 404.538H428.082C427.557 404.538 427.032 404.013 427.032 403.488C427.032 402.963 427.557 402.438 428.082 402.438H515.211C515.736 402.438 516.261 402.963 516.261 403.488C516.086 404.013 515.561 404.538 515.036 404.538Z" fill="#CBD5D8"/>
<path d="M417.06 404.538H368.596C368.071 404.538 367.547 404.013 367.547 403.488C367.547 402.963 368.071 402.438 368.596 402.438H417.235C417.76 402.438 418.285 402.963 418.285 403.488C418.11 404.013 417.585 404.538 417.06 404.538Z" fill="#CBD5D8"/>
<path d="M313.836 430.257L297.04 413.461C296.341 412.761 296.341 411.711 297.04 411.011C297.74 410.311 298.79 410.311 299.49 411.011L313.662 425.183L357.751 375.669C358.451 374.97 359.501 374.795 360.201 375.495C360.9 376.194 361.075 377.244 360.376 377.944L313.836 430.257Z" fill="#068D9D"/>
<path d="M400.967 621.662C491.506 621.662 564.903 613.123 564.903 602.591C564.903 592.059 491.506 583.521 400.967 583.521C310.427 583.521 237.03 592.059 237.03 602.591C237.03 613.123 310.427 621.662 400.967 621.662Z" fill="#CBD5D8"/>
</svg>
