<svg width="32" height="32" viewBox="0 0 32 32" fill="none" xmlns="http://www.w3.org/2000/svg">
<path d="M23.1926 8.9178C23.9522 8.1586 25.1783 8.15854 25.9377 8.9178C26.6973 9.67738 26.6973 10.9043 25.9377 11.6639L14.5188 23.0828C14.3388 23.263 14.1251 23.4061 13.8899 23.5037C13.6544 23.6014 13.4016 23.6512 13.1467 23.6512C12.8918 23.6512 12.639 23.6014 12.4036 23.5037C12.1683 23.4061 11.9546 23.263 11.7747 23.0828L11.7737 23.0819L6.06177 17.3729V17.3719L5.92798 17.2254C5.3058 16.4646 5.34963 15.3403 6.06177 14.6278C6.82172 13.8678 8.05053 13.8685 8.80688 14.6268L8.80786 14.6278L12.6165 18.4334L13.1467 18.9637L23.1926 8.9178Z" fill="#151515" fill-opacity="0.7" stroke="white" stroke-width="1.5"/>
</svg>
