<svg width="21" height="20" viewBox="0 0 21 20" fill="none" xmlns="http://www.w3.org/2000/svg">
<path d="M18.1067 5.47104L14.587 1.9513C11.4272 -1.19846 9.76731 -0.0385464 7.76751 1.9513L2.10794 7.61088C0.958024 8.76084 0.328071 9.50079 0.0980881 10.3207C0.0980881 10.3307 0.0880888 10.3307 0.0880888 10.3307V10.3407V10.3507V10.3807C-0.321882 11.8406 0.758039 13.0805 2.10794 14.4304L5.63767 17.9402C6.89758 19.2101 7.9175 20 9.04737 20C10.1773 20 11.1472 19.2401 12.4471 17.9402L18.1067 12.2906C18.5967 11.7906 18.9566 11.3806 19.2366 10.9907C19.2366 10.9807 19.2366 10.9807 19.2366 10.9807H19.2466C20.5265 9.19081 20.1865 7.54088 18.1067 5.47104ZM17.0768 9.3708H17.0668C16.7668 9.3008 16.4568 9.24081 16.1468 9.18081C16.1268 9.18081 16.1068 9.17081 16.0768 9.17081C15.3769 9.04082 14.6669 8.93083 13.947 8.84084H13.907C13.1871 8.75085 12.4571 8.68085 11.7272 8.64085H11.6472C11.0072 8.60086 10.3573 8.58086 9.71732 8.58086C8.93743 8.58086 8.15748 8.62085 7.38754 8.67085C7.25755 8.68085 7.13756 8.69085 7.01757 8.70085C6.43761 8.74085 5.85766 8.80084 5.2877 8.87084C5.12771 8.89083 4.97772 8.91083 4.82773 8.93083C4.24778 9.02082 3.67782 9.11082 3.10786 9.22081C2.97787 9.25081 2.85788 9.27081 2.72789 9.2908C2.67789 9.3008 2.6179 9.3108 2.5679 9.3208C2.74789 9.12082 2.95787 8.91083 3.18786 8.68085L8.83743 3.03122C10.6572 1.23136 11.2772 0.80139 13.517 3.03122L17.0268 6.55096C17.5667 7.08092 17.9267 7.53089 18.1467 7.92086C18.1467 7.92086 18.1467 7.93086 18.1567 7.93086C18.5767 8.66085 17.8967 9.53079 17.0768 9.3708Z" fill="#151515" fill-opacity="0.7"/>
<path d="M19.9464 14.869C19.5665 14.399 19.2365 13.999 18.4965 13.999C17.7566 13.999 17.4266 14.399 17.0566 14.869C16.2567 15.8589 15.8967 16.9388 16.0267 17.9787C16.1767 19.1686 17.1966 19.9986 18.4965 19.9986C19.7964 19.9986 20.8164 19.1686 20.9663 17.9687C21.0963 16.9288 20.7464 15.8589 19.9464 14.869Z" fill="#151515" fill-opacity="0.7"/>
</svg>
