<svg width="67" height="80" viewBox="0 0 67 80" fill="none" xmlns="http://www.w3.org/2000/svg">
<path d="M15.6621 7.66137C15.7529 7.24158 15.8244 6.79176 15.9647 6.38267C16.4796 4.83973 17.5885 3.65799 19.5561 3.64441C19.8438 3.62913 20.1455 3.66857 20.4418 3.73271C22.7684 4.21042 25.095 4.68814 27.4409 5.1959C31.422 6.03171 35.3731 6.88688 39.3488 7.74739C43.8678 8.72548 48.3621 9.69823 52.8865 10.6516C53.6767 10.8227 54.497 10.9744 55.2818 11.1701C57.1779 11.6063 59.0934 12.0726 60.9895 12.5088C61.3352 12.5837 61.6809 12.6585 62.0266 12.7333C62.8222 12.8797 63.5309 13.1882 64.1122 13.7276C64.9083 14.4686 65.2698 15.4257 65.2182 16.5002C65.21 17.0155 65.1031 17.5093 65.0209 18.0085C64.3454 21.2487 55.4394 62.1544 53.4457 71.3649C53.0608 73.1428 51.426 74.3658 49.63 74.1839C49.5806 74.1732 49.5559 74.1678 49.5012 74.1818C49.1007 74.121 48.6756 74.0548 48.2558 73.964C41.7806 72.5883 35.3054 71.2127 28.8302 69.8371C24.0889 68.8109 19.3777 67.7653 14.6364 66.7391C12.1917 66.21 9.75234 65.6562 7.31297 65.1023C6.72031 64.9741 6.14369 64.7717 5.62383 64.4265C4.49602 63.6654 4.03774 62.5581 3.98931 61.2293C3.97274 60.7087 4.05495 60.2095 4.16185 59.7156C4.90277 56.4121 4.04019 60.5165 4.78112 57.213C5.73253 52.8176 14.3866 13.4342 15.6621 7.66137Z" fill="#CECECE"/>
<path d="M12.8964 7.06258C12.9873 6.6428 13.0588 6.19298 13.1991 5.78389C13.714 4.24094 14.8229 3.05921 16.7905 3.04563C17.0782 3.03034 17.3798 3.06978 17.6762 3.13392C20.0028 3.61164 22.3294 4.08936 24.6753 4.59711C28.6564 5.43293 32.6074 6.28809 36.5832 7.1486C41.1022 8.1267 45.5965 9.09945 50.1209 10.0529C50.9111 10.2239 51.7313 10.3756 52.5162 10.5713C54.4123 11.0075 56.3278 11.4738 58.2239 11.9101C58.5696 11.9849 58.9153 12.0597 59.261 12.1345C60.0566 12.2809 60.7653 12.5894 61.3465 13.1288C62.1426 13.8698 62.5042 14.8269 62.4525 15.9015C62.4444 16.4167 62.3375 16.9106 62.2553 17.4098C61.5798 20.6499 52.6737 61.5556 50.6801 70.7661C50.2952 72.544 48.6604 73.767 46.8643 73.5851C46.815 73.5744 46.7903 73.569 46.7355 73.583C46.3351 73.5222 45.9099 73.4561 45.4901 73.3652C39.0149 71.9896 32.5397 70.6139 26.0645 69.2383C21.3233 68.2121 16.6121 67.1665 11.8708 66.1403C9.42608 65.6112 6.98671 65.0574 4.54734 64.5035C3.95468 64.3753 3.37806 64.1729 2.8582 63.8277C1.7304 63.0666 1.27211 61.9593 1.22369 60.6305C1.20712 60.1099 1.28932 59.6107 1.39622 59.1168C2.13715 55.8133 1.27457 59.9177 2.01549 56.6142C2.96691 52.2188 11.621 12.8354 12.8964 7.06258Z" fill="#F7F7F7"/>
<path d="M33.1559 5.19175C32.5849 4.0083 30.8543 3.76298 30.0198 4.51296C30.0705 4.75658 30.1211 5.0002 30.1224 5.23312C30.1204 5.36193 30.0937 5.4854 30.0669 5.60886C30.0563 5.65825 29.9962 5.69695 29.9715 5.6916C29.9221 5.68091 29.848 5.66488 29.8587 5.61549C29.8253 5.53072 29.822 5.42661 29.8134 5.34718C29.8014 5.16364 29.7647 4.97476 29.7034 4.78052C29.6433 4.81922 29.6133 4.83857 29.5779 4.88261C28.72 5.86018 28.8565 7.25977 29.8501 8.04354C29.8942 8.07892 29.9382 8.1143 29.9823 8.14968C30.0704 8.22045 30.0543 8.29453 29.9836 8.38261C29.9181 8.446 29.8334 8.47935 29.77 8.41393C29.5745 8.24236 29.3489 8.09014 29.2134 7.87988C28.4408 6.91129 28.5318 5.53511 29.4037 4.61227C29.4691 4.54888 29.5099 4.48015 29.57 4.44145C29.0623 3.32342 27.3584 2.95463 26.4338 3.76266C26.4845 4.00628 26.5105 4.24455 26.5418 4.45813C26.5397 4.58694 26.5377 4.71575 26.4863 4.83387C26.4756 4.88326 26.4102 4.94665 26.3608 4.93596C26.3114 4.92527 26.248 4.85985 26.2287 4.82981C26.1953 4.74504 26.2113 4.67096 26.2027 4.59154C26.1907 4.408 26.1787 4.22445 26.0927 4.02488C25.9265 4.1957 25.815 4.35252 25.7282 4.51468C25.1526 5.50165 25.466 6.68104 26.2889 7.29858C26.465 7.44011 26.4984 7.52488 26.3976 7.63231C26.3268 7.72039 26.228 7.69901 26.0712 7.58752C25.2784 6.95063 24.9889 6.13833 25.1534 5.13992C25.2409 4.61602 25.4906 4.17892 25.8531 3.81793C25.8885 3.77389 25.9239 3.72985 25.9539 3.7105C25.501 2.57847 23.7177 2.21834 22.8178 3.03171C22.8685 3.27533 22.9191 3.51894 22.9204 3.75187C22.9184 3.88068 22.8917 4.00415 22.8649 4.12761C22.8542 4.177 22.7942 4.21569 22.7695 4.21035C22.7201 4.19966 22.6513 4.15893 22.6373 4.1042C22.604 4.01943 22.5953 3.94001 22.5867 3.86058C22.5747 3.67704 22.538 3.48816 22.4767 3.29393C22.4059 3.38201 22.3405 3.4454 22.275 3.50879C21.5266 4.45835 21.6845 5.75917 22.5847 6.49686C22.6535 6.53759 22.6922 6.59766 22.7609 6.63839C22.849 6.70916 22.833 6.78324 22.7869 6.87666C22.7215 6.94005 22.6367 6.9734 22.5733 6.90798C22.3778 6.73642 22.1522 6.5842 21.9921 6.36859C21.2194 5.4 21.3105 4.02382 22.1824 3.10098C22.2478 3.03759 22.2885 2.96886 22.3539 2.90547C22.055 2.37547 21.6146 2.02165 21.0273 1.86868C20.0449 1.6302 19.2766 1.95505 18.6751 2.70376C17.9266 3.65332 18.0899 4.92945 18.9901 5.66714C19.0588 5.70786 19.1029 5.74325 19.1663 5.80867C19.2544 5.87943 19.2577 5.98355 19.1922 6.04694C19.1268 6.11033 19.0421 6.14368 18.9787 6.07826C18.7831 5.90669 18.5576 5.75447 18.4221 5.54421C17.5914 4.48551 17.7833 3.00189 18.8033 2.11113C19.286 1.67274 19.8494 1.45863 20.4741 1.43874C21.3564 1.42292 22.0792 1.78616 22.5876 2.54245C22.607 2.57248 22.6263 2.60252 22.665 2.6626C23.2605 2.30032 23.9173 2.13228 24.6387 2.26259C25.3602 2.39289 25.8941 2.79279 26.295 3.44828C26.8905 3.08601 27.5473 2.91797 28.2688 3.04827C28.9902 3.17858 29.5241 3.57848 29.9251 4.23396C30.5205 3.87169 31.1773 3.70365 31.8988 3.83396C32.6203 3.96426 33.1541 4.36416 33.5551 5.01965C34.1505 4.65737 34.8074 4.48933 35.5288 4.61964C36.2503 4.74994 36.7842 5.14984 37.1851 5.80533C37.7806 5.44306 38.4374 5.27502 39.1589 5.40532C39.8803 5.53563 40.4142 5.93553 40.8152 6.59101C41.4106 6.22874 42.0674 6.0607 42.7889 6.19101C43.5104 6.32131 44.0442 6.72121 44.4452 7.3767C45.0707 6.99508 45.7275 6.82703 46.4436 6.98203C47.1597 7.13703 47.6936 7.53693 48.0946 8.19242C48.2094 8.13972 48.3242 8.08702 48.4637 8.03966C48.953 7.80952 49.4843 7.74356 50.0082 7.83111C50.6556 7.94538 51.1755 8.29055 51.5538 8.81188C51.5925 8.87195 51.6312 8.93203 51.6946 8.99745C52.32 8.61583 52.9715 8.47248 53.6683 8.59744C54.3844 8.75244 54.9183 9.15234 55.2999 9.77779C55.6497 9.595 56.0242 9.41755 56.4513 9.35491C57.867 9.14432 59.1883 10.2058 59.2207 11.6087C59.2187 11.7375 59.192 11.861 59.1652 11.9844C59.1599 12.0091 59.0945 12.0725 59.0698 12.0672C59.0204 12.0565 58.9763 12.0211 58.957 11.9911C58.9236 11.9063 58.9203 11.8022 58.9117 11.7228C58.8737 11.3009 58.7757 10.9178 58.5382 10.5821C58.2426 10.1562 57.8602 9.89248 57.347 9.75555C56.7103 9.59189 56.0995 9.66651 55.5535 10.0395C55.5234 10.0588 55.5181 10.0835 55.4934 10.0782C55.5441 10.3218 55.5947 10.5654 55.596 10.7983C55.6187 10.9325 55.5619 11.0753 55.5352 11.1988C55.5299 11.2235 55.4698 11.2622 55.4451 11.2568C55.3957 11.2461 55.3216 11.2301 55.327 11.2054C55.2936 11.1206 55.2656 11.0112 55.2816 10.9371C55.2697 10.7535 55.233 10.5647 55.1716 10.3704C54.9313 10.5252 54.8338 10.7368 54.7063 10.9677C54.2402 11.9266 54.5256 12.9965 55.2991 13.6034C55.3431 13.6388 55.3872 13.6742 55.4312 13.7095C55.5193 13.7803 55.5032 13.8544 55.4625 13.9231C55.4218 13.9919 55.3123 14.0199 55.2242 13.9491C55.1802 13.9137 55.1361 13.8783 55.0868 13.8676C54.4895 13.4023 54.1626 12.7629 54.1447 12.0094C54.1215 11.2805 54.384 10.6652 54.8827 10.1528C54.9181 10.1087 54.9534 10.0647 55.0135 10.026C54.5499 8.94336 52.8567 8.52518 51.8827 9.32252C51.9087 9.56079 51.9647 9.77972 51.9907 10.018C52.0134 10.1521 51.9813 10.3003 51.9546 10.4238C51.9492 10.4485 51.8838 10.5118 51.8591 10.5065C51.8097 10.4958 51.7657 10.4604 51.7463 10.4304C51.713 10.3456 51.7096 10.2415 51.701 10.1621C51.689 9.97854 51.677 9.795 51.591 9.59543C51.5556 9.63947 51.5256 9.65882 51.4955 9.67817C50.6376 10.6557 50.7742 12.0553 51.7678 12.8391C51.8118 12.8745 51.8559 12.9099 51.8752 12.9399C51.9633 13.0107 51.9473 13.0847 51.8765 13.1728C51.8111 13.2362 51.7263 13.2696 51.6629 13.2041C51.4374 13.0519 51.2419 12.8804 51.057 12.6594C50.3144 11.6715 50.4302 10.3006 51.2967 9.40248C51.3321 9.35844 51.3922 9.31974 51.4275 9.2757C51.038 8.20909 49.3007 7.75553 48.3268 8.55287C48.3581 8.76645 48.3894 8.98003 48.4207 9.19361C48.4187 9.32242 48.4113 9.47592 48.3846 9.59939C48.3739 9.64877 48.3138 9.68747 48.2838 9.70682C48.2344 9.69613 48.1657 9.6554 48.1463 9.62536C48.113 9.5406 48.1043 9.46117 48.0957 9.38175C48.0837 9.19821 48.0417 9.03401 48.035 8.82578C47.784 9.02995 47.6318 9.2555 47.5236 9.51644C47.0522 10.5001 47.3924 11.556 48.1464 12.1328C48.1905 12.1682 48.2345 12.2036 48.2786 12.239C48.3666 12.3097 48.3506 12.3838 48.2799 12.4719C48.2144 12.5353 48.1297 12.5686 48.0663 12.5032C47.8407 12.351 47.6452 12.1794 47.4603 11.9585C46.7177 10.9705 46.8335 9.59971 47.6753 8.69622C47.7407 8.63283 47.7815 8.5641 47.8416 8.5254C47.4327 7.42875 45.7201 6.98054 44.6914 7.79188C44.7174 8.03015 44.7734 8.24908 44.7994 8.48735C44.822 8.6215 44.79 8.76966 44.7632 8.89313C44.7579 8.91782 44.6925 8.98121 44.6678 8.97587C44.6184 8.96518 44.5743 8.92979 44.555 8.89976C44.5216 8.81499 44.5183 8.71087 44.5097 8.63145C44.4977 8.44791 44.4857 8.26436 44.3997 8.06479C44.3643 8.10883 44.3342 8.12818 44.3042 8.14753C43.4463 9.1251 43.5828 10.5247 44.5765 11.3085C44.6205 11.3438 44.6646 11.3792 44.6839 11.4093C44.772 11.48 44.756 11.5541 44.6852 11.6422C44.6198 11.7056 44.535 11.7389 44.4716 11.6735C44.2461 11.5213 44.0505 11.3497 43.8657 11.1288C43.1177 10.1655 43.2388 8.76999 44.1054 7.87184C44.1408 7.8278 44.2008 7.7891 44.2362 7.74506C43.8467 6.67845 42.1148 6.2002 41.1054 7.04158C41.1561 7.2852 41.1821 7.52347 41.208 7.76174C41.2307 7.8959 41.1739 8.03871 41.1472 8.16218C41.1419 8.18687 41.0818 8.22557 41.0571 8.22022C41.0077 8.20953 40.9336 8.1935 40.939 8.1688C40.9056 8.08403 40.8776 7.97457 40.8936 7.90049C40.8817 7.71695 40.845 7.52807 40.7836 7.33384C40.7236 7.37253 40.6635 7.41123 40.6281 7.45527C39.8196 8.44353 39.9421 9.78839 40.9111 10.5668C40.9551 10.6022 41.0239 10.6429 41.0379 10.6977C41.0519 10.7524 41.0852 10.8371 41.0445 10.9059C41.0038 10.9746 40.919 11.008 40.8255 10.9619C40.7815 10.9265 40.7128 10.8858 40.6687 10.8504C40.0521 10.355 39.7446 9.74563 39.7321 8.96743C39.7035 8.2633 39.966 7.648 40.4646 7.13554C40.4947 7.1162 40.5301 7.07215 40.5601 7.05281C40.5655 7.02811 40.5902 7.03346 40.5955 7.00877C40.1319 5.92612 38.4634 5.51329 37.4647 6.30528C37.4907 6.54356 37.5467 6.76248 37.5727 7.00075C37.5953 7.13491 37.5633 7.28307 37.5365 7.40653C37.5312 7.43122 37.4658 7.49461 37.4411 7.48927C37.3917 7.47858 37.3476 7.4432 37.3283 7.41316C37.2949 7.32839 37.2916 7.22427 37.283 7.14485C37.271 6.96131 37.259 6.77777 37.1676 6.60289C37.1376 6.62223 37.1075 6.64158 37.0775 6.66093C36.1949 7.63315 36.3261 9.05744 37.3197 9.8412C37.3638 9.87658 37.4078 9.91197 37.4519 9.94735C37.54 10.0181 37.5239 10.0922 37.4532 10.1803C37.3877 10.2437 37.303 10.277 37.2396 10.2116C37.044 10.04 36.8185 9.88781 36.683 9.67754C35.9104 8.70896 36.0014 7.33277 36.8733 6.40994C36.9387 6.34655 36.9795 6.27781 37.0395 6.23912C36.5319 5.12109 34.8226 4.77699 33.9034 5.56033C33.9541 5.80395 33.98 6.04222 34.006 6.28049C34.0287 6.41464 33.9719 6.55746 33.9452 6.68092C33.9398 6.70562 33.8798 6.74431 33.8497 6.76366C33.8003 6.75297 33.7263 6.73694 33.7316 6.71224C33.6983 6.62747 33.6949 6.52336 33.6616 6.43859C33.6249 6.2497 33.6129 6.06616 33.5816 5.85258C33.4014 5.96867 33.2952 6.1008 33.2138 6.23827C32.7658 6.99434 32.7235 7.78655 33.2073 8.5375C33.318 8.74242 33.5189 8.8893 33.6844 9.08021C33.7231 9.14029 33.8218 9.16166 33.8358 9.2164C33.8745 9.27647 33.8832 9.3559 33.8425 9.42463C33.7964 9.51806 33.717 9.52672 33.6235 9.48065C33.5795 9.44526 33.5301 9.43457 33.4861 9.39919C32.6933 8.7623 32.4038 7.95 32.5682 6.95159C32.6558 6.42769 32.9055 5.99059 33.268 5.6296C33.0852 5.27983 33.0959 5.23045 33.1559 5.19175Z" fill="#FF5850"/>
<path d="M37.798 71.6485C34.6865 70.975 31.5998 70.3069 28.4883 69.6335C28.3896 69.6121 28.2908 69.5907 28.192 69.5694C28.1179 69.5533 28.0545 69.4879 28.0759 69.3891C28.0973 69.2904 28.1574 69.2517 28.2561 69.2731C28.3302 69.2891 28.429 69.3105 28.5278 69.3318C34.5531 70.636 40.5538 71.9348 46.5791 73.2389C46.9743 73.3244 47.3447 73.4046 47.7558 73.416C48.5888 73.3895 49.283 73.0486 49.8331 72.418C50.2771 71.9196 50.5782 71.3643 50.7913 70.7384C51.0043 70.1124 51.1873 69.5057 51.3016 68.8584C51.7052 66.5158 50.6729 71.6433 51.1507 69.3168C51.7674 66.3483 52.3894 63.3551 53.0308 60.392C53.2232 59.503 53.4103 58.6388 53.6027 57.7498C53.7898 56.8855 53.9522 56.0159 54.1339 55.1764C54.1499 55.1023 54.1713 55.0035 54.2121 54.9348C54.2474 54.8908 54.3376 54.8327 54.3869 54.8434C54.4363 54.8541 54.4944 54.9442 54.5084 54.9989C54.5117 55.1031 54.4903 55.2018 54.4689 55.3006C54.0574 57.202 53.6512 59.0786 53.2643 60.9853C53.1734 61.4051 53.0826 61.8249 52.997 62.22C52.2627 65.7318 53.1319 61.8356 52.373 65.342C52.0736 66.7248 51.8184 68.143 51.4943 69.5205C51.3286 70.286 51.1136 71.0408 50.7256 71.7581C50.4245 72.3134 50.0299 72.8225 49.5086 73.2008C48.9572 73.5985 48.3197 73.7966 47.6509 73.7811C47.3933 73.777 47.1464 73.7235 46.8994 73.6701C43.848 72.958 40.8354 72.3059 37.798 71.6485Z" fill="#282526"/>
<path d="M59.5957 29.4742C60.1784 26.7826 60.7857 24.0964 61.3436 21.3995C61.4986 20.6834 61.6589 19.9427 61.6604 19.2192C61.6678 19.0657 61.6451 18.9315 61.6525 18.778C61.6438 18.6986 61.6352 18.6192 61.6512 18.5451C61.6619 18.4957 61.7273 18.4323 61.7574 18.413C61.8068 18.4237 61.9002 18.4697 61.9142 18.5245C61.9455 18.738 61.9768 18.9516 61.9835 19.1598C61.9906 19.9627 61.8196 20.7529 61.6539 21.5184C61.2691 23.2963 60.8789 25.0989 60.494 26.8768C59.719 30.4573 58.974 34.0184 58.2237 37.6043C58.2023 37.7031 58.1756 37.8265 58.1542 37.9253C58.1081 38.0187 58.048 38.0574 57.9493 38.036C57.8505 38.0147 57.8171 37.9299 57.8332 37.8558C57.8299 37.7517 57.8759 37.6583 57.8973 37.5595C58.4305 34.8573 59.0131 32.1657 59.5957 29.4742Z" fill="#282526"/>
<path d="M8.74733 26.8438C8.56026 27.7081 8.37318 28.5723 8.19145 29.4119C7.56608 32.301 6.91602 35.1847 6.26596 38.0685C6.24458 38.1672 6.2232 38.266 6.17713 38.3595C6.16644 38.4088 6.08701 38.4175 6.03228 38.4315C6.00758 38.4262 5.94419 38.3607 5.94953 38.336C5.94622 38.2319 5.94291 38.1278 5.95894 38.0537C6.3224 36.3746 6.68052 34.7202 7.04398 33.041C7.4983 30.9421 7.97733 28.8486 8.437 26.725C8.62942 25.836 8.82718 24.9224 9.0196 24.0334C9.03564 23.9593 9.04633 23.91 9.06236 23.8359C9.08374 23.7371 9.13847 23.7231 9.23725 23.7445C9.33603 23.7659 9.38007 23.8012 9.35869 23.9C9.34266 23.9741 9.32662 24.0482 9.31059 24.1222C9.14286 25.0165 8.9451 25.9302 8.74733 26.8438Z" fill="#282526"/>
<path d="M12.1921 10.0891C12.4486 8.90387 12.6998 7.7433 12.9564 6.55803C13.1167 5.81724 13.3652 5.14721 13.7618 4.50926C14.2699 3.71448 14.9822 3.1707 15.9073 2.95733C16.3945 2.85599 16.8851 2.85877 17.3736 2.99036C17.3983 2.99571 17.423 3.00105 17.4724 3.01174C17.5412 3.05247 17.6099 3.09319 17.5885 3.19197C17.5671 3.29074 17.4684 3.26936 17.3889 3.27802C17.2655 3.25129 17.1366 3.24926 17.0132 3.22254C16.0394 3.06348 15.2464 3.38299 14.5621 4.03624C14.1095 4.45527 13.7944 4.95576 13.592 5.53236C13.4625 5.89207 13.3522 6.28181 13.2667 6.6769C12.7322 9.14621 12.1977 11.6155 11.6632 14.0848C11.6365 14.2083 11.6151 14.3071 11.539 14.4198C11.5283 14.4692 11.4189 14.4972 11.3942 14.4919C11.3501 14.4565 11.2867 14.3911 11.2974 14.3417C11.2888 14.2623 11.3295 14.1935 11.3455 14.1195C11.6148 12.756 11.9034 11.4226 12.1921 10.0891Z" fill="#282526"/>
<path d="M5.42894 40.7313C5.52515 40.2868 5.62671 39.8177 5.72292 39.3732C5.76568 39.1757 5.82576 39.137 5.92453 39.1583C6.02331 39.1797 6.08136 39.2698 6.04394 39.4427C5.94773 39.8872 5.85686 40.3069 5.76065 40.7514C5.66444 41.1959 5.57358 41.6157 5.47737 42.0601C5.46133 42.1342 5.45065 42.1836 5.43461 42.2577C5.37785 42.4005 5.31777 42.4392 5.24369 42.4232C5.12556 42.3718 5.1169 42.2923 5.14363 42.1689C5.21514 41.719 5.32204 41.2252 5.42894 40.7313Z" fill="#282526"/>
<path d="M54.883 53.0373C54.8189 53.3336 54.7601 53.6053 54.696 53.9016C54.6585 54.0744 54.5878 54.1625 54.489 54.1411C54.3902 54.1198 54.3569 54.035 54.3996 53.8374C54.5226 53.2695 54.6508 52.6769 54.7738 52.1089C54.8219 51.8867 54.9227 51.7793 55.0161 51.8253C55.1536 51.9068 55.1215 52.055 55.0948 52.1784C55.0113 52.4447 54.9472 52.741 54.883 53.0373Z" fill="#282526"/>
<path d="M11.3763 15.4183C11.3602 15.4924 11.3142 15.5858 11.2734 15.6546C11.2681 15.6793 11.1833 15.7126 11.1339 15.7019C11.1092 15.6966 11.0458 15.6312 11.0512 15.6065C11.0446 15.3982 11.0626 15.1954 11.1548 15.0085C11.1902 14.9645 11.2502 14.9258 11.2996 14.9365C11.349 14.9471 11.3877 15.0072 11.4017 15.0619C11.3997 15.1908 11.3783 15.2895 11.3763 15.4183Z" fill="#282526"/>
<path d="M25.8999 27.6098L18.0719 25.9155L19.7662 18.0878L27.5943 19.7821L25.8999 27.6098ZM18.4323 25.6834L25.6677 27.2494L27.2338 20.0143L19.9984 18.4483L18.4323 25.6834Z" fill="#CBD5D8"/>
<path d="M52.0019 25.3752L31.3329 20.9016C31.2588 20.8855 31.2008 20.7954 31.2168 20.7213C31.2329 20.6473 31.323 20.5892 31.3971 20.6053L52.0907 25.0842C52.1648 25.1002 52.2228 25.1903 52.2068 25.2644C52.1661 25.3331 52.076 25.3912 52.0019 25.3752Z" fill="#CBD5D8"/>
<path d="M51.2162 29.0297L30.5472 24.5562C30.4731 24.5401 30.4151 24.45 30.4311 24.3759C30.4472 24.3018 30.5373 24.2438 30.6114 24.2598L51.305 28.7388C51.3791 28.7548 51.4371 28.8449 51.4211 28.919C51.375 29.0124 51.2903 29.0458 51.2162 29.0297Z" fill="#CBD5D8"/>
<path d="M47.1865 30.0713L30.1476 26.3834C30.0735 26.3674 30.0155 26.2773 30.0315 26.2032C30.0476 26.1291 30.1377 26.0711 30.2118 26.0871L47.2507 29.775C47.3248 29.7911 47.3828 29.8812 47.3668 29.9553C47.3454 30.054 47.2606 30.0874 47.1865 30.0713Z" fill="#CBD5D8"/>
<path d="M51.6058 27.2025L39.3328 24.5461C39.2587 24.5301 39.2007 24.44 39.2167 24.3659C39.2327 24.2918 39.3229 24.2338 39.3969 24.2498L51.6946 26.9115C51.7687 26.9275 51.8267 27.0177 51.8107 27.0917C51.77 27.1605 51.6799 27.2185 51.6058 27.2025Z" fill="#CBD5D8"/>
<path d="M37.7779 24.2095L30.9377 22.729C30.8636 22.713 30.8055 22.6229 30.8216 22.5488C30.8376 22.4747 30.9277 22.4167 31.0018 22.4327L37.8668 23.9186C37.9408 23.9346 37.9989 24.0247 37.9829 24.0988C37.9421 24.1675 37.852 24.2256 37.7779 24.2095Z" fill="#CBD5D8"/>
<path d="M22.4172 24.7105L20.5597 21.8269C20.4823 21.7067 20.5144 21.5586 20.6346 21.4812C20.7547 21.4038 20.9029 21.4359 20.9803 21.556L22.5475 23.9891L30.2831 18.3478C30.4032 18.2704 30.5568 18.2778 30.6342 18.398C30.7116 18.5181 30.7042 18.6716 30.584 18.749L22.4172 24.7105Z" fill="#068D9D"/>
<path d="M22.9994 41.018L15.1714 39.3237L16.8657 31.496L24.6938 33.1903L22.9994 41.018ZM15.5318 39.0915L22.7672 40.6576L24.3333 33.4225L17.0979 31.8565L15.5318 39.0915Z" fill="#CBD5D8"/>
<path d="M49.0972 38.7836L28.4282 34.31C28.3541 34.2939 28.2961 34.2038 28.3121 34.1297C28.3281 34.0557 28.4183 33.9976 28.4923 34.0137L49.186 38.4926C49.2601 38.5086 49.3181 38.5987 49.3021 38.6728C49.2614 38.7415 49.1712 38.7996 49.0972 38.7836Z" fill="#CBD5D8"/>
<path d="M48.3092 42.4381L27.6402 37.9645C27.5662 37.9484 27.5081 37.8583 27.5241 37.7842C27.5402 37.7102 27.6303 37.6521 27.7044 37.6681L48.398 42.1471C48.4721 42.1631 48.5302 42.2532 48.5141 42.3273C48.468 42.4207 48.3833 42.4541 48.3092 42.4381Z" fill="#CBD5D8"/>
<path d="M44.2863 43.4796L27.2474 39.7917C27.1733 39.7757 27.1152 39.6856 27.1313 39.6115C27.1473 39.5374 27.2374 39.4794 27.3115 39.4954L44.3504 43.1833C44.4245 43.1994 44.4825 43.2895 44.4665 43.3636C44.4451 43.4623 44.3604 43.4957 44.2863 43.4796Z" fill="#CBD5D8"/>
<path d="M48.7035 40.6108L36.4306 37.9545C36.3565 37.9384 36.2985 37.8483 36.3145 37.7742C36.3305 37.7001 36.4206 37.6421 36.4947 37.6581L48.7924 40.3198C48.8665 40.3359 48.9245 40.426 48.9085 40.5001C48.8677 40.5688 48.7776 40.6268 48.7035 40.6108Z" fill="#CBD5D8"/>
<path d="M34.8734 37.6177L28.0332 36.1372C27.9591 36.1212 27.9011 36.0311 27.9171 35.957C27.9331 35.8829 28.0232 35.8249 28.0973 35.8409L34.9623 37.3267C35.0364 37.3428 35.0944 37.4329 35.0784 37.507C35.0376 37.5757 34.9475 37.6337 34.8734 37.6177Z" fill="#CBD5D8"/>
<path d="M20.0362 54.6981L12.2082 53.0038L13.9025 45.1761L21.7306 46.8704L20.0362 54.6981ZM12.5686 52.7717L19.804 54.3377L21.3701 47.1026L14.1347 45.5366L12.5686 52.7717Z" fill="#CBD5D8"/>
<path d="M46.1376 52.4634L25.4686 47.9898C25.3945 47.9738 25.3365 47.8836 25.3525 47.8096C25.3685 47.7355 25.4587 47.6774 25.5327 47.6935L46.2264 52.1724C46.3005 52.1884 46.3585 52.2786 46.3425 52.3526C46.3018 52.4214 46.2116 52.4794 46.1376 52.4634Z" fill="#CBD5D8"/>
<path d="M45.3496 56.1178L24.6806 51.6442C24.6066 51.6282 24.5485 51.5381 24.5645 51.464C24.5806 51.3899 24.6707 51.3319 24.7448 51.3479L45.4384 55.8268C45.5125 55.8429 45.5706 55.933 45.5545 56.0071C45.5138 56.0758 45.4237 56.1339 45.3496 56.1178Z" fill="#CBD5D8"/>
<path d="M41.3222 57.1595L24.2833 53.4716C24.2092 53.4556 24.1512 53.3655 24.1672 53.2914C24.1832 53.2173 24.2734 53.1593 24.3474 53.1753L41.3864 56.8632C41.4604 56.8793 41.5185 56.9694 41.5025 57.0435C41.4864 57.1175 41.3963 57.1756 41.3222 57.1595Z" fill="#CBD5D8"/>
<path d="M45.7433 54.2906L33.4704 51.6343C33.3963 51.6182 33.3382 51.5281 33.3543 51.454C33.3703 51.38 33.4604 51.3219 33.5345 51.3379L45.8322 53.9996C45.9063 54.0157 45.9643 54.1058 45.9483 54.1799C45.9075 54.2486 45.8174 54.3067 45.7433 54.2906Z" fill="#CBD5D8"/>
<path d="M31.9154 51.2975L25.0752 49.8169C25.0011 49.8009 24.943 49.7108 24.9591 49.6367C24.9751 49.5626 25.0652 49.5046 25.1393 49.5206L32.0043 51.0065C32.0784 51.0225 32.1364 51.1126 32.1204 51.1867C32.0796 51.2554 31.9895 51.3135 31.9154 51.2975Z" fill="#CBD5D8"/>
<path d="M16.5602 51.7741L14.7027 48.8904C14.6253 48.7703 14.6574 48.6221 14.7776 48.5447C14.8977 48.4673 15.0459 48.4994 15.1233 48.6196L16.6906 51.0526L24.4261 45.4114C24.5463 45.334 24.6998 45.3414 24.7772 45.4615C24.8546 45.5817 24.8472 45.7352 24.727 45.8126L16.5602 51.7741Z" fill="#068D9D"/>
<path d="M4.05749 22.1826C3.99552 21.7576 3.90491 21.3112 3.89295 20.8789C3.83469 19.2533 4.45928 17.758 6.29744 17.056C6.56153 16.9409 6.8579 16.8722 7.15792 16.8284C9.50443 16.4608 11.8509 16.0932 14.2261 15.747C18.2477 15.1352 22.248 14.552 26.2732 13.9652C30.8485 13.2982 35.3988 12.6349 39.9705 11.9429C40.7705 11.8263 41.592 11.681 42.3957 11.5894C44.3244 11.3337 46.2818 11.0995 48.2106 10.8438C48.5606 10.7928 48.9107 10.7418 49.2607 10.6907C50.0571 10.5491 50.829 10.5898 51.5624 10.8914C52.5676 11.3065 53.2416 12.0764 53.5697 13.1009C53.7426 13.5863 53.8155 14.0863 53.9134 14.5827C54.4159 17.8541 60.4054 59.2874 61.765 68.6126C62.0274 70.4127 60.9246 72.1309 59.1787 72.5896C59.1287 72.5969 59.1037 72.6006 59.0573 72.6329C58.6609 72.7162 58.2395 72.8031 57.8145 72.8651C51.2677 73.845 44.7209 74.8249 38.1742 75.8049C33.3738 76.5046 28.5949 77.1758 23.7946 77.8756C21.3194 78.2364 18.8406 78.5722 16.3618 78.9081C15.7618 78.9955 15.1508 79.008 14.5429 78.8668C13.22 78.5491 12.4028 77.6724 11.8919 76.4448C11.694 75.963 11.5961 75.4666 11.5232 74.9666C11.0597 71.6129 11.6898 75.7594 11.2264 72.4056C10.5776 67.9555 4.88539 28.0363 4.05749 22.1826Z" fill="#CECECE"/>
<path d="M1.26049 22.5907C1.19853 22.1656 1.10792 21.7193 1.09596 21.287C1.0377 19.6614 1.66228 18.1661 3.50044 17.4641C3.76453 17.349 4.0609 17.2803 4.36092 17.2365C6.70743 16.8689 9.05394 16.5013 11.4291 16.1551C15.4507 15.5433 19.451 14.9601 23.4762 14.3733C28.0515 13.7063 32.6018 13.043 37.1735 12.351C37.9735 12.2344 38.7949 12.0891 39.5986 11.9975C41.5274 11.7418 43.4848 11.5076 45.4136 11.2519C45.7636 11.2009 46.1137 11.1499 46.4637 11.0988C47.2601 10.9572 48.032 10.9979 48.7654 11.2995C49.7706 11.7146 50.4446 12.4845 50.7727 13.509C50.9456 13.9944 51.0185 14.4944 51.1164 14.9908C51.6189 18.2622 57.6084 59.6955 58.968 69.0207C59.2304 70.8208 58.1276 72.539 56.3817 72.9977C56.3317 73.005 56.3067 73.0087 56.2603 73.041C55.8639 73.1243 55.4425 73.2112 55.0175 73.2732C48.4707 74.2531 41.924 75.233 35.3772 76.213C30.5769 76.9127 25.7979 77.5839 20.9976 78.2837C18.5224 78.6445 16.0436 78.9803 13.5648 79.3162C12.9648 79.4036 12.3538 79.4161 11.7459 79.2749C10.423 78.9571 9.60578 78.0805 9.09487 76.8529C8.89696 76.3711 8.79906 75.8747 8.72616 75.3747C8.26275 72.021 8.8928 76.1674 8.42939 72.8137C7.7806 68.3636 2.08839 28.4444 1.26049 22.5907Z" fill="#F7F7F7"/>
<path d="M19.5776 13.7411C18.6281 12.8327 16.9212 13.2092 16.4024 14.204C16.5352 14.4144 16.668 14.6249 16.7508 14.8426C16.794 14.9639 16.8122 15.089 16.8305 15.214C16.8378 15.264 16.795 15.3212 16.77 15.3249C16.72 15.3322 16.645 15.3431 16.6377 15.2931C16.5768 15.2254 16.5372 15.129 16.5013 15.0577C16.4258 14.89 16.3253 14.7259 16.1997 14.5655C16.157 14.6228 16.1357 14.6514 16.118 14.7051C15.6569 15.9212 16.2751 17.1843 17.4804 17.5703C17.534 17.588 17.5877 17.6057 17.6413 17.6234C17.7486 17.6588 17.7596 17.7338 17.7242 17.8411C17.6851 17.9234 17.6174 17.9844 17.5351 17.9453C17.2918 17.8531 17.0272 17.7895 16.8267 17.64C15.7637 17.0035 15.3668 15.6826 15.8601 14.5129C15.8992 14.4306 15.9133 14.3519 15.956 14.2946C15.0888 13.4253 13.3637 13.6768 12.7808 14.7575C12.9136 14.9679 13.0214 15.182 13.1256 15.3711C13.1688 15.4924 13.212 15.6138 13.2052 15.7424C13.2125 15.7924 13.1735 15.8747 13.1235 15.882C13.0734 15.8893 12.9912 15.8502 12.9625 15.8289C12.9016 15.7612 12.8906 15.6862 12.8547 15.6148C12.7792 15.4471 12.7037 15.2794 12.5531 15.1226C12.4573 15.3408 12.4078 15.5268 12.3833 15.7091C12.19 16.8351 12.8968 17.83 13.8838 18.1201C14.0984 18.191 14.1593 18.2587 14.1026 18.3946C14.0671 18.5019 13.9671 18.5165 13.7812 18.467C12.8155 18.1482 12.2598 17.4888 12.064 16.496C11.9624 15.9747 12.0432 15.4778 12.2563 15.0127C12.274 14.959 12.2917 14.9054 12.313 14.8768C11.4922 13.9751 9.69572 14.2626 9.13783 15.3396C9.27064 15.5501 9.40345 15.7605 9.48626 15.9782C9.52948 16.0996 9.5477 16.2246 9.56593 16.3496C9.57322 16.3996 9.5305 16.4569 9.5055 16.4605C9.4555 16.4678 9.37685 16.4537 9.34456 16.4074C9.28362 16.3397 9.24768 16.2683 9.21175 16.1969C9.13623 16.0292 9.03571 15.8652 8.91019 15.7047C8.87477 15.812 8.8357 15.8943 8.79663 15.9766C8.42832 17.1282 9.03195 18.2912 10.1336 18.6668C10.2122 18.6809 10.2695 18.7236 10.3482 18.7377C10.4554 18.7731 10.4664 18.8481 10.456 18.9517C10.4169 19.034 10.3492 19.095 10.2669 19.0559C10.0236 18.9637 9.75905 18.9001 9.53352 18.7543C8.47047 18.1178 8.07363 16.7969 8.56695 15.6271C8.60601 15.5448 8.62008 15.4662 8.65915 15.3839C8.19352 14.9922 7.65703 14.8151 7.05335 14.8776C6.04964 14.9983 5.44385 15.5718 5.14275 16.4837C4.77444 17.6353 5.37442 18.7734 6.47603 19.149C6.55468 19.163 6.60833 19.1807 6.69063 19.2198C6.79792 19.2552 6.8375 19.3516 6.79844 19.4339C6.75937 19.5162 6.69165 19.5771 6.60936 19.538C6.36612 19.4458 6.10152 19.3823 5.90099 19.2328C4.752 18.5322 4.41195 17.0754 5.05527 15.8837C5.35375 15.304 5.8064 14.9061 6.38457 14.6687C7.20547 14.3447 8.00968 14.4318 8.75084 14.962C8.77949 14.9834 8.80813 15.0047 8.86543 15.0474C9.29621 14.4995 9.85251 14.112 10.5739 13.9813C11.2953 13.8507 11.9354 14.0382 12.5407 14.5117C12.9714 13.9638 13.5277 13.5763 14.2492 13.4456C14.9706 13.3149 15.6107 13.5024 16.2159 13.9759C16.6467 13.428 17.203 13.0405 17.9244 12.9098C18.6458 12.7791 19.2859 12.9666 19.8912 13.4401C20.3219 12.8922 20.8782 12.5047 21.5996 12.374C22.321 12.2433 22.9612 12.4309 23.5664 12.9043C23.9972 12.3564 24.5535 11.9689 25.2749 11.8383C25.9963 11.7076 26.6364 11.8951 27.2416 12.3686C27.6724 11.8207 28.2287 11.4332 28.9501 11.3025C29.6715 11.1718 30.3117 11.3593 30.9169 11.8328C31.369 11.2562 31.9253 10.8688 32.6504 10.7631C33.3754 10.6574 34.0155 10.8449 34.6208 11.3184C34.7098 11.2288 34.7989 11.1392 34.913 11.046C35.2906 10.659 35.7651 10.4111 36.2865 10.3096C36.9329 10.1898 37.5408 10.331 38.0778 10.6867C38.1351 10.7295 38.1923 10.7722 38.2746 10.8112C38.7268 10.2347 39.2867 9.87221 39.9831 9.74515C40.7082 9.63946 41.3483 9.82699 41.9249 10.2791C42.1885 9.98537 42.477 9.68798 42.8552 9.47966C44.1074 8.78648 45.7168 9.31781 46.2387 10.6205C46.2819 10.7418 46.3001 10.8668 46.3183 10.9918C46.322 11.0168 46.2829 11.0991 46.2579 11.1028C46.2079 11.1101 46.1543 11.0923 46.1256 11.071C46.0647 11.0033 46.0251 10.9069 45.9892 10.8356C45.8058 10.4538 45.5798 10.1293 45.2397 9.89801C44.8136 9.60267 44.3631 9.48962 43.8344 9.54116C43.1807 9.61093 42.6348 9.89476 42.2541 10.4354C42.2327 10.464 42.2363 10.489 42.2113 10.4927C42.3442 10.7031 42.477 10.9135 42.5598 11.1312C42.628 11.2489 42.6249 11.4026 42.6431 11.5276C42.6467 11.5526 42.604 11.6099 42.579 11.6135C42.529 11.6208 42.454 11.6318 42.4504 11.6068C42.3894 11.539 42.3249 11.4463 42.3139 11.3713C42.2384 11.2036 42.1379 11.0395 42.0124 10.8791C41.8415 11.1083 41.8243 11.3406 41.7858 11.6015C41.6852 12.663 42.3274 13.5651 43.2644 13.8626C43.318 13.8803 43.3717 13.898 43.4253 13.9157C43.5326 13.9511 43.5436 14.0261 43.5295 14.1048C43.5154 14.1834 43.4227 14.248 43.3154 14.2126C43.2618 14.1949 43.2081 14.1772 43.1581 14.1844C42.4357 13.9578 41.9055 13.4734 41.6247 12.7739C41.3477 12.0994 41.3779 11.4312 41.6655 10.7765C41.6832 10.7229 41.7009 10.6692 41.7436 10.6119C40.9301 9.7603 39.1977 9.96179 38.5648 11.0498C38.6726 11.2639 38.8017 11.4493 38.9095 11.6634C38.9778 11.7811 38.9996 11.9311 39.0179 12.0561C39.0215 12.0811 38.9824 12.1634 38.9574 12.167C38.9074 12.1743 38.8538 12.1566 38.8251 12.1352C38.7642 12.0675 38.7246 11.9712 38.6887 11.8998C38.6132 11.7321 38.5376 11.5644 38.3871 11.4076C38.3694 11.4613 38.3481 11.4899 38.3267 11.5185C37.8657 12.7347 38.4839 13.9978 39.6891 14.3838C39.7428 14.4015 39.7964 14.4192 39.8251 14.4405C39.9324 14.476 39.9433 14.551 39.9079 14.6583C39.8688 14.7405 39.8011 14.8015 39.7188 14.7624C39.4542 14.6989 39.211 14.6067 38.9605 14.4645C37.9188 13.7993 37.5469 12.4748 38.0439 11.33C38.0616 11.2763 38.1043 11.219 38.122 11.1654C37.3835 10.3029 35.5974 10.4866 34.9645 11.5746C35.0687 11.7637 35.1728 11.9528 35.277 12.1418C35.3202 12.2632 35.3671 12.4096 35.3853 12.5346C35.3926 12.5846 35.3499 12.6419 35.3286 12.6705C35.2786 12.6778 35.1999 12.6637 35.1713 12.6424C35.1103 12.5747 35.0744 12.5033 35.0384 12.4319C34.9629 12.2642 34.8661 12.1252 34.7869 11.9324C34.6233 12.2116 34.5598 12.4762 34.5499 12.7585C34.4529 13.845 35.1415 14.7148 36.0498 14.9909C36.1035 15.0086 36.1571 15.0263 36.2108 15.044C36.3181 15.0794 36.329 15.1544 36.2936 15.2617C36.2545 15.344 36.1868 15.405 36.1045 15.3659C35.8399 15.3023 35.5967 15.2101 35.3462 15.0679C34.3045 14.4028 33.9326 13.0783 34.4046 11.9371C34.4436 11.8548 34.4577 11.7762 34.5004 11.7189C33.7332 10.835 31.9722 11.0151 31.2929 12.1354C31.4007 12.3495 31.5299 12.5349 31.6377 12.749C31.7059 12.8667 31.7278 13.0167 31.746 13.1417C31.7497 13.1667 31.7106 13.249 31.6856 13.2526C31.6356 13.2599 31.582 13.2422 31.5533 13.2209C31.4924 13.1531 31.4528 13.0568 31.4169 12.9854C31.3413 12.8177 31.2658 12.65 31.1153 12.4932C31.0976 12.5469 31.0762 12.5755 31.0549 12.6042C30.5938 13.8203 31.2121 15.0834 32.4173 15.4694C32.471 15.4871 32.5246 15.5048 32.5533 15.5262C32.6606 15.5616 32.6715 15.6366 32.6361 15.7439C32.597 15.8262 32.5293 15.8871 32.447 15.848C32.1824 15.7845 31.9391 15.6923 31.6886 15.5501C30.6506 14.9099 30.2751 13.5604 30.772 12.4156C30.7898 12.362 30.8325 12.3047 30.8502 12.251C30.1116 11.3885 28.3219 11.5472 27.6713 12.6889C27.8041 12.8993 27.912 13.1134 28.0198 13.3275C28.088 13.4452 28.0849 13.5988 28.1031 13.7238C28.1067 13.7488 28.064 13.8061 28.039 13.8098C27.989 13.8171 27.914 13.828 27.9104 13.803C27.8494 13.7353 27.7848 13.6426 27.7739 13.5676C27.6984 13.3998 27.5979 13.2358 27.4723 13.0754C27.4296 13.1326 27.3869 13.1899 27.3692 13.2436C26.9582 14.4524 27.5441 15.6692 28.7244 16.0588C28.778 16.0765 28.8567 16.0906 28.889 16.1369C28.9212 16.1833 28.9822 16.251 28.9681 16.3296C28.954 16.4083 28.8863 16.4692 28.7827 16.4588C28.729 16.4411 28.6504 16.427 28.5967 16.4093C27.8457 16.1614 27.3441 15.6983 27.0597 14.9738C26.7863 14.3243 26.8165 13.6561 27.1041 13.0014C27.1254 12.9727 27.1432 12.9191 27.1645 12.8904C27.1609 12.8654 27.1859 12.8618 27.1822 12.8368C26.3687 11.9852 24.6613 12.183 24.0034 13.2747C24.1112 13.4887 24.2404 13.6742 24.3482 13.8882C24.4164 14.006 24.4383 14.156 24.4565 14.281C24.4601 14.306 24.4211 14.3883 24.3961 14.3919C24.3461 14.3992 24.2924 14.3815 24.2638 14.3601C24.2028 14.2924 24.1632 14.1961 24.1273 14.1247C24.0518 13.957 23.9763 13.7893 23.8294 13.6575C23.808 13.6861 23.7867 13.7148 23.7653 13.7434C23.2793 14.9632 23.9012 16.2513 25.1064 16.6373C25.1601 16.655 25.2137 16.6727 25.2674 16.6904C25.3747 16.7258 25.3856 16.8008 25.3502 16.9081C25.3111 16.9904 25.2434 17.0514 25.1611 17.0123C24.9178 16.9201 24.6532 16.8565 24.4527 16.707C23.3897 16.0705 22.9928 14.7497 23.4861 13.5799C23.5252 13.4976 23.5393 13.4189 23.582 13.3616C22.7148 12.4923 20.9933 12.7688 20.4068 13.8245C20.5396 14.0349 20.6474 14.249 20.7552 14.4631C20.8234 14.5808 20.8203 14.7344 20.8385 14.8594C20.8422 14.8844 20.7995 14.9417 20.7781 14.9704C20.7281 14.9777 20.6531 14.9886 20.6495 14.9636C20.5885 14.8959 20.5489 14.7995 20.488 14.7318C20.3875 14.5678 20.312 14.4 20.2078 14.211C20.0797 14.3828 20.0265 14.5438 19.9984 14.7011C19.8437 15.5662 20.0817 16.323 20.7978 16.8569C20.9733 17.01 21.2129 17.0772 21.4348 17.1981C21.4921 17.2408 21.5921 17.2262 21.6244 17.2725C21.6817 17.3153 21.7176 17.3866 21.7036 17.4653C21.6932 17.5689 21.6218 17.6048 21.5181 17.5944C21.4645 17.5767 21.4145 17.584 21.3608 17.5663C20.3952 17.2475 19.8394 16.5881 19.6436 15.5953C19.5421 15.074 19.6229 14.5771 19.8359 14.112C19.5422 13.8484 19.5349 13.7984 19.5776 13.7411Z" fill="#FF5850"/>
<path d="M47.207 74.3603C44.0568 74.8195 40.9315 75.2751 37.7813 75.7343C37.6813 75.7489 37.5813 75.7635 37.4813 75.7781C37.4063 75.789 37.324 75.7499 37.3094 75.6499C37.2949 75.5499 37.3376 75.4926 37.4376 75.4781C37.5126 75.4671 37.6126 75.4525 37.7126 75.438C43.813 74.5487 49.8884 73.663 55.9888 72.7737C56.3888 72.7154 56.7639 72.6607 57.1529 72.5274C57.9238 72.2107 58.4546 71.6482 58.7489 70.8649C58.9901 70.2425 59.0777 69.617 59.0579 68.956C59.0381 68.2951 58.997 67.6628 58.8773 67.0164C58.4346 64.6809 59.2641 69.8451 58.8965 67.4987C58.4341 64.5023 57.9681 61.4809 57.5307 58.4808C57.3995 57.5808 57.2719 56.7057 57.1407 55.8057C57.0131 54.9307 56.8606 54.0593 56.7366 53.2093C56.7257 53.1343 56.7111 53.0343 56.7252 52.9557C56.7429 52.902 56.807 52.8161 56.857 52.8088C56.907 52.8015 56.9929 52.8656 57.0252 52.9119C57.0648 53.0083 57.0794 53.1083 57.0939 53.2083C57.3746 55.1333 57.6516 57.0334 57.9573 58.9548C58.0192 59.3798 58.0812 59.8048 58.1395 60.2048C58.6821 63.7513 58.1312 59.7975 58.6488 63.3476C58.8529 64.7476 59.1106 66.1654 59.2898 67.5691C59.4028 68.3441 59.4657 69.1264 59.3537 69.9342C59.2662 70.5597 59.075 71.1748 58.7192 71.7118C58.3421 72.2774 57.8144 72.6863 57.1826 72.906C56.9399 72.9925 56.6899 73.0289 56.4399 73.0654C53.3324 73.4673 50.2822 73.912 47.207 74.3603Z" fill="#282526"/>
<path d="M52.8434 27.2234C52.4461 24.4983 52.0738 21.7696 51.6515 19.0482C51.5458 18.3232 51.4364 17.5731 51.1844 16.895C51.1375 16.7486 51.0693 16.6309 51.0224 16.4846C50.9865 16.4132 50.9505 16.3418 50.9396 16.2668C50.9323 16.2168 50.9714 16.1345 50.9927 16.1059C51.0427 16.0986 51.1464 16.109 51.1787 16.1554C51.2828 16.3445 51.387 16.5335 51.4662 16.7263C51.7542 17.4758 51.8708 18.2758 51.9838 19.0508C52.2462 20.8508 52.5123 22.6759 52.7747 24.4759C53.3032 28.101 53.8531 31.6975 54.4066 35.3189C54.4212 35.4189 54.4394 35.5439 54.454 35.6439C54.4436 35.7475 54.4009 35.8048 54.3009 35.8194C54.2008 35.834 54.1399 35.7663 54.129 35.6913C54.0894 35.5949 54.0998 35.4913 54.0852 35.3913C53.6379 32.6735 53.2407 29.9484 52.8434 27.2234Z" fill="#282526"/>
<path d="M4.30175 42.5729C4.42932 43.4479 4.55689 44.3229 4.68081 45.1729C5.10726 48.098 5.50871 51.0267 5.91016 53.9554C5.92474 54.0554 5.93932 54.1554 5.9289 54.2591C5.93619 54.3091 5.86483 54.345 5.81847 54.3773C5.79347 54.381 5.71117 54.3419 5.70753 54.3169C5.66794 54.2205 5.62836 54.1242 5.61743 54.0492C5.36958 52.3491 5.12537 50.6741 4.87752 48.9741C4.5677 46.849 4.28289 44.7203 3.96943 42.5703C3.83822 41.6702 3.70336 40.7452 3.57214 39.8452C3.56121 39.7702 3.55392 39.7202 3.54298 39.6452C3.5284 39.5452 3.57476 39.5129 3.67477 39.4983C3.77477 39.4837 3.82842 39.5015 3.843 39.6015C3.85394 39.6765 3.86487 39.7515 3.87581 39.8265C4.03202 40.7228 4.16689 41.6479 4.30175 42.5729Z" fill="#282526"/>
<path d="M1.65938 25.6731C1.48442 24.473 1.31311 23.298 1.13816 22.098C1.02881 21.348 1.02677 20.6334 1.17473 19.8969C1.37218 18.9745 1.8488 18.2157 2.64054 17.6917C3.06141 17.4261 3.52186 17.2569 4.02554 17.209C4.05054 17.2053 4.07554 17.2017 4.12554 17.1944C4.20419 17.2085 4.28285 17.2225 4.29742 17.3225C4.312 17.4225 4.212 17.4371 4.14064 17.473C4.01563 17.4913 3.89427 17.5345 3.76926 17.5527C2.80148 17.7449 2.17069 18.3219 1.75865 19.1735C1.48152 19.7245 1.3617 20.3037 1.37417 20.9146C1.37884 21.2969 1.41215 21.7006 1.47047 22.1006C1.83496 24.6007 2.19945 27.1007 2.56393 29.6008C2.58216 29.7258 2.59674 29.8258 2.56496 29.9581C2.57225 30.0081 2.47953 30.0727 2.45453 30.0763C2.40088 30.0586 2.31859 30.0195 2.3113 29.9695C2.27536 29.8982 2.28943 29.8195 2.27849 29.7445C2.05303 28.3731 1.8562 27.0231 1.65938 25.6731Z" fill="#282526"/>
<path d="M6.0604 56.742C5.9948 56.292 5.92554 55.817 5.85994 55.3669C5.83078 55.1669 5.87349 55.1097 5.9735 55.0951C6.0735 55.0805 6.15944 55.1446 6.18496 55.3196C6.25056 55.7696 6.31253 56.1946 6.37814 56.6446C6.44374 57.0946 6.50571 57.5196 6.57131 57.9696C6.58225 58.0446 6.58954 58.0946 6.60047 58.1696C6.59734 58.3233 6.55463 58.3806 6.47962 58.3915C6.35097 58.3847 6.31503 58.3134 6.29681 58.1884C6.2062 57.742 6.1333 57.242 6.0604 56.742Z" fill="#282526"/>
<path d="M56.6856 50.9443C56.7294 51.2443 56.7695 51.5193 56.8132 51.8193C56.8387 51.9943 56.8033 52.1016 56.7033 52.1162C56.6033 52.1308 56.5423 52.0631 56.5132 51.8631C56.4294 51.288 56.3419 50.688 56.258 50.113C56.2252 49.888 56.282 49.7521 56.3857 49.7625C56.543 49.7906 56.5649 49.9406 56.5831 50.0656C56.5982 50.3443 56.6419 50.6443 56.6856 50.9443Z" fill="#282526"/>
<path d="M2.75427 30.9508C2.76521 31.0258 2.75478 31.1294 2.74072 31.2081C2.74436 31.2331 2.67665 31.294 2.62664 31.3013C2.60164 31.3049 2.51935 31.2659 2.5157 31.2409C2.43654 31.0482 2.38238 30.8518 2.40322 30.6445C2.42094 30.5909 2.46365 30.5336 2.51365 30.5263C2.56366 30.519 2.62095 30.5617 2.65324 30.6081C2.69647 30.7294 2.71105 30.8294 2.75427 30.9508Z" fill="#282526"/>
<path d="M20.6388 37.2811L12.7133 38.4365L11.5579 30.5113L19.4834 29.3559L20.6388 37.2811ZM12.9696 38.0927L20.295 37.0248L19.2271 29.6997L11.9016 30.7676L12.9696 38.0927Z" fill="#CBD5D8"/>
<path d="M44.3028 26.044L23.3764 29.0946C23.3014 29.1055 23.2155 29.0415 23.2045 28.9665C23.1936 28.8915 23.2577 28.8055 23.3327 28.7946L44.2841 25.7403C44.3591 25.7294 44.445 25.7935 44.4559 25.8685C44.4419 25.9471 44.3778 26.033 44.3028 26.044Z" fill="#CBD5D8"/>
<path d="M44.8452 29.744L23.9188 32.7946C23.8438 32.8055 23.7579 32.7415 23.747 32.6665C23.736 32.5914 23.8001 32.5055 23.8751 32.4946L44.8265 29.4403C44.9015 29.4294 44.9874 29.4934 44.9984 29.5684C44.9879 29.6721 44.9202 29.733 44.8452 29.744Z" fill="#CBD5D8"/>
<path d="M41.4401 32.1297L24.1889 34.6446C24.1139 34.6555 24.028 34.5915 24.017 34.5165C24.0061 34.4415 24.0702 34.3555 24.1452 34.3446L41.3963 31.8297C41.4713 31.8188 41.5573 31.8829 41.5682 31.9579C41.5828 32.0579 41.5151 32.1188 41.4401 32.1297Z" fill="#CBD5D8"/>
<path d="M44.5727 27.894L32.1469 29.7054C32.0719 29.7164 31.9859 29.6523 31.975 29.5773C31.9641 29.5023 32.0281 29.4164 32.1031 29.4054L44.5539 27.5904C44.629 27.5794 44.7149 27.6435 44.7258 27.7185C44.7118 27.7971 44.6477 27.8831 44.5727 27.894Z" fill="#CBD5D8"/>
<path d="M30.5724 29.9349L23.6469 30.9445C23.5719 30.9555 23.486 30.8914 23.4751 30.8164C23.4641 30.7414 23.5282 30.6555 23.6032 30.6445L30.5537 29.6313C30.6287 29.6204 30.7146 29.6844 30.7255 29.7594C30.7115 29.8381 30.6474 29.924 30.5724 29.9349Z" fill="#CBD5D8"/>
<path d="M16.3617 35.7856L13.6117 33.7355C13.4971 33.65 13.4752 33.5 13.5606 33.3854C13.6461 33.2709 13.7961 33.249 13.9107 33.3344L16.231 35.0642L21.5 27.0706C21.5854 26.956 21.7317 26.9092 21.8463 26.9946C21.9609 27.08 22.0078 27.2264 21.9224 27.3409L16.3617 35.7856Z" fill="#068D9D"/>
<path d="M22.6179 50.8563L14.6924 52.0117L13.537 44.0865L21.4625 42.9311L22.6179 50.8563ZM14.9487 51.668L22.2742 50.6001L21.2062 43.2749L13.8807 44.3428L14.9487 51.668Z" fill="#CBD5D8"/>
<path d="M46.2803 39.6194L25.3539 42.67C25.2789 42.6809 25.193 42.6169 25.182 42.5419C25.1711 42.4669 25.2352 42.3809 25.3102 42.37L46.2615 39.3157C46.3365 39.3048 46.4225 39.3688 46.4334 39.4438C46.4194 39.5225 46.3553 39.6084 46.2803 39.6194Z" fill="#CBD5D8"/>
<path d="M46.8182 43.3193L25.8919 46.3699C25.8169 46.3809 25.7309 46.3168 25.72 46.2418C25.7091 46.1668 25.7731 46.0808 25.8481 46.0699L46.7995 43.0156C46.8745 43.0047 46.9604 43.0688 46.9714 43.1438C46.961 43.2474 46.8933 43.3084 46.8182 43.3193Z" fill="#CBD5D8"/>
<path d="M43.4131 45.7052L26.162 48.22C26.0869 48.231 26.001 48.1669 25.9901 48.0919C25.9791 48.0169 26.0432 47.9309 26.1182 47.92L43.3693 45.4052C43.4443 45.3942 43.5303 45.4583 43.5412 45.5333C43.5558 45.6333 43.4881 45.6942 43.4131 45.7052Z" fill="#CBD5D8"/>
<path d="M46.5491 41.4693L34.1233 43.2807C34.0483 43.2917 33.9624 43.2276 33.9514 43.1526C33.9405 43.0776 34.0046 42.9917 34.0796 42.9807L46.5304 41.1657C46.6054 41.1547 46.6913 41.2188 46.7023 41.2938C46.6882 41.3725 46.6241 41.4584 46.5491 41.4693Z" fill="#CBD5D8"/>
<path d="M32.5488 43.5103L25.6233 44.5199C25.5483 44.5308 25.4624 44.4668 25.4514 44.3918C25.4405 44.3168 25.5046 44.2308 25.5796 44.2199L32.53 43.2067C32.605 43.1957 32.691 43.2598 32.7019 43.3348C32.6878 43.4134 32.6238 43.4994 32.5488 43.5103Z" fill="#CBD5D8"/>
<path d="M24.6331 64.7069L16.7076 65.8623L15.5521 57.9371L23.4776 56.7818L24.6331 64.7069ZM16.9638 65.5186L24.2893 64.4507L23.2214 57.1255L15.8959 58.1934L16.9638 65.5186Z" fill="#CBD5D8"/>
<path d="M48.2955 53.4698L27.3691 56.5205C27.2941 56.5314 27.2082 56.4673 27.1972 56.3923C27.1863 56.3173 27.2504 56.2314 27.3254 56.2204L48.2767 53.1662C48.3517 53.1552 48.4377 53.2193 48.4486 53.2943C48.4346 53.3729 48.3705 53.4589 48.2955 53.4698Z" fill="#CBD5D8"/>
<path d="M48.8381 57.1699L27.9118 60.2205C27.8368 60.2315 27.7508 60.1674 27.7399 60.0924C27.729 60.0174 27.793 59.9315 27.868 59.9205L48.8194 56.8663C48.8944 56.8553 48.9803 56.9194 48.9913 56.9944C48.9772 57.073 48.9131 57.159 48.8381 57.1699Z" fill="#CBD5D8"/>
<path d="M45.4307 59.5557L28.1796 62.0706C28.1046 62.0815 28.0186 62.0174 28.0077 61.9424C27.9968 61.8674 28.0608 61.7815 28.1359 61.7706L45.387 59.2557C45.462 59.2448 45.5479 59.3088 45.5589 59.3838C45.5698 59.4588 45.5057 59.5448 45.4307 59.5557Z" fill="#CBD5D8"/>
<path d="M48.5696 55.3198L36.1438 57.1312C36.0688 57.1422 35.9828 57.0781 35.9719 57.0031C35.9609 56.9281 36.025 56.8422 36.1 56.8312L48.5508 55.0161C48.6258 55.0052 48.7118 55.0693 48.7227 55.1443C48.7086 55.2229 48.6446 55.3089 48.5696 55.3198Z" fill="#CBD5D8"/>
<path d="M34.5691 57.3609L27.6436 58.3705C27.5686 58.3814 27.4827 58.3174 27.4718 58.2424C27.4608 58.1673 27.5249 58.0814 27.5999 58.0705L34.5504 57.0572C34.6254 57.0463 34.7113 57.1104 34.7222 57.1854C34.7082 57.264 34.6441 57.35 34.5691 57.3609Z" fill="#CBD5D8"/>
<path d="M20.3537 63.1864L17.6037 61.1362C17.4891 61.0508 17.4672 60.9008 17.5527 60.7862C17.6381 60.6716 17.7881 60.6498 17.9027 60.7352L20.223 62.465L25.492 54.4714C25.5774 54.3568 25.7237 54.3099 25.8383 54.3954C25.9529 54.4808 25.9998 54.6271 25.9144 54.7417L20.3537 63.1864Z" fill="#068D9D"/>
</svg>
