<svg width="20" height="20" viewBox="0 0 20 20" fill="none" xmlns="http://www.w3.org/2000/svg">
<path d="M16.6667 0H3.33333C2.44928 0 1.60143 0.35119 0.976311 0.976311C0.35119 1.60143 0 2.44928 0 3.33333V16.6667C0 17.5507 0.35119 18.3986 0.976311 19.0237C1.60143 19.6488 2.44928 20 3.33333 20H16.6667C17.5507 20 18.3986 19.6488 19.0237 19.0237C19.6488 18.3986 20 17.5507 20 16.6667V3.33333C20 2.44928 19.6488 1.60143 19.0237 0.976311C18.3986 0.35119 17.5507 0 16.6667 0ZM3.33333 2.22222H16.6667C16.9614 2.22222 17.244 2.33929 17.4523 2.54766C17.6607 2.75603 17.7778 3.03865 17.7778 3.33333V12.6222L14.2222 9.58889C13.6713 9.1356 12.9801 8.88777 12.2667 8.88777C11.5533 8.88777 10.862 9.1356 10.3111 9.58889L2.22222 16.3333V3.33333C2.22222 3.03865 2.33929 2.75603 2.54766 2.54766C2.75603 2.33929 3.03865 2.22222 3.33333 2.22222ZM16.6667 17.7778H3.95556L11.7333 11.2889C11.8827 11.1779 12.0639 11.118 12.25 11.118C12.4361 11.118 12.6173 11.1779 12.7667 11.2889L17.7778 15.5556V16.6667C17.7778 16.9614 17.6607 17.244 17.4523 17.4523C17.244 17.6607 16.9614 17.7778 16.6667 17.7778Z" fill="#151515" fill-opacity="0.7"/>
<path d="M5.55558 7.77767C6.47606 7.77767 7.22225 7.03148 7.22225 6.111C7.22225 5.19053 6.47606 4.44434 5.55558 4.44434C4.63511 4.44434 3.88892 5.19053 3.88892 6.111C3.88892 7.03148 4.63511 7.77767 5.55558 7.77767Z" fill="#151515" fill-opacity="0.7"/>
</svg>
