<svg width="126" height="23" viewBox="0 0 126 23" fill="none" xmlns="http://www.w3.org/2000/svg">
<path d="M0.957 11.494C0.957 5.317 5.655 0.300001 11.832 0.300001C18.009 0.300001 22.736 5.317 22.736 11.494C22.736 17.671 18.009 22.688 11.832 22.688C5.655 22.688 0.957 17.671 0.957 11.494ZM18.444 11.494C18.444 7.086 15.689 4.099 11.832 4.099C7.975 4.099 5.22 7.086 5.22 11.494C5.22 15.902 7.975 18.889 11.832 18.889C15.689 18.889 18.444 15.902 18.444 11.494ZM25.1251 22.108V1.083H28.8951V13.466L34.4921 7.608H39.1321L32.1721 14.423L37.4211 19.295L39.1611 19.092V21.818C38.5811 22.108 37.9721 22.282 37.2181 22.282C35.6521 22.282 34.7531 21.528 33.6511 20.397L29.1271 16.076H28.8951V22.108H25.1251Z" fill="#151515"/>
<path d="M0.957 11.494H1.257C1.257 5.47122 5.83192 0.600001 11.832 0.600001V0.300001V7.15256e-07C5.47808 7.15256e-07 0.657 5.16278 0.657 11.494H0.957ZM11.832 0.300001V0.600001C17.8331 0.600001 22.436 5.47229 22.436 11.494H22.736H23.036C23.036 5.16171 18.1849 7.15256e-07 11.832 7.15256e-07V0.300001ZM22.736 11.494H22.436C22.436 17.5157 17.8331 22.388 11.832 22.388V22.688V22.988C18.1849 22.988 23.036 17.8263 23.036 11.494H22.736ZM11.832 22.688V22.388C5.83192 22.388 1.257 17.5168 1.257 11.494H0.957H0.657C0.657 17.8252 5.47808 22.988 11.832 22.988V22.688ZM18.444 11.494H18.744C18.744 9.22765 18.0352 7.30364 16.8071 5.94254C15.5772 4.57935 13.8421 3.799 11.832 3.799V4.099V4.399C13.6789 4.399 15.2498 5.11215 16.3616 6.34447C17.4754 7.57886 18.144 9.35235 18.144 11.494H18.444ZM11.832 4.099V3.799C9.82186 3.799 8.0868 4.57935 6.85688 5.94254C5.62885 7.30364 4.92 9.22765 4.92 11.494H5.22H5.52C5.52 9.35235 6.18865 7.57886 7.30237 6.34447C8.4142 5.11215 9.98514 4.399 11.832 4.399V4.099ZM5.22 11.494H4.92C4.92 13.7604 5.62885 15.6844 6.85688 17.0455C8.0868 18.4087 9.82186 19.189 11.832 19.189V18.889V18.589C9.98514 18.589 8.4142 17.8758 7.30237 16.6435C6.18865 15.4091 5.52 13.6356 5.52 11.494H5.22ZM11.832 18.889V19.189C13.8421 19.189 15.5772 18.4087 16.8071 17.0455C18.0352 15.6844 18.744 13.7604 18.744 11.494H18.444H18.144C18.144 13.6356 17.4754 15.4091 16.3616 16.6435C15.2498 17.8758 13.6789 18.589 11.832 18.589V18.889ZM25.1251 22.108H24.8251V22.408H25.1251V22.108ZM25.1251 1.083V0.783001H24.8251V1.083H25.1251ZM28.8951 1.083H29.1951V0.783001H28.8951V1.083ZM28.8951 13.466H28.5951V14.2143L29.112 13.6732L28.8951 13.466ZM34.4921 7.608V7.308H34.3638L34.2752 7.40076L34.4921 7.608ZM39.1321 7.608L39.342 7.82235L39.8673 7.308H39.1321V7.608ZM32.1721 14.423L31.9622 14.2086L31.7374 14.4288L31.968 14.6429L32.1721 14.423ZM37.4211 19.295L37.217 19.5149L37.3184 19.609L37.4559 19.593L37.4211 19.295ZM39.1611 19.092H39.4611V18.755L39.1263 18.794L39.1611 19.092ZM39.1611 21.818L39.2953 22.0863L39.4611 22.0034V21.818H39.1611ZM33.6511 20.397L33.8661 20.1875L33.8583 20.1801L33.6511 20.397ZM29.1271 16.076L29.3343 15.8591L29.2474 15.776H29.1271V16.076ZM28.8951 16.076V15.776H28.5951V16.076H28.8951ZM28.8951 22.108V22.408H29.1951V22.108H28.8951ZM25.1251 22.108H25.4251V1.083H25.1251H24.8251V22.108H25.1251ZM25.1251 1.083V1.383H28.8951V1.083V0.783001H25.1251V1.083ZM28.8951 1.083H28.5951V13.466H28.8951H29.1951V1.083H28.8951ZM28.8951 13.466L29.112 13.6732L34.709 7.81525L34.4921 7.608L34.2752 7.40076L28.6782 13.2588L28.8951 13.466ZM34.4921 7.608V7.908H39.1321V7.608V7.308H34.4921V7.608ZM39.1321 7.608L38.9222 7.39365L31.9622 14.2086L32.1721 14.423L32.382 14.6374L39.342 7.82235L39.1321 7.608ZM32.1721 14.423L31.968 14.6429L37.217 19.5149L37.4211 19.295L37.6252 19.0751L32.3762 14.2031L32.1721 14.423ZM37.4211 19.295L37.4559 19.593L39.1959 19.39L39.1611 19.092L39.1263 18.794L37.3863 18.997L37.4211 19.295ZM39.1611 19.092H38.8611V21.818H39.1611H39.4611V19.092H39.1611ZM39.1611 21.818L39.0269 21.5497C38.4836 21.8213 37.9203 21.982 37.2181 21.982V22.282V22.582C38.0239 22.582 38.6786 22.3947 39.2953 22.0863L39.1611 21.818ZM37.2181 22.282V21.982C35.7819 21.982 34.9586 21.309 33.866 20.1876L33.6511 20.397L33.4362 20.6064C34.5476 21.747 35.5223 22.582 37.2181 22.582V22.282ZM33.6511 20.397L33.8583 20.1801L29.3343 15.8591L29.1271 16.076L28.9199 16.2929L33.4439 20.6139L33.6511 20.397ZM29.1271 16.076V15.776H28.8951V16.076V16.376H29.1271V16.076ZM28.8951 16.076H28.5951V22.108H28.8951H29.1951V16.076H28.8951ZM28.8951 22.108V21.808H25.1251V22.108V22.408H28.8951V22.108Z" fill="#151515"/>
<path d="M45.421 22.108V1.083H49.307L58.355 15.38V1.083H62.241V22.108H58.355L49.307 7.666V22.108H45.421ZM64.4656 14.829C64.4656 10.972 67.3946 7.028 71.9476 7.028C76.5876 7.028 79.3716 10.972 79.3716 14.829C79.3716 18.715 76.5296 22.659 71.9476 22.659C67.3946 22.659 64.4656 18.686 64.4656 14.829ZM75.6016 14.829C75.6016 12.074 74.2096 9.928 71.9476 9.928C69.7146 9.928 68.2356 12.161 68.2356 14.829C68.2356 17.555 69.7146 19.759 71.9476 19.759C74.2096 19.759 75.6016 17.584 75.6016 14.829ZM83.8542 3.171H86.6092L86.6382 7.608H90.4662V10.479H86.6672L86.7252 19.498C86.9282 19.701 87.4212 19.759 88.0302 19.759C88.8132 19.759 89.7992 19.643 90.5242 19.556V22.108C89.9732 22.34 88.8132 22.543 87.8562 22.543C85.3622 22.543 83.0422 21.354 82.9262 19.15L82.8392 10.479H80.3162V7.608H82.8972L83.8542 3.171ZM91.6531 14.829C91.6531 10.189 94.8721 7.028 99.3091 7.028C103.775 7.028 106.588 10.247 106.124 15.467H95.4521C95.6551 17.932 96.9891 19.759 99.4541 19.759C101.136 19.759 102.934 18.889 103.224 16.772H106.53C105.979 20.339 102.963 22.659 99.4251 22.659C95.6551 22.659 91.6531 20.281 91.6531 14.829ZM99.2221 9.928C97.3371 9.928 95.9741 11.349 95.5681 13.466H102.383C102.151 11.407 101.165 9.928 99.2221 9.928ZM124.028 22.108H120.258L120.229 20.02H119.997C118.982 21.934 117.01 22.688 115.067 22.688C111.181 22.688 108.165 19.672 108.165 14.858C108.165 10.015 111.181 7.028 115.212 7.028C117.213 7.028 119.098 7.811 120.026 9.58H120.229L120.258 1.083H124.028V22.108ZM111.935 14.8C111.935 17.613 113.385 19.759 116.024 19.759C118.547 19.759 120.229 18.019 120.229 14.829C120.229 11.465 118.373 9.928 116.111 9.928C113.559 9.928 111.935 11.842 111.935 14.8Z" fill="#068D9D"/>
<path d="M45.421 22.108H45.121V22.408H45.421V22.108ZM45.421 1.083V0.783001H45.121V1.083H45.421ZM49.307 1.083L49.5605 0.922571L49.4722 0.783001H49.307V1.083ZM58.355 15.38L58.1015 15.5404L58.655 16.415V15.38H58.355ZM58.355 1.083V0.783001H58.055V1.083H58.355ZM62.241 1.083H62.541V0.783001H62.241V1.083ZM62.241 22.108V22.408H62.541V22.108H62.241ZM58.355 22.108L58.1008 22.2673L58.1889 22.408H58.355V22.108ZM49.307 7.666L49.5612 7.50673L49.007 6.62209V7.666H49.307ZM49.307 22.108V22.408H49.607V22.108H49.307ZM45.421 22.108H45.721V1.083H45.421H45.121V22.108H45.421ZM45.421 1.083V1.383H49.307V1.083V0.783001H45.421V1.083ZM49.307 1.083L49.0535 1.24343L58.1015 15.5404L58.355 15.38L58.6085 15.2196L49.5605 0.922571L49.307 1.083ZM58.355 15.38H58.655V1.083H58.355H58.055V15.38H58.355ZM58.355 1.083V1.383H62.241V1.083V0.783001H58.355V1.083ZM62.241 1.083H61.941V22.108H62.241H62.541V1.083H62.241ZM62.241 22.108V21.808H58.355V22.108V22.408H62.241V22.108ZM58.355 22.108L58.6092 21.9487L49.5612 7.50673L49.307 7.666L49.0528 7.82528L58.1008 22.2673L58.355 22.108ZM49.307 7.666H49.007V22.108H49.307H49.607V7.666H49.307ZM49.307 22.108V21.808H45.421V22.108V22.408H49.307V22.108ZM64.4656 14.829H64.7656C64.7656 11.1027 67.5933 7.328 71.9476 7.328V7.028V6.728C67.196 6.728 64.1656 10.8413 64.1656 14.829H64.4656ZM71.9476 7.028V7.328C76.3838 7.328 79.0716 11.0968 79.0716 14.829H79.3716H79.6716C79.6716 10.8472 76.7914 6.728 71.9476 6.728V7.028ZM79.3716 14.829H79.0716C79.0716 18.5893 76.3266 22.359 71.9476 22.359V22.659V22.959C76.7326 22.959 79.6716 18.8408 79.6716 14.829H79.3716ZM71.9476 22.659V22.359C67.5946 22.359 64.7656 18.5568 64.7656 14.829H64.4656H64.1656C64.1656 18.8152 67.1947 22.959 71.9476 22.959V22.659ZM75.6016 14.829H75.9016C75.9016 13.4049 75.5423 12.1142 74.8668 11.1707C74.1861 10.2201 73.1859 9.628 71.9476 9.628V9.928V10.228C72.9714 10.228 73.7981 10.7089 74.379 11.52C74.9649 12.3383 75.3016 13.4981 75.3016 14.829H75.6016ZM71.9476 9.928V9.628C70.7198 9.628 69.7073 10.2455 69.0117 11.2015C68.3193 12.153 67.9356 13.4429 67.9356 14.829H68.2356H68.5356C68.5356 13.5471 68.8914 12.3865 69.4968 11.5545C70.0989 10.727 70.9424 10.228 71.9476 10.228V9.928ZM68.2356 14.829H67.9356C67.9356 16.243 68.3187 17.5405 69.0117 18.4928C69.7082 19.45 70.7211 20.059 71.9476 20.059V19.759V19.459C70.9411 19.459 70.0981 18.966 69.4968 18.1397C68.892 17.3085 68.5356 16.1411 68.5356 14.829H68.2356ZM71.9476 19.759V20.059C73.1875 20.059 74.1876 19.4582 74.8675 18.5008C75.5424 17.5505 75.9016 16.2531 75.9016 14.829H75.6016H75.3016C75.3016 16.1599 74.9649 17.3275 74.3783 18.1534C73.7967 18.9723 72.9698 19.459 71.9476 19.459V19.759ZM83.8542 3.171V2.871H83.612L83.5609 3.10775L83.8542 3.171ZM86.6092 3.171L86.9091 3.16904L86.9072 2.871H86.6092V3.171ZM86.6382 7.608L86.3382 7.60996L86.3401 7.908H86.6382V7.608ZM90.4662 7.608H90.7662V7.308H90.4662V7.608ZM90.4662 10.479V10.779H90.7662V10.479H90.4662ZM86.6672 10.479V10.179H86.3652L86.3672 10.4809L86.6672 10.479ZM86.7252 19.498L86.4252 19.4999L86.426 19.6231L86.513 19.7101L86.7252 19.498ZM90.5242 19.556H90.8242V19.2178L90.4884 19.2581L90.5242 19.556ZM90.5242 22.108L90.6406 22.3845L90.8242 22.3072V22.108H90.5242ZM82.9262 19.15L82.6259 19.153L82.6266 19.1658L82.9262 19.15ZM82.8392 10.479L83.1391 10.476L83.1362 10.179H82.8392V10.479ZM80.3162 10.479H80.0162V10.779H80.3162V10.479ZM80.3162 7.608V7.308H80.0162V7.608H80.3162ZM82.8972 7.608V7.908H83.1394L83.1904 7.67125L82.8972 7.608ZM83.8542 3.171V3.471H86.6092V3.171V2.871H83.8542V3.171ZM86.6092 3.171L86.3092 3.17296L86.3382 7.60996L86.6382 7.608L86.9381 7.60604L86.9091 3.16904L86.6092 3.171ZM86.6382 7.608V7.908H90.4662V7.608V7.308H86.6382V7.608ZM90.4662 7.608H90.1662V10.479H90.4662H90.7662V7.608H90.4662ZM90.4662 10.479V10.179H86.6672V10.479V10.779H90.4662V10.479ZM86.6672 10.479L86.3672 10.4809L86.4252 19.4999L86.7252 19.498L87.0252 19.4961L86.9672 10.4771L86.6672 10.479ZM86.7252 19.498L86.513 19.7101C86.6823 19.8794 86.934 19.9576 87.173 20C87.4233 20.0444 87.7191 20.059 88.0302 20.059V19.759V19.459C87.7322 19.459 87.477 19.4446 87.2778 19.4092C87.0673 19.3719 86.971 19.3196 86.9373 19.2859L86.7252 19.498ZM88.0302 19.759V20.059C88.8344 20.059 89.839 19.9404 90.5599 19.8539L90.5242 19.556L90.4884 19.2581C89.7593 19.3456 88.7919 19.459 88.0302 19.459V19.759ZM90.5242 19.556H90.2242V22.108H90.5242H90.8242V19.556H90.5242ZM90.5242 22.108L90.4077 21.8315C89.9053 22.0431 88.7883 22.243 87.8562 22.243V22.543V22.843C88.838 22.843 90.041 22.637 90.6406 22.3845L90.5242 22.108ZM87.8562 22.543V22.243C86.6522 22.243 85.5076 21.9553 84.6597 21.4194C83.818 20.8875 83.2776 20.1199 83.2257 19.1342L82.9262 19.15L82.6266 19.1658C82.6907 20.3841 83.3683 21.313 84.3391 21.9266C85.3037 22.5362 86.5661 22.843 87.8562 22.843V22.543ZM82.9262 19.15L83.2261 19.147L83.1391 10.476L82.8392 10.479L82.5392 10.482L82.6262 19.153L82.9262 19.15ZM82.8392 10.479V10.179H80.3162V10.479V10.779H82.8392V10.479ZM80.3162 10.479H80.6162V7.608H80.3162H80.0162V10.479H80.3162ZM80.3162 7.608V7.908H82.8972V7.608V7.308H80.3162V7.608ZM82.8972 7.608L83.1904 7.67125L84.1474 3.23425L83.8542 3.171L83.5609 3.10775L82.6039 7.54475L82.8972 7.608ZM106.124 15.467V15.767H106.399L106.423 15.4936L106.124 15.467ZM95.4521 15.467V15.167H95.1264L95.1531 15.4916L95.4521 15.467ZM103.224 16.772V16.472H102.962L102.927 16.7313L103.224 16.772ZM106.53 16.772L106.827 16.8178L106.88 16.472H106.53V16.772ZM95.5681 13.466L95.2735 13.4095L95.2051 13.766H95.5681V13.466ZM102.383 13.466V13.766H102.719L102.681 13.4324L102.383 13.466ZM91.6531 14.829H91.9531C91.9531 12.5802 92.7319 10.7085 94.0302 9.39979C95.3286 8.091 97.1637 7.328 99.3091 7.328V7.028V6.728C97.0175 6.728 95.0246 7.5455 93.6043 8.97722C92.1838 10.409 91.3531 12.4378 91.3531 14.829H91.6531ZM99.3091 7.028V7.328C101.467 7.328 103.196 8.1031 104.334 9.48104C105.475 10.8626 106.052 12.8874 105.825 15.4404L106.124 15.467L106.423 15.4936C106.66 12.8266 106.063 10.6319 104.797 9.09897C103.528 7.5624 101.617 6.728 99.3091 6.728V7.028ZM106.124 15.467V15.167H95.4521V15.467V15.767H106.124V15.467ZM95.4521 15.467L95.1531 15.4916C95.2582 16.768 95.6582 17.9083 96.3788 18.7345C97.1058 19.5683 98.1397 20.059 99.4541 20.059V19.759V19.459C98.3035 19.459 97.4379 19.0362 96.831 18.3402C96.2175 17.6367 95.849 16.631 95.7511 15.4424L95.4521 15.467ZM99.4541 19.759V20.059C100.343 20.059 101.276 19.8297 102.032 19.306C102.795 18.7773 103.365 17.9568 103.521 16.8127L103.224 16.772L102.927 16.7313C102.794 17.7042 102.319 18.3772 101.69 18.8128C101.054 19.2533 100.247 19.459 99.4541 19.459V19.759ZM103.224 16.772V17.072H106.53V16.772V16.472H103.224V16.772ZM106.53 16.772L106.234 16.7262C105.707 20.1329 102.83 22.359 99.4251 22.359V22.659V22.959C103.096 22.959 106.251 20.5451 106.827 16.8178L106.53 16.772ZM99.4251 22.659V22.359C97.5994 22.359 95.7301 21.7827 94.3219 20.5618C92.9207 19.347 91.9531 17.4747 91.9531 14.829H91.6531H91.3531C91.3531 17.6353 92.3865 19.678 93.9288 21.0152C95.4642 22.3463 97.4808 22.959 99.4251 22.959V22.659ZM99.2221 9.928V9.628C97.1496 9.628 95.6974 11.1989 95.2735 13.4095L95.5681 13.466L95.8627 13.5225C96.2508 11.4991 97.5246 10.228 99.2221 10.228V9.928ZM95.5681 13.466V13.766H102.383V13.466V13.166H95.5681V13.466ZM102.383 13.466L102.681 13.4324C102.561 12.3691 102.244 11.4214 101.675 10.7337C101.098 10.0354 100.28 9.628 99.2221 9.628V9.928V10.228C100.107 10.228 100.754 10.5601 101.213 11.116C101.681 11.6826 101.973 12.5039 102.085 13.4996L102.383 13.466ZM124.028 22.108V22.408H124.328V22.108H124.028ZM120.258 22.108L119.958 22.1122L119.962 22.408H120.258V22.108ZM120.229 20.02L120.529 20.0158L120.524 19.72H120.229V20.02ZM119.997 20.02V19.72H119.816L119.731 19.8795L119.997 20.02ZM120.026 9.58L119.76 9.71937L119.844 9.88H120.026V9.58ZM120.229 9.58V9.88H120.528L120.529 9.58103L120.229 9.58ZM120.258 1.083V0.783001H119.959L119.958 1.08198L120.258 1.083ZM124.028 1.083H124.328V0.783001H124.028V1.083ZM124.028 22.108V21.808H120.258V22.108V22.408H124.028V22.108ZM120.258 22.108L120.558 22.1038L120.529 20.0158L120.229 20.02L119.929 20.0242L119.958 22.1122L120.258 22.108ZM120.229 20.02V19.72H119.997V20.02V20.32H120.229V20.02ZM119.997 20.02L119.731 19.8795C118.785 21.6641 116.939 22.388 115.067 22.388V22.688V22.988C117.08 22.988 119.178 22.2039 120.262 20.1606L119.997 20.02ZM115.067 22.688V22.388C113.204 22.388 111.56 21.667 110.38 20.3758C109.198 19.0835 108.465 17.2019 108.465 14.858H108.165H107.865C107.865 17.3281 108.639 19.3615 109.937 20.7807C111.236 22.201 113.043 22.988 115.067 22.988V22.688ZM108.165 14.858H108.465C108.465 12.4992 109.198 10.6189 110.396 9.33121C111.593 8.04457 113.273 7.328 115.212 7.328V7.028V6.728C113.119 6.728 111.276 7.50493 109.957 8.92254C108.639 10.3391 107.865 12.3738 107.865 14.858H108.165ZM115.212 7.028V7.328C117.142 7.328 118.9 8.08071 119.76 9.71937L120.026 9.58L120.291 9.44064C119.295 7.5413 117.283 6.728 115.212 6.728V7.028ZM120.026 9.58V9.88H120.229V9.58V9.28H120.026V9.58ZM120.229 9.58L120.529 9.58103L120.558 1.08402L120.258 1.083L119.958 1.08198L119.929 9.57898L120.229 9.58ZM120.258 1.083V1.383H124.028V1.083V0.783001H120.258V1.083ZM124.028 1.083H123.728V22.108H124.028H124.328V1.083H124.028ZM111.935 14.8H111.635C111.635 16.2543 112.009 17.5647 112.753 18.5188C113.503 19.4813 114.613 20.059 116.024 20.059V19.759V19.459C114.795 19.459 113.86 18.9637 113.226 18.1499C112.585 17.3278 112.235 16.1587 112.235 14.8H111.935ZM116.024 19.759V20.059C117.358 20.059 118.496 19.5966 119.297 18.6888C120.095 17.7853 120.529 16.4744 120.529 14.829H120.229H119.929C119.929 16.3736 119.522 17.5277 118.847 18.2917C118.177 19.0514 117.213 19.459 116.024 19.459V19.759ZM120.229 14.829H120.529C120.529 13.0927 120.049 11.7871 119.238 10.9129C118.425 10.0374 117.311 9.628 116.111 9.628V9.928V10.228C117.172 10.228 118.117 10.5871 118.798 11.3211C119.48 12.0564 119.929 13.2013 119.929 14.829H120.229ZM116.111 9.928V9.628C114.754 9.628 113.624 10.1396 112.837 11.0598C112.055 11.9751 111.635 13.2682 111.635 14.8H111.935H112.235C112.235 13.3738 112.626 12.2309 113.294 11.4497C113.957 10.6734 114.915 10.228 116.111 10.228V9.928Z" fill="#068D9D"/>
</svg>
