<svg width="32" height="32" viewBox="0 0 32 32" fill="none" xmlns="http://www.w3.org/2000/svg">
<path d="M10.4106 8.48576C10.4181 7.27267 11.4714 6.2342 12.67 6.23738L19.3378 6.25533C19.9329 6.25647 20.5034 6.49257 20.9254 6.91203C21.3472 7.33145 21.587 7.90063 21.5917 8.49543C21.5917 8.73516 21.5529 8.97065 21.4771 9.19977L21.3887 9.42626L21.386 9.43455C20.7839 11.1523 20.6803 12.5311 21.1021 13.7967C21.5101 15.0187 22.2024 16.5376 24.2399 18.5751C24.4477 18.783 24.6171 19.0359 24.7274 19.3099L24.7281 19.3106C24.8425 19.5824 24.901 19.8747 24.9008 20.1696C24.9005 20.4644 24.8409 20.7564 24.7261 21.0279V21.0293C24.6144 21.3032 24.4491 21.5521 24.2399 21.7613C24.0308 21.9704 23.7818 22.1357 23.508 22.2474H23.5066L23.2939 22.3247C23.0792 22.3899 22.8577 22.4205 22.6338 22.4187H17.1813L17.1668 22.5022L15.9922 29.5394L14.8183 22.5015L14.8052 22.418H9.33752C9.12114 22.4209 8.90257 22.3876 8.68773 22.322L8.47435 22.2453C7.99515 22.0432 7.60186 21.6845 7.35638 21.2309L7.26039 21.0314C7.03389 20.4789 7.0321 19.8593 7.25763 19.3064C7.37336 19.0313 7.53633 18.7874 7.74791 18.5758C9.78276 16.5409 10.4745 15.0213 10.8809 13.7994H10.8822L10.9748 13.5315L10.9768 13.5253C11.3069 12.3241 11.1745 11.0096 10.5812 9.32338L10.4873 9.35652L10.5819 9.32268L10.577 9.31371C10.4807 9.11251 10.412 8.79965 10.412 8.48576H10.4106ZM12.5692 8.52443C13.4126 10.8877 13.5128 12.7448 12.9414 14.4609L12.8323 14.7441L12.8316 14.7461C12.1449 16.6677 11.0403 18.3272 9.26985 20.0978L9.09859 20.269L9.33959 20.2683L22.6331 20.2663H22.8734L22.7035 20.0964C20.8602 18.2415 19.7411 16.5109 19.0616 14.481C18.4885 12.7632 18.5886 10.9072 19.3903 8.62939L19.4359 8.49819L19.2971 8.49612L12.6645 8.39046L12.5202 8.38839L12.5692 8.52443Z" fill="#151515" fill-opacity="0.7" stroke="white" stroke-width="0.2"/>
</svg>
