<svg width="32" height="32" viewBox="0 0 32 32" fill="none" xmlns="http://www.w3.org/2000/svg">
<path d="M25.6714 24.0942L21.8949 20.3287C23.1134 18.7764 23.7745 16.8595 23.7721 14.886C23.7721 13.1285 23.2509 11.4105 22.2745 9.94922C21.2981 8.48792 19.9103 7.34897 18.2866 6.67641C16.6629 6.00385 14.8762 5.82788 13.1525 6.17075C11.4287 6.51362 9.84539 7.35993 8.60266 8.60266C7.35993 9.84539 6.51362 11.4287 6.17075 13.1525C5.82788 14.8762 6.00385 16.6629 6.67641 18.2866C7.34897 19.9103 8.48792 21.2981 9.94922 22.2745C11.4105 23.2509 13.1285 23.7721 14.886 23.7721C16.8595 23.7745 18.7764 23.1134 20.3287 21.8949L24.0942 25.6714C24.1974 25.7755 24.3203 25.8582 24.4556 25.9146C24.591 25.971 24.7362 26 24.8828 26C25.0294 26 25.1746 25.971 25.31 25.9146C25.4453 25.8582 25.5682 25.7755 25.6714 25.6714C25.7755 25.5682 25.8582 25.4453 25.9146 25.31C25.971 25.1746 26 25.0294 26 24.8828C26 24.7362 25.971 24.591 25.9146 24.4556C25.8582 24.3203 25.7755 24.1974 25.6714 24.0942ZM8.22151 14.886C8.22151 13.5679 8.61238 12.2794 9.34468 11.1834C10.077 10.0874 11.1178 9.23324 12.3356 8.72882C13.5534 8.22439 14.8934 8.09241 16.1862 8.34957C17.479 8.60672 18.6665 9.24145 19.5986 10.1735C20.5306 11.1056 21.1653 12.2931 21.4225 13.5858C21.6796 14.8786 21.5477 16.2186 21.0432 17.4364C20.5388 18.6542 19.6846 19.6951 18.5886 20.4274C17.4927 21.1597 16.2041 21.5505 14.886 21.5505C13.1185 21.5505 11.4233 20.8484 10.1735 19.5986C8.92366 18.3487 8.22151 16.6536 8.22151 14.886Z" fill="#151515" fill-opacity="0.7"/>
</svg>
